<?xml version="1.0" encoding="utf-8"?>
<!-- Generator: Adobe Illustrator 25.0.1, SVG Export Plug-In . SVG Version: 6.00 Build 0)  -->
<svg version="1.1" id="Layer_1" xmlns="http://www.w3.org/2000/svg" xmlns:xlink="http://www.w3.org/1999/xlink" x="0px" y="0px"
	 viewBox="0 0 491.9 500" style="enable-background:new 0 0 491.9 500;" xml:space="preserve">
<style type="text/css">
	.st0{fill:#B1B4C4;}
	.st1{fill:#E4E7F2;}
	.st2{fill:#D6D8E5;}
	.st3{fill:#FFFFFF;}
	.st4{opacity:0.5;fill:url(#SVGID_1_);enable-background:new    ;}
	.st5{opacity:0.4;fill:#D6D8E5;enable-background:new    ;}
	.st6{fill:#2B303F;}
	.st7{fill:#C3C6D1;}
	.st8{fill:#E9EAF2;}
	.st9{fill:#1ED26E;}
	.st10{fill:#F5F6FF;}
	.st11{fill:none;stroke:#E9EAF2;stroke-width:0.22;stroke-miterlimit:10;}
	.st12{fill:none;stroke:#E9EAF2;stroke-width:1.09;stroke-miterlimit:10;}
	.st13{fill:#FAFBFF;}
	.st14{opacity:0.3;fill:#D6D8E5;enable-background:new    ;}
	.st15{fill:#8C50FF;}
	.st16{opacity:0.1;enable-background:new    ;}
	.st17{opacity:0.15;enable-background:new    ;}
	.st18{fill:#2B2A30;}
	.st19{fill:#FFCEA9;}
	.st20{fill:#F4F4F4;}
	.st21{fill:#BF4B4B;}
	.st22{fill:#E26161;}
	.st23{fill:#EDEDED;}
	.st24{fill:#3A2C6D;}
	.st25{fill:#BFBFBF;}
	.st26{fill:#E5E5E5;}
	.st27{fill:#38226D;}
	.st28{fill:#9C73FF;}
	.st29{fill:#A1A5B5;}
	.st30{opacity:0.1;fill:#3E7EFF;enable-background:new    ;}
</style>
<g id="Слой_2">
	<g id="Слой_1-2">
		<g id="Laptop">
			<path class="st0" d="M378.2,323.5L171.5,204.2c-2.9-1.7-5.2-6.2-5.2-10V34.2c0-3.9,2.4-5.6,5.2-4l206.7,119.4
				c2.9,1.7,5.2,6.2,5.2,10v159.9C383.4,323.4,381.1,325.2,378.2,323.5z"/>
			<polygon class="st0" points="379.2,325.2 381.5,323.9 380.5,317.1 			"/>
			<path class="st0" d="M165.8,31.3l2.2-1.3l3.2,1.9c0,0-3.4,0.5-3.5,0.5S165.8,31.3,165.8,31.3z"/>
			<path class="st1" d="M376.3,324.6L169.6,205.3c-2.9-1.7-5.2-6.2-5.2-10V35.3c0-3.9,2.4-5.6,5.2-4l206.7,119.4
				c2.9,1.7,5.2,6.2,5.2,10v159.9C381.5,324.5,379.2,326.3,376.3,324.6z"/>
			<path class="st2" d="M375.9,324.9L169.2,205.5c-2.9-1.7-5.2-6.2-5.2-10V35.6c0-3.9,2.4-5.6,5.2-4l206.7,119.4
				c2.9,1.7,5.2,6.2,5.2,10v159.9C381.2,324.7,378.8,326.5,375.9,324.9z"/>
			<path class="st3" d="M378.3,315.1L166.6,192.9l0.1-156.7c0-1.6,1.1-2.3,2.5-1.5l206.7,119.4c1.5,1,2.4,2.6,2.5,4.4L378.3,315.1z"
				/>
			
				<linearGradient id="SVGID_1_" gradientUnits="userSpaceOnUse" x1="-274.2701" y1="-1816.0541" x2="-274.2701" y2="-1677.8041" gradientTransform="matrix(0.87 0.5 0 -1.15 511.1 -1707.7495)">
				<stop  offset="0.21" style="stop-color:#FFFFFF;stop-opacity:0"/>
				<stop  offset="1" style="stop-color:#FFFFFF;stop-opacity:0.2"/>
			</linearGradient>
			<path class="st4" d="M378.3,315L166.6,192.8l0.1-156.7c0-1.6,1.1-2.2,2.5-1.5L375.9,154c1.5,1,2.4,2.6,2.5,4.4L378.3,315z"/>
			<path class="st5" d="M220,417.8L13.3,298.4c-2.9-1.7-2.5-4.6,0.8-6.5l138.5-79.9c3.4-1.9,8.4-2.1,11.3-0.5l206.7,119.3
				c2.9,1.7,2.5,4.6-0.8,6.5l-138.5,80C228,419.2,222.9,419.4,220,417.8z"/>
			<path class="st0" d="M224.5,415.1L17.8,295.7c-2.9-1.7-2.5-4.6,0.8-6.5l138.5-80c3.3-1.9,8.4-2.1,11.3-0.5l206.7,119.4
				c2.9,1.7,2.5,4.6-0.8,6.5l-138.5,80C232.5,416.5,227.4,416.7,224.5,415.1z"/>
			<polygon class="st0" points="15.8,293 15.8,289.1 20.2,290.9 			"/>
			<polygon class="st0" points="377.1,331 377.1,327.2 373.9,328.3 376,331.5 			"/>
			<path class="st1" d="M224.5,411.8L17.8,292.4c-2.9-1.7-2.5-4.6,0.8-6.5l138.5-80c3.3-1.9,8.4-2.1,11.3-0.5l206.7,119.4
				c2.9,1.7,2.5,4.6-0.8,6.5l-138.5,79.9C232.5,413.2,227.4,413.5,224.5,411.8z"/>
			<path class="st2" d="M224.5,411.3L17.8,291.9c-2.9-1.7-2.5-4.6,0.8-6.5l138.5-80c3.3-1.9,8.4-2.1,11.3-0.5l206.7,119.4
				c2.9,1.7,2.5,4.6-0.8,6.5l-138.5,80C232.5,412.7,227.4,412.9,224.5,411.3z"/>
			<path class="st6" d="M153.3,232.4l-9.6-5.6c-0.8-0.4-0.7-1.2,0.2-1.8l9.2-5.3c0.9-0.5,2.1-0.6,3.1-0.1l9.6,5.6
				c0.8,0.4,0.7,1.2-0.2,1.8l-9.2,5.3C155.4,232.8,154.2,232.8,153.3,232.4z"/>
			<path class="st6" d="M166.9,240.3l-9.6-5.6c-0.8-0.4-0.7-1.2,0.2-1.8l9.2-5.3c0.9-0.5,2.1-0.6,3.1-0.1l9.6,5.6
				c0.8,0.4,0.7,1.2-0.2,1.8l-9.2,5.3C169,240.7,167.9,240.7,166.9,240.3z"/>
			<path class="st6" d="M180.7,248.2l-9.7-5.6c-0.8-0.5-0.7-1.2,0.2-1.8l9.2-5.3c0.9-0.5,2.1-0.6,3.1-0.1l9.6,5.6
				c0.8,0.5,0.7,1.2-0.2,1.8l-9.2,5.3C182.8,248.6,181.6,248.7,180.7,248.2z"/>
			<path class="st6" d="M194.1,256l-9.6-5.6c-0.8-0.4-0.7-1.2,0.2-1.8l9.2-5.3c0.9-0.5,2.1-0.6,3.1-0.1l9.6,5.6
				c0.8,0.4,0.7,1.2-0.2,1.8l-9.2,5.3C196.3,256.4,195.1,256.4,194.1,256z"/>
			<path class="st6" d="M207.8,263.9l-9.6-5.6c-0.8-0.5-0.7-1.2,0.2-1.8l9.2-5.3c0.9-0.5,2.1-0.6,3.1-0.1l9.6,5.6
				c0.8,0.5,0.7,1.2-0.2,1.8l-9.2,5.3C209.9,264.3,208.7,264.3,207.8,263.9z"/>
			<path class="st6" d="M221.4,271.7l-9.6-5.5c-0.8-0.5-0.7-1.2,0.2-1.8l9.2-5.3c0.9-0.5,2.1-0.6,3.1-0.1l9.6,5.5
				c0.8,0.5,0.7,1.2-0.2,1.8l-9.2,5.3C223.5,272.1,222.4,272.2,221.4,271.7z"/>
			<path class="st6" d="M235,279.6l-9.6-5.6c-0.8-0.5-0.7-1.2,0.2-1.8l9.2-5.3c0.9-0.5,2.1-0.6,3.1-0.1l9.6,5.6
				c0.8,0.5,0.7,1.2-0.2,1.8l-9.2,5.3C237.1,280,236,280,235,279.6z"/>
			<path class="st6" d="M248.6,287.5l-9.6-5.6c-0.8-0.5-0.7-1.2,0.2-1.8l9.2-5.3c0.9-0.5,2.1-0.6,3.1-0.1l9.6,5.6
				c0.8,0.5,0.7,1.2-0.2,1.8l-9.2,5.3C250.7,287.9,249.6,287.9,248.6,287.5z"/>
			<path class="st6" d="M262.3,295.3l-9.6-5.5c-0.8-0.5-0.7-1.2,0.2-1.8l9.2-5.3c0.9-0.5,2.1-0.6,3.1-0.1l9.6,5.6
				c0.8,0.5,0.7,1.2-0.2,1.8l-9.2,5.3C264.4,295.7,263.3,295.8,262.3,295.3z"/>
			<path class="st6" d="M275.9,303.2l-9.6-5.6c-0.8-0.5-0.7-1.2,0.2-1.8l9.2-5.3c0.9-0.5,2.1-0.6,3.1-0.1l9.6,5.5
				c0.8,0.5,0.7,1.2-0.2,1.8l-9.2,5.3C278,303.6,276.9,303.6,275.9,303.2z"/>
			<path class="st6" d="M289.5,311.1l-9.6-5.6c-0.8-0.5-0.7-1.2,0.2-1.8l9.2-5.3c0.9-0.5,2.1-0.6,3.1-0.1l9.6,5.6
				c0.8,0.5,0.7,1.2-0.2,1.8l-9.2,5.3C291.6,311.5,290.5,311.5,289.5,311.1z"/>
			<path class="st6" d="M303.1,318.9l-9.6-5.5c-0.8-0.5-0.7-1.2,0.2-1.8l9.2-5.3c0.9-0.5,2.1-0.6,3.1-0.1l9.6,5.6
				c0.8,0.5,0.7,1.2-0.2,1.8l-9.2,5.3C305.3,319.3,304.1,319.4,303.1,318.9z"/>
			<path class="st6" d="M316.8,326.8l-9.6-5.6c-0.8-0.5-0.7-1.2,0.2-1.8l9.2-5.3c0.9-0.5,2.1-0.6,3.1-0.1l9.6,5.5
				c0.8,0.5,0.7,1.2-0.2,1.8l-9.2,5.3C318.9,327.2,317.8,327.3,316.8,326.8z"/>
			<path class="st6" d="M337,338.5l-16.2-9.4c-0.8-0.5-0.7-1.2,0.2-1.8l9.2-5.3c0.9-0.5,2.1-0.6,3.1-0.1l16.2,9.4
				c0.8,0.5,0.7,1.2-0.2,1.8l-9.2,5.3C339.1,338.9,338,338.9,337,338.5z"/>
			<path class="st6" d="M160.3,251.7l-9.6-5.6c-0.8-0.5-0.7-1.2,0.2-1.8l9.2-5.3c0.9-0.5,2.1-0.6,3.1-0.1l9.6,5.6
				c0.8,0.5,0.7,1.2-0.2,1.8l-9.2,5.3C162.4,252.1,161.3,252.1,160.3,251.7z"/>
			<path class="st6" d="M173.9,259.6l-9.6-5.6c-0.8-0.5-0.7-1.2,0.2-1.8l9.2-5.3c0.9-0.5,2.1-0.6,3.1-0.1l9.6,5.6
				c0.8,0.5,0.7,1.2-0.2,1.8l-9.2,5.3C176,260,174.9,260,173.9,259.6z"/>
			<path class="st6" d="M187.6,267.5l-9.6-5.5c-0.8-0.5-0.7-1.2,0.2-1.8l9.2-5.3c0.9-0.5,2.1-0.6,3.1-0.1l9.6,5.6
				c0.8,0.5,0.7,1.2-0.2,1.8l-9.2,5.3C189.7,267.9,188.5,267.9,187.6,267.5z"/>
			<path class="st6" d="M201.2,275.3l-9.6-5.5c-0.8-0.5-0.7-1.2,0.2-1.8l9.2-5.3c0.9-0.5,2.1-0.6,3.1-0.1l9.6,5.6
				c0.8,0.5,0.7,1.2-0.2,1.8l-9.2,5.3C203.3,275.7,202.2,275.8,201.2,275.3z"/>
			<path class="st6" d="M214.8,283.1l-9.6-5.6c-0.8-0.5-0.7-1.2,0.2-1.8l9.2-5.3c0.9-0.5,2.1-0.6,3.1-0.1l9.6,5.5
				c0.8,0.5,0.7,1.2-0.2,1.8l-9.2,5.3C216.9,283.6,215.7,283.6,214.8,283.1z"/>
			<path class="st6" d="M228.4,291l-9.6-5.5c-0.8-0.5-0.7-1.2,0.2-1.8l9.2-5.3c0.9-0.5,2.1-0.6,3.1-0.1l9.6,5.5
				c0.8,0.5,0.7,1.2-0.2,1.8l-9.2,5.3C230.5,291.4,229.4,291.4,228.4,291z"/>
			<path class="st6" d="M242.1,298.9l-9.6-5.5c-0.8-0.5-0.7-1.2,0.2-1.8l9.2-5.3c0.9-0.5,2.1-0.6,3.1-0.1l9.6,5.5
				c0.8,0.5,0.7,1.2-0.2,1.8l-9.2,5.3C244.2,299.3,243,299.4,242.1,298.9z"/>
			<path class="st6" d="M255.7,306.8l-9.6-5.5c-0.8-0.5-0.7-1.2,0.2-1.8l9.2-5.3c0.9-0.5,2.1-0.6,3.1-0.1l9.6,5.5
				c0.8,0.5,0.7,1.2-0.2,1.8l-9.2,5.3C257.8,307.2,256.7,307.2,255.7,306.8z"/>
			<path class="st6" d="M269.4,314.7l-9.6-5.5c-0.8-0.5-0.7-1.2,0.2-1.8l9.2-5.3c0.9-0.5,2.1-0.6,3.1-0.1l9.6,5.6
				c0.8,0.5,0.7,1.2-0.2,1.8l-9.2,5.3C271.5,315.1,270.3,315.1,269.4,314.7z"/>
			<path class="st6" d="M283,322.5l-9.6-5.5c-0.8-0.5-0.7-1.2,0.2-1.8l9.2-5.3c0.9-0.5,2.1-0.6,3.1-0.1l9.6,5.6
				c0.8,0.5,0.7,1.2-0.2,1.8l-9.2,5.3C285.1,323,284,323,283,322.5z"/>
			<path class="st6" d="M296.6,330.4l-9.6-5.5c-0.8-0.5-0.7-1.2,0.2-1.8l9.2-5.3c0.9-0.5,2.1-0.6,3.1-0.1l9.6,5.6
				c0.8,0.5,0.7,1.2-0.2,1.8l-9.2,5.3C298.8,330.8,297.6,330.9,296.6,330.4z"/>
			<path class="st6" d="M310.3,338.3l-9.6-5.6c-0.8-0.5-0.7-1.2,0.2-1.8l9.2-5.3c0.9-0.5,2.1-0.6,3.1-0.1l9.6,5.6
				c0.8,0.5,0.7,1.2-0.2,1.8l-9.2,5.3C312.4,338.7,311.3,338.8,310.3,338.3z"/>
			<path class="st6" d="M146.6,243.8l-16.2-9.3c-0.8-0.5-0.7-1.2,0.2-1.8l9.2-5.3c0.9-0.5,2.1-0.6,3.1-0.1l16.2,9.3
				c0.8,0.5,0.7,1.2-0.2,1.8l-9.2,5.3C148.7,244.2,147.6,244.3,146.6,243.8z"/>
			<path class="st6" d="M336.3,339l-9.6-5.5c-0.9-0.5-2-0.5-2.9,0l-9.7,5.5c-0.5,0.2-0.7,0.6-0.5,1.1c0.1,0.3,0.3,0.5,0.5,0.5
				l0.8,0.4c0.4,0.1,0.6,0.6,0.5,1c-0.1,0.2-0.3,0.4-0.5,0.5l-10.3,5.9c-0.8,0.5-0.8,1.2,0,1.6l6.1,3.5c0.9,0.5,2,0.5,2.9,0l9.6-5.5
				l2-1.1l1.4-0.8l1.4-0.8l8.3-4.8C337.1,340.1,337.1,339.4,336.3,339z"/>
			<path class="st6" d="M100.5,262.9l-9.6-5.6c-0.8-0.5-0.7-1.2,0.2-1.8l9.2-5.3c0.9-0.5,2.1-0.6,3.1-0.1l9.6,5.6
				c0.8,0.5,0.7,1.2-0.2,1.8l-9.2,5.3C102.6,263.3,101.5,263.4,100.5,262.9z"/>
			<path class="st6" d="M114.1,270.8l-9.6-5.6c-0.8-0.5-0.7-1.2,0.2-1.8l9.2-5.3c0.9-0.5,2.1-0.6,3.1-0.1l9.6,5.6
				c0.8,0.5,0.7,1.2-0.2,1.8l-9.2,5.3C116.2,271.2,115.1,271.2,114.1,270.8z"/>
			<path class="st6" d="M127.7,278.6l-9.7-5.6c-0.8-0.5-0.7-1.2,0.2-1.8l9.2-5.3c0.9-0.5,2.1-0.6,3.1-0.1l9.6,5.6
				c0.8,0.5,0.7,1.2-0.2,1.8l-9.2,5.3C129.8,279,128.6,279.1,127.7,278.6z"/>
			<path class="st6" d="M243.4,345.4l-9.6-5.5c-0.8-0.5-0.7-1.2,0.2-1.8l9.2-5.3c0.9-0.5,2.1-0.6,3.1-0.1l9.6,5.6
				c0.8,0.5,0.7,1.2-0.2,1.8l-9.2,5.3C245.5,345.8,244.4,345.9,243.4,345.4z"/>
			<path class="st6" d="M257,353.3l-9.6-5.6c-0.8-0.5-0.7-1.2,0.2-1.8l9.2-5.3c0.9-0.5,2.1-0.6,3.1-0.1l9.6,5.6
				c0.8,0.5,0.7,1.2-0.2,1.8l-9.2,5.3C259.1,353.7,258,353.7,257,353.3z"/>
			<path class="st6" d="M270.5,361.1l-9.6-5.5c-0.8-0.5-0.7-1.2,0.2-1.8l9.2-5.3c0.9-0.5,2.1-0.6,3.1-0.1l9.6,5.5
				c0.8,0.5,0.7,1.2-0.2,1.8l-9.2,5.3C272.7,361.5,271.5,361.6,270.5,361.1z"/>
			<path class="st6" d="M284.1,369l-9.6-5.6c-0.8-0.5-0.7-1.2,0.2-1.8l9.2-5.3c0.9-0.5,2.1-0.6,3.1-0.1l9.6,5.6
				c0.8,0.5,0.7,1.2-0.2,1.8l-9.2,5.3C286.3,369.4,285.1,369.4,284.1,369z"/>
			<path class="st6" d="M144.8,288.5l-13.1-7.6c-0.8-0.5-0.7-1.2,0.2-1.8l9.2-5.3c0.9-0.5,2.1-0.6,3.1-0.1l13.1,7.6
				c0.8,0.5,0.7,1.2-0.2,1.8l-9.2,5.3C146.9,288.9,145.7,288.9,144.8,288.5z"/>
			<path class="st6" d="M229.8,337.6l-13.1-7.6c-0.8-0.5-0.7-1.2,0.2-1.8l9.2-5.3c0.9-0.5,2.1-0.6,3.1-0.1l13.1,7.6
				c0.8,0.5,0.7,1.2-0.2,1.8l-9.2,5.3C231.9,338,230.8,338,229.8,337.6z"/>
			<path class="st6" d="M212.7,327.7l-64-36.9c-0.8-0.5-0.7-1.2,0.2-1.8l9.2-5.3c0.9-0.5,2.1-0.6,3.1-0.1l64,37
				c0.8,0.5,0.7,1.2-0.2,1.8l-9.2,5.3C214.8,328.1,213.7,328.2,212.7,327.7z"/>
			<path class="st6" d="M150.8,261.5l-9.6-5.6c-0.8-0.4-0.7-1.2,0.2-1.8l9.2-5.3c0.9-0.5,2.1-0.6,3.1-0.1l9.6,5.6
				c0.8,0.4,0.7,1.2-0.2,1.8l-9.2,5.3C152.9,261.9,151.8,261.9,150.8,261.5z"/>
			<path class="st6" d="M164.4,269.3l-9.6-5.6c-0.8-0.5-0.7-1.2,0.2-1.8l9.2-5.3c0.9-0.5,2.1-0.6,3.1-0.1l9.6,5.6
				c0.8,0.5,0.7,1.2-0.2,1.8l-9.2,5.3C166.5,269.7,165.4,269.8,164.4,269.3z"/>
			<path class="st6" d="M178,277.2l-9.6-5.5c-0.8-0.5-0.7-1.2,0.2-1.8l9.2-5.3c0.9-0.5,2.1-0.6,3.1-0.1l9.6,5.6
				c0.8,0.5,0.7,1.2-0.2,1.8l-9.2,5.3C180.1,277.6,179,277.6,178,277.2z"/>
			<path class="st6" d="M191.6,285l-9.6-5.5c-0.8-0.5-0.7-1.2,0.2-1.8l9.2-5.3c0.9-0.5,2.1-0.6,3.1-0.1l9.6,5.5
				c0.8,0.5,0.7,1.2-0.2,1.8l-9.2,5.3C193.7,285.4,192.6,285.5,191.6,285z"/>
			<path class="st6" d="M205.2,292.9l-9.6-5.6c-0.8-0.5-0.7-1.2,0.2-1.8l9.2-5.3c0.9-0.5,2.1-0.6,3.1-0.1l9.6,5.5
				c0.8,0.5,0.7,1.2-0.2,1.8l-9.2,5.3C207.3,293.3,206.2,293.3,205.2,292.9z"/>
			<path class="st6" d="M218.8,300.8l-9.6-5.6c-0.8-0.5-0.7-1.2,0.2-1.8l9.2-5.3c0.9-0.5,2.1-0.6,3.1-0.1l9.6,5.6
				c0.8,0.5,0.7,1.2-0.2,1.8l-9.2,5.3C220.9,301.1,219.8,301.2,218.8,300.8z"/>
			<path class="st6" d="M232.4,308.6l-9.6-5.6c-0.8-0.5-0.7-1.2,0.2-1.8l9.2-5.3c0.9-0.5,2.1-0.6,3.1-0.1l9.6,5.6
				c0.8,0.5,0.7,1.2-0.2,1.8l-9.2,5.3C234.5,309,233.4,309.1,232.4,308.6z"/>
			<path class="st6" d="M246,316.5l-9.6-5.6c-0.8-0.5-0.7-1.2,0.2-1.8l9.2-5.3c0.9-0.5,2.1-0.6,3.1-0.1l9.6,5.6
				c0.8,0.5,0.7,1.2-0.2,1.8l-9.2,5.3C248.1,316.9,247,316.9,246,316.5z"/>
			<path class="st6" d="M259.6,324.3l-9.6-5.6c-0.8-0.5-0.7-1.2,0.2-1.8l9.2-5.3c0.9-0.5,2.1-0.6,3.1-0.1l9.6,5.5
				c0.8,0.5,0.7,1.2-0.2,1.8l-9.2,5.3C261.7,324.7,260.6,324.8,259.6,324.3z"/>
			<path class="st6" d="M273.3,332.2l-9.6-5.6c-0.8-0.5-0.7-1.2,0.2-1.8l9.2-5.3c0.9-0.5,2.1-0.6,3.1-0.1l9.6,5.5
				c0.8,0.5,0.7,1.2-0.2,1.8l-9.2,5.3C275.4,332.6,274.2,332.6,273.3,332.2z"/>
			<path class="st6" d="M286.9,340l-9.6-5.6c-0.8-0.5-0.7-1.2,0.2-1.8l9.2-5.3c0.9-0.5,2.1-0.6,3.1-0.1l9.6,5.6
				c0.8,0.5,0.7,1.2-0.2,1.8l-9.2,5.3C289,340.4,287.9,340.4,286.9,340z"/>
			<path class="st6" d="M300.5,347.9l-9.6-5.6c-0.8-0.5-0.7-1.2,0.2-1.8l9.2-5.3c0.9-0.5,2.1-0.6,3.1-0.1l9.7,5.6
				c0.8,0.5,0.7,1.2-0.2,1.8l-9.2,5.3C302.6,348.3,301.5,348.4,300.5,347.9z"/>
			<path class="st6" d="M137.2,253.6l-19.9-11.5c-0.8-0.5-0.7-1.2,0.2-1.8l9.2-5.3c0.9-0.5,2.1-0.6,3.1-0.1l19.9,11.5
				c0.8,0.5,0.7,1.2-0.2,1.8l-9.2,5.3C139.3,254,138.1,254,137.2,253.6z"/>
			<path class="st6" d="M130.8,265.2l-9.6-5.5c-0.8-0.5-0.7-1.2,0.2-1.8l9.2-5.3c0.9-0.5,2.1-0.6,3.1-0.1l9.6,5.5
				c0.8,0.5,0.7,1.2-0.2,1.8l-9.2,5.3C132.9,265.6,131.8,265.6,130.8,265.2z"/>
			<path class="st6" d="M144.4,273l-9.6-5.6c-0.8-0.5-0.7-1.2,0.2-1.8l9.2-5.3c0.9-0.5,2.1-0.6,3.1-0.1l9.6,5.6
				c0.8,0.5,0.7,1.2-0.2,1.8l-9.2,5.3C146.5,273.4,145.4,273.4,144.4,273z"/>
			<path class="st6" d="M158,280.9l-9.6-5.6c-0.8-0.5-0.7-1.2,0.2-1.8l9.2-5.3c0.9-0.5,2.1-0.6,3.1-0.1l9.6,5.6
				c0.8,0.5,0.7,1.2-0.2,1.8l-9.2,5.3C160.1,281.3,159,281.3,158,280.9z"/>
			<path class="st6" d="M171.6,288.8l-9.6-5.5c-0.8-0.5-0.7-1.2,0.2-1.8l9.2-5.3c0.9-0.5,2.1-0.6,3.1-0.1l9.6,5.5
				c0.8,0.5,0.7,1.2-0.2,1.8l-9.2,5.3C173.7,289.2,172.6,289.2,171.6,288.8z"/>
			<path class="st6" d="M185.2,296.6l-9.6-5.6c-0.8-0.5-0.7-1.2,0.2-1.8l9.2-5.3c0.9-0.5,2.1-0.6,3.1-0.1l9.6,5.6
				c0.8,0.5,0.7,1.2-0.2,1.8l-9.2,5.3C187.3,297,186.2,297.1,185.2,296.6z"/>
			<path class="st6" d="M198.8,304.5l-9.6-5.6c-0.8-0.5-0.7-1.2,0.2-1.8l9.2-5.3c0.9-0.5,2.1-0.6,3.1-0.1l9.6,5.6
				c0.8,0.5,0.7,1.2-0.2,1.8l-9.2,5.3C201,304.9,199.8,304.9,198.8,304.5z"/>
			<path class="st6" d="M212.4,312.3l-9.6-5.5c-0.8-0.5-0.7-1.2,0.2-1.8l9.2-5.3c0.9-0.5,2.1-0.6,3.1-0.1l9.6,5.5
				c0.8,0.5,0.7,1.2-0.2,1.8l-9.2,5.3C214.6,312.7,213.4,312.8,212.4,312.3z"/>
			<path class="st6" d="M226.1,320.2l-9.6-5.6c-0.8-0.5-0.7-1.2,0.2-1.8l9.2-5.3c0.9-0.5,2.1-0.6,3.1-0.1l9.6,5.6
				c0.8,0.5,0.7,1.2-0.2,1.8l-9.2,5.3C228.2,320.6,227,320.6,226.1,320.2z"/>
			<path class="st6" d="M239.7,328l-9.7-5.5c-0.8-0.5-0.7-1.2,0.2-1.8l9.2-5.3c0.9-0.5,2.1-0.6,3.1-0.1l9.6,5.6
				c0.8,0.5,0.7,1.2-0.2,1.8l-9.2,5.3C241.8,328.4,240.6,328.4,239.7,328z"/>
			<path class="st6" d="M253.3,335.9l-9.6-5.5c-0.8-0.5-0.7-1.2,0.2-1.8l9.2-5.3c0.9-0.5,2.1-0.6,3.1-0.1l9.6,5.6
				c0.8,0.5,0.7,1.2-0.2,1.8l-9.2,5.3C255.4,336.3,254.3,336.3,253.3,335.9z"/>
			<path class="st6" d="M266.9,343.8l-9.6-5.6c-0.8-0.5-0.7-1.2,0.2-1.8l9.2-5.3c0.9-0.5,2.1-0.6,3.1-0.1l9.6,5.6
				c0.8,0.5,0.7,1.2-0.2,1.8l-9.2,5.3C269,344.1,267.9,344.2,266.9,343.8z"/>
			<path class="st6" d="M297.3,361.3L270.9,346c-0.8-0.5-0.7-1.2,0.2-1.8l9.2-5.3c0.9-0.5,2.1-0.6,3.1-0.1l26.5,15.3
				c0.8,0.5,0.7,1.2-0.2,1.8l-9.2,5.3C299.5,361.7,298.3,361.8,297.3,361.3z"/>
			<path class="st6" d="M117.2,257.3l-13.1-7.6c-0.8-0.4-0.7-1.2,0.2-1.8l9.2-5.3c0.9-0.5,2.1-0.6,3.1-0.1l13.1,7.6
				c0.8,0.4,0.7,1.2-0.2,1.8l-9.2,5.3C119.3,257.7,118.2,257.8,117.2,257.3z"/>
			<path class="st6" d="M350.6,330.6L157.4,219c-0.8-0.4-0.7-1.2,0.2-1.8l4.6-2.6c0.9-0.5,2.1-0.6,3.1-0.1L358.5,326
				c0.8,0.5,0.7,1.2-0.2,1.8l-4.6,2.6C352.8,331,351.6,331,350.6,330.6z"/>
			<path class="st0" d="M230.9,343.2c-0.3,0.6-0.7,1.1-1.3,1.4l-53.2,30.7c-1.8,1-4,1.1-5.9,0.2l-90.9-52.5c-0.4-0.2-0.7-0.6-0.9-1
				c-0.3-0.8,0.1-1.7,1.3-2.4l53.2-30.7c1.8-1,4-1.1,5.9-0.2l90.9,52.5C230.8,341.6,231.2,342.4,230.9,343.2z"/>
			<path class="st7" d="M230.9,343.2c-0.3,0.6-0.7,1.1-1.3,1.4l-53.2,30.7c-1.8,1-4,1.1-5.9,0.2l-90.9-52.5c-0.4-0.2-0.7-0.6-0.9-1
				c0.3-0.6,0.7-1.1,1.3-1.3l53.2-30.7c1.8-1,4-1.1,5.9-0.2l90.9,52.5C230.4,342.5,230.7,342.8,230.9,343.2z"/>
			<path class="st6" d="M365.3,322.1L172.1,210.5c-0.9-0.6-1.4-1.6-1.4-2.7v-2.3c0-1.1,0.6-1.5,1.4-1.1L365.3,316
				c0.9,0.6,1.4,1.6,1.4,2.7v2.3C366.8,322.1,366.1,322.5,365.3,322.1z"/>
			<path class="st8" d="M249.6,103.8l-67-38.7c-0.6-0.5-1-1.2-1-1.9v-4.7c0-0.8,0.5-1.1,1-0.8l67,38.7c0.6,0.5,1,1.2,1,1.9v4.7
				C250.6,103.7,250.1,104.1,249.6,103.8z"/>
			<path class="st8" d="M232.4,104.9l-49.5-28.5c-0.6-0.5-1-1.2-1-2v-2.3c0-0.8,0.4-1.1,1-0.8l49.4,28.5c0.6,0.5,1,1.2,1,2v2.3
				C233.4,104.9,233,105.2,232.4,104.9z"/>
			<path class="st8" d="M232.4,113.7l-49.5-28.6c-0.6-0.5-1-1.2-1-2v-2.3c0-0.8,0.4-1.1,1-0.8l49.4,28.6c0.6,0.4,1,1.2,1,1.9v2.3
				C233.4,113.7,233,114,232.4,113.7z"/>
			<path class="st9" d="M223.1,117.1L182.9,94c-0.6-0.4-1-1.2-1-1.9v-2.4c0-0.8,0.4-1.1,1-0.8l40.1,23.2c0.6,0.5,1,1.2,1,2v2.3
				C224.1,117.1,223.6,117.4,223.1,117.1z"/>
			<path class="st8" d="M249.6,196.3l-67-38.7c-0.6-0.5-1-1.2-1-2V151c0-0.8,0.5-1.1,1-0.8l67,38.7c0.6,0.5,1,1.2,1,2v4.7
				C250.6,196.3,250.1,196.6,249.6,196.3z"/>
			<path class="st8" d="M232.4,197.4l-49.4-28.6c-0.6-0.4-1-1.2-1-1.9v-2.3c0-0.8,0.4-1.1,1-0.8l49.4,28.6c0.6,0.5,1,1.2,1,1.9v2.3
				C233.4,197.4,233,197.7,232.4,197.4z"/>
			<path class="st8" d="M232.4,206.2l-49.4-28.6c-0.6-0.5-1-1.2-1-1.9v-2.3c0-0.8,0.4-1.1,1-0.8l49.4,28.6c0.6,0.5,1,1.2,1,2v2.3
				C233.4,206.2,233,206.5,232.4,206.2z"/>
			<path class="st9" d="M223.1,209.6l-40.1-23.2c-0.6-0.5-1-1.2-1-1.9v-2.3c0-0.8,0.4-1.1,1-0.8l40.1,23.2c0.6,0.5,1,1.2,1,1.9v2.3
				C224.1,209.6,223.6,210,223.1,209.6z"/>
			<path class="st10" d="M267.5,207.8c0,0,7.4,6.2,18-2.3c7.6-6.2,14.4-2.7,18.2-0.5s9.3,3.4,19.7,22.3c2.2,3.7,5.3,6.8,9,9.1
				c5.6,3.2,8.3,1.7,12.7-5s7.3-14,15.4-9.2V289l-93.8-54.1v-27.5L267.5,207.8z"/>
			<path class="st8" d="M247.1,179.4l-64.2-37.1c-0.6-0.5-1-1.2-1-1.9v-37c0-0.8,0.4-1.1,1-0.8l64.2,37.1c0.6,0.5,1,1.2,1,1.9v37
				C248.1,179.4,247.7,179.8,247.1,179.4z"/>
			<polyline class="st11" points="266.8,206.2 266.8,234.9 360.6,289 360.6,222.2 			"/>
			<line class="st11" x1="303.6" y1="205.3" x2="303.6" y2="256.1"/>
			<line class="st11" x1="332.3" y1="237.4" x2="332.3" y2="272.7"/>
			<path class="st12" d="M266.8,207.3c16.6,10.3,19-13,37.1-2.5s15.6,24.1,29,31.8s13.7-22.5,27.7-14.4"/>
			<ellipse transform="matrix(0.866 -0.5 0.5 0.866 -61.9675 179.327)" class="st9" cx="303.6" cy="205.3" rx="1.8" ry="3.1"/>
			<ellipse transform="matrix(0.867 -0.4983 0.4983 0.867 -63.0349 210.0481)" class="st9" cx="362" cy="223.1" rx="1.8" ry="3.1"/>
			
				<ellipse transform="matrix(0.867 -0.4983 0.4983 0.867 -74.0921 197.8699)" class="st9" cx="333.7" cy="237.7" rx="1.8" ry="3.1"/>
			
				<ellipse transform="matrix(0.867 -0.4983 0.4983 0.867 -68.1018 161.1368)" class="st9" cx="267.8" cy="208.2" rx="1.8" ry="3.1"/>
			<path class="st8" d="M269.4,158.1l-3.8-2.2c-0.6-0.5-1-1.2-1-1.9v-18.6c0-0.8,0.5-1.1,1-0.8l3.8,2.2c0.6,0.5,1,1.2,1,1.9v18.6
				C270.4,158,270,158.4,269.4,158.1z"/>
			<path class="st9" d="M278.3,163.2l-3.9-2.2c-0.6-0.5-1-1.2-1-1.9v-37.8c0-0.8,0.5-1.1,1-0.8l3.9,2.2c0.6,0.5,1,1.2,1,2v37.7
				C279.3,163.1,278.8,163.5,278.3,163.2z"/>
			<path class="st8" d="M296,173.4l-3.8-2.2c-0.6-0.5-1-1.2-1-1.9v-34.1c0-0.8,0.5-1.1,1-0.8l3.8,2.2c0.6,0.5,1,1.2,1,1.9v34.1
				C297,173.4,296.5,173.7,296,173.4z"/>
			<path class="st9" d="M304.8,178.5l-3.8-2.2c-0.6-0.5-1-1.2-1-1.9v-28.3c0-0.8,0.5-1.1,1-0.8l3.8,2.2c0.6,0.5,1,1.2,1,1.9v28.3
				C305.9,178.5,305.4,178.8,304.8,178.5z"/>
			<path class="st8" d="M322.5,188.7l-3.8-2.2c-0.6-0.5-1-1.2-1-2v-14c0-0.8,0.5-1.1,1-0.8l3.8,2.2c0.6,0.5,1,1.2,1,1.9v14
				C323.5,188.7,323,189,322.5,188.7z"/>
			<path class="st9" d="M331.3,193.8l-3.9-2.2c-0.6-0.5-1-1.2-1-1.9v-47.5c0-0.8,0.5-1.1,1-0.8l3.9,2.2c0.6,0.5,1,1.2,1,1.9V193
				C332.3,193.8,331.9,194.1,331.3,193.8z"/>
			<path class="st8" d="M352.9,206.3l-3.9-2.3c-0.6-0.5-1-1.2-1-1.9v-14c0-0.8,0.5-1.1,1-0.8l3.9,2.2c0.6,0.5,1,1.2,1,1.9v14
				C353.9,206.2,353.5,206.6,352.9,206.3z"/>
			<path class="st9" d="M361.8,211.4l-3.9-2.2c-0.6-0.5-1-1.2-1-1.9v-18.6c0-0.8,0.5-1.1,1-0.8l3.9,2.2c0.6,0.5,1,1.2,1,1.9v18.6
				C362.8,211.4,362.3,211.7,361.8,211.4z"/>
		</g>
		<polygon class="st5" points="352.3,486.9 253.3,429.8 389.3,351.2 488.2,408.4 		"/>
		<polygon class="st0" points="488.6,404.5 392.9,349.2 260.2,425.9 256.9,424 256.9,427.7 355.9,484.9 491.9,406.4 491.9,402.6 		
			"/>
		<polygon class="st13" points="355.9,481.1 256.9,424 392.9,345.5 491.9,402.6 		"/>
		<polygon class="st8" points="462.6,408.7 383.3,362.9 391.1,358.3 470.5,404.1 		"/>
		<polygon class="st8" points="454.3,413.5 374.9,367.7 378.8,365.4 458.2,411.2 		"/>
		<polygon class="st8" points="447.8,417.3 368.4,371.4 372.3,369.2 451.7,415 		"/>
		<polygon class="st8" points="441.3,421 361.9,375.2 365.9,372.9 445.2,418.7 		"/>
		<polygon class="st8" points="393.7,448.5 314.4,402.6 322.2,398.1 401.6,443.9 		"/>
		<polygon class="st8" points="379.9,450.2 306,407.5 309.9,405.2 383.9,447.9 		"/>
		<polygon class="st8" points="372,453.1 299.5,411.2 303.4,409 375.9,450.8 		"/>
		<polygon class="st8" points="354.3,450.3 293,415 297,412.7 358.2,448.1 		"/>
		<polygon class="st8" points="353.6,405.5 331.5,392.8 353.6,380 375.8,392.8 		"/>
		<polygon class="st8" points="382.3,422 360.1,409.3 382.3,396.5 404.4,409.3 		"/>
		<polygon class="st8" points="410.9,438.6 388.7,425.8 410.9,413 433,425.8 		"/>
		<polygon class="st14" points="43,245 24.3,234.2 43,223.3 61.8,234.2 		"/>
		<polygon class="st14" points="72.8,227.6 54,216.8 72.8,206 91.5,216.8 		"/>
		<polygon class="st9" points="83.9,123.8 65.2,113 83.9,102.2 102.7,113 		"/>
		<polygon class="st15" points="83.9,221.4 65.2,210.5 65.2,113 83.9,123.8 		"/>
		<polygon class="st9" points="83.9,221.4 65.2,210.5 65.2,113 83.9,123.8 		"/>
		<polygon class="st15" points="102.7,210.5 83.9,221.4 83.9,123.8 102.7,113 		"/>
		<polygon class="st9" points="102.7,210.5 83.9,221.4 83.9,123.8 102.7,113 		"/>
		<polygon class="st8" points="55.8,172.6 37,161.8 55.8,150.9 74.5,161.8 		"/>
		<polygon class="st8" points="55.8,237.5 37,226.7 37,161.8 55.8,172.6 		"/>
		<polygon class="st16" points="55.8,237.5 37,226.7 37,161.8 55.8,172.6 		"/>
		<polygon class="st8" points="74.5,226.7 55.8,237.5 55.8,172.6 74.5,161.8 		"/>
		<polygon class="st17" points="74.5,226.7 55.8,237.5 55.8,172.6 74.5,161.8 		"/>
		<polygon class="st14" points="19,259.2 0.2,248.4 19,237.5 37.8,248.4 		"/>
		<polygon class="st9" points="25.8,224.1 7,213.2 25.8,202.4 44.6,213.2 		"/>
		<polygon class="st15" points="25.8,255.1 7,244.3 7,213.2 25.8,224.1 		"/>
		<polygon class="st9" points="25.8,255.1 7,244.3 7,213.2 25.8,224.1 		"/>
		<polygon class="st15" points="44.6,244.3 25.8,255.1 25.8,224.1 44.6,213.2 		"/>
		<polygon class="st9" points="44.6,244.3 25.8,255.1 25.8,224.1 44.6,213.2 		"/>
		<g id="Girl_12">
			<path id="_Контур_" class="st18" d="M221.6,1.3c0.9-1.4,7.4-2.3,9.6,3.3c0.8,2.1,0.7,7.5,1.4,10.9s2.3,5.3,2.9,8
				s-0.4,7.3-7,8.1c-6.6,0.8-11.6-1.5-13.2-3.6s-1.6-6.6,0-9s2.9-4.4,2.8-7.5L221.6,1.3z"/>
			<path id="_Контур_2" class="st18" d="M226,0.4c0,0-5-1.4-7.9,1.2c-2,1.8-2.8,4.7-2.1,7.3c0.4,1.6,1.2,3.7,2.4,3.8
				S226,0.4,226,0.4z"/>
			<path id="_Контур_3" class="st19" d="M227.9,13.8c0,0-0.3,5.5-0.2,5.9s2.1,0.8,2.7,1.3s-3,6.1-4.8,6.9s-7.4-1.3-7.8-4.1
				c-0.4-2.6,1.6-4.6,2.4-5.3c0.5,0,1,0,1.5,0l0.2-2.7C224.3,15,227.9,13.8,227.9,13.8z"/>
			<path id="_Контур_4" class="st19" d="M211.7,43.1c-1.6,2.1-3.4,4-5.5,5.7c-0.7,0.7-1.3,1.4-1.9,2.2c-1,1.1-2.3,2-3.7,2.4
				c-1.2,0.3-1.8,0.2-2,0s-0.1-0.6,0.4-0.8c0.9-0.3,1.7-0.7,2.4-1.3c0,0-1.1,0.5-1.9,0.8c-0.6,0.2-1.3,0.4-2,0.4
				c-0.7,0-1.4-0.8-0.9-1s1-0.3,2.1-0.7c0.6-0.2,1.1-0.5,1.6-0.8c-0.7,0.2-1.5,0.4-2.3,0.5c-0.6,0.1-1.3,0-1.9-0.2
				c-0.3-0.1-0.6-0.7,0.1-0.9c0.9-0.1,1.8-0.3,2.7-0.6c0.8-0.4,1.4-0.8,1.2-0.9s-0.7,0.2-1.5,0.1s-1.6-0.6-1.6-1s0.2-0.2,1-0.3
				c0.9-0.2,1.8-0.4,2.6-0.5c0.9,0,1.8-0.1,2.6-0.3c0.9-0.3,2.9-2.7,4.4-4.9c1.7-2.5,3-5.2,3.9-8c0.9-3,2-8.7,2.8-10.7
				s2.1-2.9,3.4-2.9c1.5,0,2.2,1.9,1.8,3.7C219.2,26.1,215.8,37.7,211.7,43.1z"/>
			<path id="_Контур_5" class="st20" d="M228.6,20.2c1.5,0.2,3.3,1.1,3.5,1.9c0.6,3,0.5,6.2-0.4,9.2
				c-1.3,3.5-2.9,9.9-3.6,11.4c-4,0.6-8-0.2-11.5-2.2c0,0-0.3-6.1-0.3-8.2c-5-4.3-0.7-9.7,3.5-13.8c0.5,0,1,0,1.5,0
				c0,0-3.8,4.4-1.1,7C225.7,23.8,226.8,21.2,228.6,20.2z"/>
			<path id="_Контур_6" class="st19" d="M217.6,7L217.6,7c0.6-3.5,3.1-6.2,6.8-6c3.9,0.2,6.8,3.5,6.6,7.4c0,0,0,0,0,0
				c-0.1,2.2-1.3,4.1-3.1,5.4c-0.1,0.5-0.3,1.1-0.6,1.6c-1.3,1.5-4.7,2.4-5.8,2.5c-1,0-1.8-0.9-2.7-2.4
				C216.8,12.2,217.3,8.8,217.6,7z"/>
			<path class="st18" d="M225.5,1.1c2.6,0.5,4.6,1.2,5.3,3.7c0.5,1.7,1.1,5,0.5,6.4l-0.4,1l-3.1,1.6c0,0-1.4-1.2-1-4.7
				c0-0.5-0.2-0.9-0.4-1.3c-0.2-0.3-0.3-0.7-0.4-1.1c-0.4-0.9-1.1-1.7-2-2.2c-2-0.9-4.3-0.8-6.1,0.3C219.2,1.9,222.4,0.4,225.5,1.1z
				"/>
			<path class="st18" d="M211.4,85.5c-1.3,1-3.3,0.3-3.4,0.4c-1.5,1.3-3.1,2.5-4.7,3.6c-0.8,0.6-2.1,1.5-1.8,2.7
				c0.4,2.2,3.9,1.5,5.2,0.8s2.4-1.8,3.6-2.5c0.9-0.6,1.8-0.8,1.9-2C212.3,87.9,211.6,85.5,211.4,85.5z"/>
			<path class="st21" d="M212.2,88.2c-0.2,1.1-1,1.4-1.9,1.9c-1.3,0.8-2.4,1.9-3.7,2.6s-4.2,1.2-5.1-0.3c0.5,2.1,3.9,1.4,5.2,0.8
				s2.4-1.8,3.6-2.5c0.9-0.6,1.8-0.8,1.9-2C212.2,88.4,212.2,88.3,212.2,88.2z"/>
			<path class="st18" d="M205.1,82c-1.2,1-3,0.4-3.1,0.5c-1.4,1.2-2.8,2.3-4.3,3.3c-0.7,0.6-1.9,1.4-1.7,2.5c0.4,2,3.6,1.4,4.8,0.8
				s2.2-1.6,3.3-2.3c0.8-0.5,1.6-0.8,1.7-1.8C205.9,83.9,205.6,82.9,205.1,82z"/>
			<path class="st21" d="M205.9,84.5c-0.2,1-0.9,1.2-1.8,1.8c-1.1,0.7-2.1,1.7-3.4,2.4s-3.9,1.1-4.7-0.3c0.4,1.9,3.6,1.3,4.8,0.7
				s2.2-1.6,3.3-2.3c0.8-0.5,1.6-0.8,1.7-1.8C205.9,84.8,205.9,84.7,205.9,84.5z"/>
			<path class="st19" d="M223,44.1c-3.5,0.5-7.1,0-10.3-1.5c0.1,1.1,0.1,2.1,0.1,2.1c-4.2,3-12.6,7.9-13.1,11.4
				c0.6,10.9,2.2,26.4,2.7,26.6c1.3,0.6,2.2,0.5,2.9-0.1c0,0,2.6-9.2,1.9-22.7c0,0,14.6-6.5,15.6-10c0.4-1.4,0.6-2.9,0.4-4.4
				C223.1,45,223.1,44.5,223,44.1z"/>
			<path class="st19" d="M227.9,42.7c-2.8,1.2-5.9,1.7-8.9,1.2c0,1.5,0.2,4.2,0.2,4.2C215,51,206.6,56,206.1,59.4
				c0.5,10.9,1.6,26.6,2,26.8c1.1,0.5,2.5,0.3,3.5-0.4c0,0,2.6-9.1,1.9-22.6c0-0.2,12.6-6.4,14.1-8.1s1.9-4.1,1.9-6.4
				C229.3,46.7,228.8,44.6,227.9,42.7z"/>
			<path class="st22" d="M230.9,45c0,0,4.6,8.2-3.1,12.5c-8.2,4.5-13.1,5.5-13.1,5.5l-1.2,0.3c0.4,2.8,0.4,5.7,0,8.6
				c0,0-5.8,2-13.3-4.5l-2.5-7.9l-0.3-2.1c-0.3-1.5,0.2-3,1.2-4c1.8-1.6,7.4-5.8,10.9-8.1s6.3-4.6,6.3-4.6l0.6-0.6
				c0,0,4.2,3.3,11.8,2.2C229.4,42.9,230.3,43.9,230.9,45z"/>
			<path id="_Контур_7" class="st19" d="M226.3,57.2c0.7-0.6,1.5-1.2,2.2-1.8c0.8-0.4,1.6-1,2.3-1.6c0.7-0.7,1.8-3.7,2.3-6.6
				c0.5-3.3,0.5-6.6-0.2-9.8c-1-3.9-2.3-7.7-3.9-11.3c-1-2.2-0.4-3.5,0.5-4.5c1.1-1.1,2.3-1.1,3.6,1.9c1.9,4.3,3.2,8.7,4.1,13.3
				c0.5,3.3,0.5,6.7-0.1,10c-0.5,2.9-1.4,5.7-2.7,8.4c-0.3,0.8-0.4,1.5-0.9,3c-0.4,1.6-1.3,3-2.4,4.2c-1,0.9-1.5,1.1-1.8,1
				s-0.3-0.5,0.1-1c0.7-0.7,1.3-1.5,1.7-2.5c0,0-0.9,1.1-1.4,1.7c-0.5,0.6-1.1,1-1.7,1.4c-0.6,0.4-1.6-0.1-1.2-0.6s0.9-0.8,1.7-1.7
				c0.4-0.5,0.8-1,1.1-1.6c-0.6,0.6-1.2,1.1-1.9,1.6c-0.5,0.4-1.1,0.7-1.8,0.8c-0.3,0-0.8-0.4-0.2-1c0.8-0.6,1.6-1.2,2.2-2
				c0.6-0.8,0.9-1.4,0.7-1.4s-0.5,0.5-1.3,0.9s-1.7,0.2-1.9-0.2S225.6,57.7,226.3,57.2z"/>
			<path class="st23" d="M235.2,27.7c0,0-2.8,2.5-5.9,2l-1.3-5.2c0,0-0.8-2.8,1.5-3.8S234.2,22.3,235.2,27.7z"/>
			<path class="st23" d="M219.7,18.5c0,0-3.1-0.9-6.3,5.8l1.2,0.7C216.2,22.7,217.9,20.5,219.7,18.5z"/>
			<g id="_Группа_">
				<g id="_Группа_2">
					<path id="_Контур_8" class="st20" d="M198.7,47.6l10.9-6.3c0.2-0.1,0.4-0.1,0.6,0l19,11L218,58.8L198.7,47.6z"/>
					<path class="st24" d="M218.3,56.3l0.8,0.5c0.1,0,0.1,0.1,0,0.2l-0.8,0.5c-0.1,0-0.2,0-0.3,0l-0.8-0.5c-0.1,0-0.1-0.1,0-0.2
						l0.8-0.5C218.2,56.3,218.3,56.3,218.3,56.3z"/>
					<path class="st24" d="M217.2,55.7l0.8,0.5c0.1,0,0.1,0.1,0,0.2l-0.8,0.5c-0.1,0-0.2,0-0.3,0l-0.8-0.5c-0.1,0-0.1-0.1,0-0.2
						l0.8-0.5C217,55.6,217.1,55.6,217.2,55.7z"/>
					<path class="st24" d="M216,55l0.8,0.5c0.1,0,0.1,0.1,0,0.2l-0.8,0.5c-0.1,0-0.2,0-0.3,0l-0.8-0.5c-0.1,0-0.1-0.1,0-0.2l0.8-0.5
						C215.8,55,215.9,55,216,55z"/>
					<path class="st24" d="M214.8,54.3l0.8,0.5c0.1,0,0,0.1,0,0.2l-0.8,0.5c-0.1,0-0.2,0-0.3,0l-0.8-0.5c-0.1,0-0.1-0.1,0-0.2
						l0.8-0.5C214.6,54.2,214.7,54.2,214.8,54.3z"/>
					<path class="st24" d="M213.6,53.6l0.8,0.5c0.1,0,0.1,0.1,0,0.2l-0.8,0.5c-0.1,0-0.2,0-0.3,0l-0.8-0.5c-0.1,0-0.1-0.1,0-0.2
						l0.8-0.5C213.5,53.6,213.6,53.6,213.6,53.6z"/>
					<path class="st24" d="M212.5,52.9l0.8,0.5c0.1,0,0.1,0.1,0,0.2l-0.8,0.5c-0.1,0-0.2,0-0.3,0l-0.8-0.5c-0.1,0-0.1-0.1,0-0.2
						l0.8-0.5C212.3,52.9,212.4,52.9,212.5,52.9z"/>
					<path class="st24" d="M211.3,52.2l0.8,0.5c0.1,0,0.1,0.1,0,0.2l-0.8,0.5c-0.1,0-0.2,0-0.3,0l-0.8-0.5c-0.1,0-0.1-0.1,0-0.2
						l0.8-0.5C211.1,52.2,211.2,52.2,211.3,52.2z"/>
					<path class="st24" d="M210.1,51.6l0.8,0.5c0.1,0,0.1,0.1,0,0.2l-0.8,0.5c-0.1,0-0.2,0-0.3,0l-0.9-0.5c-0.1,0-0.1-0.1,0-0.2
						l0.8-0.5C209.9,51.5,210,51.5,210.1,51.6z"/>
					<path class="st24" d="M208.9,50.9l0.8,0.5c0.1,0,0.1,0.1,0,0.2L209,52c-0.1,0-0.2,0-0.3,0l-0.8-0.5c-0.1,0-0.1-0.1,0-0.2
						l0.8-0.5C208.8,50.9,208.9,50.9,208.9,50.9z"/>
					<path class="st24" d="M207.8,50.2l0.8,0.5c0.1,0,0.1,0.1,0,0.2l-0.8,0.5c-0.1,0-0.2,0-0.3,0l-0.8-0.5c-0.1,0-0.1-0.1,0-0.2
						l0.8-0.5C207.6,50.2,207.7,50.2,207.8,50.2z"/>
					<path class="st24" d="M206.6,49.5l0.8,0.5c0.1,0,0.1,0.1,0,0.2l-0.8,0.5c-0.1,0-0.2,0-0.3,0l-0.8-0.5c-0.1,0-0.1-0.1,0-0.2
						l0.8-0.5C206.4,49.5,206.5,49.5,206.6,49.5z"/>
					<path class="st24" d="M205.4,48.9l0.8,0.5c0.1,0,0.1,0.1,0,0.2l-0.8,0.5c-0.1,0-0.2,0-0.3,0l-0.8-0.5c-0.1,0-0.1-0.1,0-0.2
						l0.8-0.5C205.2,48.8,205.3,48.8,205.4,48.9z"/>
					<path class="st24" d="M204.2,48.2l0.8,0.5c0.1,0,0.1,0.1,0,0.2l-0.8,0.5c-0.1,0-0.2,0-0.3,0l-0.8-0.5c-0.1,0-0.1-0.1,0-0.2
						l0.8-0.5C204.1,48.1,204.2,48.1,204.2,48.2z"/>
					<path class="st24" d="M202.5,47.2l1.4,0.8c0.1,0,0.1,0.1,0,0.2l-0.8,0.5c-0.1,0-0.2,0-0.3,0l-1.4-0.8c-0.1,0-0.1-0.1,0-0.2
						l0.8-0.5C202.3,47.1,202.4,47.1,202.5,47.2z"/>
					<path class="st24" d="M217.7,54.7l0.8,0.5c0.1,0,0.1,0.1,0,0.2l-0.8,0.5c-0.1,0-0.2,0-0.3,0l-0.8-0.5c-0.1,0-0.1-0.1,0-0.2
						l0.8-0.5C217.6,54.6,217.7,54.6,217.7,54.7z"/>
					<path class="st24" d="M216.6,54l0.8,0.5c0.1,0,0.1,0.1,0,0.2l-0.8,0.5c-0.1,0-0.2,0-0.3,0l-0.8-0.5c-0.1,0-0.1-0.1,0-0.2
						l0.8-0.5C216.4,54,216.5,54,216.6,54z"/>
					<path class="st24" d="M215.4,53.3l0.8,0.5c0.1,0,0.1,0.1,0,0.2l-0.8,0.5c-0.1,0-0.2,0-0.3,0l-0.8-0.5c-0.1,0-0.1-0.1,0-0.2
						l0.8-0.5C215.2,53.3,215.3,53.3,215.4,53.3z"/>
					<path class="st24" d="M214.2,52.6l0.8,0.5c0.1,0,0.1,0.1,0,0.2l-0.8,0.5c-0.1,0-0.2,0-0.3,0l-0.8-0.5c-0.1,0-0.1-0.1,0-0.2
						l0.8-0.5C214,52.6,214.1,52.6,214.2,52.6z"/>
					<path class="st24" d="M213,52l0.8,0.5c0.1,0,0.1,0.1,0,0.2l-0.8,0.5c-0.1,0-0.2,0-0.3,0l-0.8-0.5c-0.1,0-0.1-0.1,0-0.2l0.8-0.5
						C212.8,52,212.9,52,213,52z"/>
					<path class="st24" d="M211.9,51.3l0.8,0.5c0.1,0,0.1,0.1,0,0.2l-0.8,0.5c-0.1,0-0.2,0-0.3,0l-0.8-0.5c-0.1,0-0.1-0.1,0-0.2
						l0.8-0.5C211.7,51.2,211.8,51.2,211.9,51.3z"/>
					<path class="st24" d="M210.7,50.6l0.8,0.5c0.1,0,0.1,0.1,0,0.2l-0.8,0.5c-0.1,0-0.2,0-0.3,0l-0.8-0.5c-0.1,0-0.1-0.1,0-0.2
						l0.8-0.5C210.5,50.5,210.6,50.5,210.7,50.6z"/>
					<path class="st24" d="M209.5,49.9l0.8,0.5c0.1,0,0.1,0.1,0,0.2l-0.8,0.5c-0.1,0-0.2,0-0.3,0l-0.8-0.5c-0.1,0-0.1-0.1,0-0.2
						l0.8-0.5C209.3,49.9,209.4,49.9,209.5,49.9z"/>
					<path class="st24" d="M208.3,49.2l0.8,0.5c0.1,0,0.1,0.1,0,0.2l-0.8,0.5c-0.1,0-0.2,0-0.3,0l-0.8-0.5c-0.1,0-0.1-0.1,0-0.2
						l0.8-0.5C208.1,49.2,208.2,49.2,208.3,49.2z"/>
					<path class="st24" d="M207.1,48.5L208,49c0.1,0,0.1,0.1,0,0.2l-0.8,0.5c-0.1,0-0.2,0-0.3,0l-0.8-0.5c-0.1,0-0.1-0.1,0-0.2
						l0.8-0.5C207,48.5,207.1,48.5,207.1,48.5z"/>
					<path class="st24" d="M206,47.9l0.8,0.5c0.1,0,0.1,0.1,0,0.2L206,49c-0.1,0-0.2,0-0.3,0l-0.8-0.5c-0.1,0-0.1-0.1,0-0.2l0.8-0.5
						C205.8,47.8,205.9,47.8,206,47.9z"/>
					<path class="st24" d="M204.8,47.2l0.8,0.5c0.1,0,0.1,0.1,0,0.2l-0.8,0.5c-0.1,0-0.2,0-0.3,0l-0.8-0.5c-0.1,0-0.1-0.1,0-0.2
						l0.8-0.5C204.6,47.1,204.7,47.1,204.8,47.2z"/>
					<path class="st24" d="M218.9,55.3l1.4,0.8c0.1,0,0.1,0.1,0,0.2l-0.8,0.5c-0.1,0-0.2,0-0.3,0l-1.4-0.8c-0.1,0-0.1-0.1,0-0.2
						l0.8-0.5C218.7,55.3,218.8,55.3,218.9,55.3z"/>
					<path class="st24" d="M202.6,47.1l0.8,0.5c0.1,0,0.2,0,0.2,0l0.8-0.5c0,0,0.1-0.1,0-0.1c0,0,0,0,0,0h-0.1c0,0-0.1-0.1,0-0.1
						c0,0,0,0,0,0l0.9-0.5c0,0,0.1-0.1,0-0.1c0,0,0,0,0,0l-0.5-0.3c-0.1,0-0.2,0-0.2,0l-0.8,0.5l-0.2,0.1l-0.1,0.1l-0.1,0.1
						l-0.7,0.4C202.5,47,202.5,47.1,202.6,47.1z"/>
					<path class="st24" d="M222.9,53.7l0.8,0.5c0.1,0,0.1,0.1,0,0.2l-0.8,0.5c-0.1,0-0.2,0-0.3,0l-0.8-0.5c-0.1,0-0.1-0.1,0-0.2
						l0.8-0.5C222.7,53.7,222.8,53.7,222.9,53.7z"/>
					<path class="st24" d="M221.7,53l0.8,0.5c0.1,0,0.1,0.1,0,0.2l-0.8,0.5c-0.1,0-0.2,0-0.3,0l-0.8-0.5c-0.1,0-0.1-0.1,0-0.2
						l0.8-0.5C221.5,53,221.6,53,221.7,53z"/>
					<path class="st24" d="M220.6,52.3l0.8,0.5c0.1,0,0.1,0.1,0,0.2l-0.8,0.5c-0.1,0-0.2,0-0.3,0l-0.8-0.5c-0.1,0-0.1-0.1,0-0.2
						l0.8-0.5C220.4,52.3,220.5,52.3,220.6,52.3z"/>
					<path class="st24" d="M210.6,46.6l0.8,0.5c0.1,0,0.1,0.1,0,0.2l-0.8,0.5c-0.1,0-0.2,0-0.3,0l-0.8-0.5c-0.1,0-0.1-0.1,0-0.2
						l0.8-0.5C210.4,46.5,210.5,46.5,210.6,46.6z"/>
					<path class="st24" d="M209.4,45.9l0.8,0.5c0.1,0,0.1,0.1,0,0.2l-0.8,0.5c-0.1,0-0.2,0-0.3,0l-0.8-0.5c-0.1,0-0.1-0.1,0-0.2
						l0.8-0.5C209.2,45.9,209.3,45.9,209.4,45.9z"/>
					<path class="st24" d="M208.2,45.2l0.8,0.5c0.1,0,0.1,0.1,0,0.2l-0.8,0.5c-0.1,0-0.2,0-0.3,0l-0.8-0.5c-0.1,0-0.1-0.1,0-0.2
						l0.8-0.5C208,45.2,208.1,45.2,208.2,45.2z"/>
					<path class="st24" d="M207.1,44.5l0.8,0.5c0.1,0,0.1,0.1,0,0.2l-0.8,0.5c-0.1,0-0.2,0-0.3,0l-0.8-0.5c-0.1,0-0.1-0.1,0-0.2
						l0.8-0.5C206.9,44.5,207,44.5,207.1,44.5z"/>
					<path class="st24" d="M219.1,51.5l1.1,0.7c0.1,0,0.1,0.1,0,0.2l-0.8,0.5c-0.1,0-0.2,0-0.3,0l-1.2-0.6c-0.1,0-0.1-0.1,0-0.2
						l0.8-0.5C218.9,51.4,219,51.4,219.1,51.5z"/>
					<path class="st24" d="M211.7,47.2l1.1,0.7c0.1,0,0.1,0.1,0,0.2l-0.8,0.5c-0.1,0-0.2,0-0.3,0l-1.1-0.7c-0.1,0-0.1-0.1,0-0.2
						l0.8-0.5C211.6,47.2,211.7,47.2,211.7,47.2z"/>
					<path class="st24" d="M213.2,48.1l5.5,3.2c0.1,0,0.1,0.1,0,0.2l-0.8,0.5c-0.1,0-0.2,0-0.3,0l-5.5-3.2c-0.1,0-0.1-0.1,0-0.2
						l0.8-0.5C213,48.1,213.1,48.1,213.2,48.1z"/>
					<path class="st24" d="M218.6,53.8l0.8,0.5c0.1,0,0.1,0.1,0,0.2l-0.8,0.5c-0.1,0-0.2,0-0.3,0l-0.8-0.5c-0.1,0-0.1-0.1,0-0.2
						l0.8-0.5C218.4,53.8,218.5,53.8,218.6,53.8z"/>
					<path class="st24" d="M217.4,53.1l0.8,0.5c0.1,0,0.1,0.1,0,0.2l-0.8,0.5c-0.1,0-0.2,0-0.3,0l-0.8-0.5c-0.1,0-0.1-0.1,0-0.2
						l0.8-0.5C217.2,53.1,217.3,53.1,217.4,53.1z"/>
					<path class="st24" d="M216.2,52.5l0.8,0.5c0.1,0,0.1,0.1,0,0.2l-0.8,0.5c-0.1,0-0.2,0-0.3,0l-0.8-0.5c-0.1,0-0.1-0.1,0-0.2
						l0.8-0.5C216,52.4,216.1,52.4,216.2,52.5z"/>
					<path class="st24" d="M215,51.8l0.8,0.5c0.1,0,0.1,0.1,0,0.2l-0.8,0.5c-0.1,0-0.2,0-0.3,0l-0.8-0.5c-0.1,0-0.1-0.1,0-0.2
						l0.8-0.5C214.8,51.7,214.9,51.7,215,51.8z"/>
					<path class="st24" d="M213.9,51.1l0.8,0.5c0.1,0,0.1,0.1,0,0.2l-0.8,0.5c-0.1,0-0.2,0-0.3,0l-0.8-0.5c-0.1,0-0.1-0.1,0-0.2
						l0.8-0.5C213.7,51.1,213.8,51.1,213.9,51.1z"/>
					<path class="st24" d="M212.7,50.4l0.8,0.5c0.1,0,0.1,0.1,0,0.2l-0.8,0.5c-0.1,0-0.2,0-0.3,0l-0.8-0.5c-0.1,0-0.1-0.1,0-0.2
						l0.8-0.5C212.5,50.4,212.6,50.4,212.7,50.4z"/>
					<path class="st24" d="M211.5,49.8l0.8,0.5c0.1,0,0.1,0.1,0,0.2l-0.8,0.5c-0.1,0-0.2,0-0.3,0l-0.8-0.5c-0.1,0-0.1-0.1,0-0.2
						l0.8-0.5C211.3,49.7,211.4,49.7,211.5,49.8z"/>
					<path class="st24" d="M210.3,49.1l0.8,0.5c0.1,0,0.1,0.1,0,0.2l-0.8,0.5c-0.1,0-0.2,0-0.3,0l-0.8-0.5c-0.1,0-0.1-0.1,0-0.2
						l0.8-0.5C210.2,49,210.3,49,210.3,49.1z"/>
					<path class="st24" d="M209.2,48.4l0.8,0.5c0.1,0,0.1,0.1,0,0.2l-0.8,0.5c-0.1,0-0.2,0-0.3,0l-0.8-0.5c-0.1,0-0.1-0.1,0-0.2
						l0.8-0.5C209,48.4,209.1,48.4,209.2,48.4z"/>
					<path class="st24" d="M208,47.7l0.8,0.5c0.1,0,0.1,0.1,0,0.2l-0.8,0.5c-0.1,0-0.2,0-0.3,0l-0.8-0.5c-0.1,0-0.1-0.1,0-0.2
						l0.8-0.5C207.8,47.7,207.9,47.7,208,47.7z"/>
					<path class="st24" d="M206.8,47l0.8,0.5c0.1,0,0.1,0.1,0,0.2l-0.8,0.5c-0.1,0-0.2,0-0.3,0l-0.8-0.5c-0.1,0-0.1-0.1,0-0.2
						l0.8-0.5C206.6,47,206.7,47,206.8,47z"/>
					<path class="st24" d="M205.6,46.4l0.8,0.5c0.1,0,0.1,0.1,0,0.2l-0.8,0.5c-0.1,0-0.2,0-0.3,0l-0.8-0.5c-0.1,0-0.1-0.1,0-0.2
						l0.8-0.5C205.5,46.3,205.6,46.3,205.6,46.4z"/>
					<path class="st24" d="M219.7,54.5l1.7,1c0.1,0,0.1,0.1,0,0.2l-0.8,0.5c-0.1,0-0.2,0-0.3,0l-1.7-1c-0.1,0-0.1-0.1,0-0.2l0.8-0.5
						C219.6,54.5,219.7,54.5,219.7,54.5z"/>
					<path class="st24" d="M220.3,53.5l0.8,0.5c0.1,0,0.1,0.1,0,0.2l-0.8,0.5c-0.1,0-0.2,0-0.3,0l-0.8-0.5c-0.1,0-0.1-0.1,0-0.2
						l0.8-0.5C220.1,53.5,220.2,53.5,220.3,53.5z"/>
					<path class="st24" d="M219.1,52.8l0.8,0.5c0.1,0,0.1,0.1,0,0.2l-0.8,0.5c-0.1,0-0.2,0-0.3,0l-0.8-0.5c-0.1,0-0.1-0.1,0-0.2
						l0.8-0.5C218.9,52.8,219,52.8,219.1,52.8z"/>
					<path class="st24" d="M217.9,52.1l0.8,0.5c0.1,0,0.1,0.1,0,0.2l-0.8,0.5c-0.1,0-0.2,0-0.3,0l-0.8-0.5c-0.1,0-0.1-0.1,0-0.2
						l0.8-0.5C217.8,52.1,217.9,52.1,217.9,52.1z"/>
					<path class="st24" d="M216.8,51.5l0.8,0.5c0.1,0,0.1,0.1,0,0.2l-0.8,0.5c-0.1,0-0.2,0-0.3,0l-0.8-0.5c-0.1,0-0.1-0.1,0-0.2
						l0.8-0.5C216.6,51.4,216.7,51.4,216.8,51.5z"/>
					<path class="st24" d="M215.6,50.8l0.8,0.5c0.1,0,0.1,0.1,0,0.2l-0.8,0.5c-0.1,0-0.2,0-0.3,0l-0.8-0.5c-0.1,0-0.1-0.1,0-0.2
						l0.8-0.5C215.4,50.7,215.5,50.7,215.6,50.8z"/>
					<path class="st24" d="M214.4,50.1l0.8,0.5c0.1,0,0.1,0.1,0,0.2l-0.8,0.5c-0.1,0-0.2,0-0.3,0l-0.8-0.5c-0.1,0-0.1-0.1,0-0.2
						l0.8-0.5C214.2,50.1,214.3,50.1,214.4,50.1z"/>
					<path class="st24" d="M213.2,49.4l0.8,0.5c0.1,0,0.1,0.1,0,0.2l-0.8,0.5c-0.1,0-0.2,0-0.3,0l-0.8-0.5c-0.1,0-0.1-0.1,0-0.2
						l0.8-0.5C213.1,49.4,213.1,49.4,213.2,49.4z"/>
					<path class="st24" d="M212.1,48.8l0.8,0.5c0.1,0,0.1,0.1,0,0.2l-0.8,0.5c-0.1,0-0.2,0-0.3,0l-0.8-0.5c-0.1,0-0.1-0.1,0-0.2
						l0.8-0.5C211.9,48.7,212,48.7,212.1,48.8z"/>
					<path class="st24" d="M210.9,48.1l0.8,0.5c0.1,0,0.1,0.1,0,0.2l-0.8,0.5c-0.1,0-0.2,0-0.3,0l-0.8-0.5c-0.1,0-0.1-0.1,0-0.2
						l0.8-0.5C210.7,48,210.8,48,210.9,48.1z"/>
					<path class="st24" d="M209.7,47.4l0.8,0.5c0.1,0,0.1,0.1,0,0.2l-0.8,0.5c-0.1,0-0.2,0-0.3,0l-0.8-0.5c-0.1,0-0.1-0.1,0-0.2
						l0.8-0.5C209.5,47.4,209.6,47.4,209.7,47.4z"/>
					<path class="st24" d="M208.5,46.7l0.8,0.5c0.1,0,0.1,0.1,0,0.2l-0.8,0.5c-0.1,0-0.2,0-0.3,0l-0.8-0.5c-0.1,0-0.1-0.1,0-0.2
						l0.8-0.5C208.4,46.7,208.5,46.7,208.5,46.7z"/>
					<path class="st24" d="M205.9,45.2l2.3,1.3c0.1,0,0.1,0.1,0,0.2l-0.8,0.5c-0.1,0-0.2,0-0.3,0l-2.3-1.3c-0.1,0-0.1-0.1,0-0.2
						l0.8-0.5C205.7,45.2,205.8,45.2,205.9,45.2z"/>
					<path class="st24" d="M221.4,54.2l1.1,0.7c0.1,0,0,0.1,0,0.2l-0.8,0.5c-0.1,0-0.2,0-0.3,0l-1.1-0.7c-0.1,0-0.1-0.1,0-0.2
						l0.8-0.5C221.3,54.1,221.4,54.1,221.4,54.2z"/>
					<path class="st24" d="M201.3,47.9l16.7,9.6c0.1,0,0.1,0.1,0,0.2l-0.4,0.2c-0.1,0-0.2,0-0.3,0l-16.7-9.6c-0.1,0,0-0.1,0-0.2
						l0.4-0.2C201.1,47.8,201.2,47.8,201.3,47.9z"/>
					<polygon id="_Контур_9" class="st25" points="221,48.5 220.9,48.5 218.1,50.2 213,47.3 212.9,47.2 215.8,45.5 					"/>
					<polygon id="_Контур_10" class="st26" points="220.9,48.5 218.1,50.2 213,47.3 215.8,45.6 					"/>
					<path id="_Контур_11" class="st26" d="M229.2,52.4v0.2c0,0.4-0.2,0.7-0.5,0.9l-10.1,5.8c-0.3,0.2-0.7,0.2-1,0l-18.3-10.6
						c-0.3-0.2-0.5-0.5-0.5-0.9v-0.2l19.4,11.2L229.2,52.4z"/>
					<path id="_Контур_12" class="st26" d="M218.1,58.8v0.7c-0.2,0-0.4,0-0.5-0.1l-18.3-10.6c-0.3-0.2-0.5-0.5-0.5-0.9v-0.2
						L218.1,58.8z"/>
					<path id="_Контур_13" class="st20" d="M217.8,59c-0.4,0.1-0.7,0.1-1.1-0.1l-18.2-10.6c-0.3-0.2-0.5-0.5-0.6-0.9l-2-11.9
						c0-0.1,0-0.1,0-0.2c0-0.3,0.1-0.6,0.4-0.9l18.9,10.9c0.2,0.1,0.4,0.4,0.4,0.6L217.8,59z"/>
					<path id="_Контур_14" class="st26" d="M218.1,58.8l-0.1,0.1l-0.2,0.1l-2.2-12.9c0-0.3-0.2-0.5-0.4-0.6l-18.9-10.9
						c0.1-0.1,0.2-0.1,0.2-0.2l19,11c0.2,0.1,0.4,0.4,0.4,0.7L218.1,58.8z"/>
				</g>
			</g>
		</g>
		<g id="Men_11">
			<path id="_Контур_15" class="st19" d="M57.5,145.1c1.4,2.6,3.2,4.9,5.2,7.1c0.6,0.6,4.9-1,4-1.5s-3.7-4.4-5.1-7
				c-1.2-3.1-2.2-6.4-3-9.6c-0.9-3.2-1.7-7.9-2.3-10.2c-0.3-1.7-1.6-3-3.3-3.4c-1.5-0.4-2.6,0.1-2.3,1.9
				C51.2,125.8,53.7,138.7,57.5,145.1z"/>
			<path class="st27" d="M55.1,195.4c1.3,1.1,3.3,0.1,3.4,0.2c1.6,1.5,3.2,2.8,4.9,4.1c0.8,0.6,2.1,1.5,1.9,2.8
				c-0.4,2.3-4,1.6-5.4,0.9s-2.5-1.8-3.8-2.6c-0.9-0.6-1.8-0.9-2-2C54.1,198,54.8,195.3,55.1,195.4z"/>
			<path class="st28" d="M54.2,198.2c0.2,1.1,1.1,1.4,2,2c1.3,0.8,2.5,2,3.8,2.7s4.4,1.3,5.3-0.3c-0.5,2.2-4,1.5-5.4,0.8
				s-2.5-1.8-3.8-2.6c-0.9-0.6-1.8-0.9-2-2C54.2,198.5,54.2,198.4,54.2,198.2z"/>
			<path class="st27" d="M68.6,187.5c1.3,1.1,3.7-0.1,3.8,0c1.4,1.4,2.9,2.8,4.4,4c0.8,0.7,2.1,1.5,1.9,2.8c-0.4,2.3-4,1.6-5.4,0.9
				s-2.5-1.8-3.8-2.6c-0.9-0.6-1.8-0.9-2-2C67.6,189.5,68,188.4,68.6,187.5z"/>
			<path class="st28" d="M67.7,190.2c0.2,1.1,1.1,1.4,2,2c1.3,0.8,2.5,2,3.8,2.7s4.4,1.3,5.3-0.3c-0.5,2.2-4,1.5-5.4,0.8
				s-2.5-1.8-3.8-2.6c-0.9-0.6-1.8-0.9-2-2C67.6,190.5,67.6,190.4,67.7,190.2z"/>
			<path id="_Контур_16" class="st9" d="M37.2,152.4c-1.5,9.3,2.6,12.7,8,14.7c3.8,1.4,9.3,3.6,9.3,3.6s-0.1,2-0.1,6.6
				c0,4,0.5,18.7,0.5,18.7c1.3,0.7,2.8,0.7,4.1,0c0,0,2.2-11.2,2.6-16.3c0.6-6.9,1.7-11.4,1.3-12.9c-0.3-1.3-7.8-5-10.2-7l15.8,5.3
				c-0.3,1.7-0.5,3.4-0.5,5.2c0.1,5.4,0.4,17.3,0.4,17.3s2.2,1.6,4,0c0,0,4-23.4,3.5-26.5c-0.5-2.9-14.3-8.9-16.8-11
				c-0.9-0.7-2-1-3.1-0.8L37.2,152.4z"/>
			<g id="_Группа_3">
				<g id="_Группа_4">
					<path id="_Контур_17" class="st20" d="M74.9,156.3l-10.6-6.1c-0.2-0.1-0.4-0.1-0.6,0l-18.6,10.7l10.9,6.3L74.9,156.3z"/>
					<path class="st24" d="M55.6,165l-0.8,0.5c-0.1,0-0.1,0.1,0,0.1l0.8,0.4c0.1,0,0.2,0,0.3,0l0.8-0.5c0.1,0,0.1-0.1,0-0.1
						l-0.8-0.4C55.7,165,55.6,165,55.6,165z"/>
					<path class="st24" d="M56.7,164.3l-0.8,0.5c-0.1,0,0,0.1,0,0.1l0.8,0.4c0.1,0,0.2,0,0.3,0l0.8-0.5c0.1,0,0.1-0.1,0-0.1
						l-0.8-0.4C56.9,164.3,56.8,164.3,56.7,164.3z"/>
					<path class="st24" d="M57.9,163.6l-0.8,0.5c-0.1,0-0.1,0.1,0,0.1l0.8,0.4c0.1,0,0.2,0,0.2,0l0.8-0.5c0.1,0,0.1-0.1,0-0.1
						l-0.8-0.4C58,163.6,57.9,163.6,57.9,163.6z"/>
					<path class="st24" d="M59,163l-0.8,0.5c-0.1,0-0.1,0.1,0,0.1L59,164c0.1,0,0.2,0,0.3,0l0.8-0.5c0.1,0,0-0.1,0-0.1l-0.8-0.4
						C59.2,162.9,59.1,162.9,59,163z"/>
					<path class="st24" d="M60.1,162.3l-0.8,0.5c-0.1,0-0.1,0.1,0,0.1l0.8,0.4c0.1,0,0.2,0,0.2,0l0.8-0.5c0.1,0,0.1-0.1,0-0.1
						l-0.8-0.4C60.3,162.3,60.2,162.3,60.1,162.3z"/>
					<path class="st24" d="M61.3,161.7l-0.8,0.5c-0.1,0-0.1,0.1,0,0.1l0.8,0.4c0.1,0,0.2,0,0.2,0l0.8-0.5c0.1,0,0.1-0.1,0-0.1
						l-0.8-0.4C61.5,161.6,61.4,161.6,61.3,161.7z"/>
					<path class="st24" d="M62.4,161l-0.8,0.5c-0.1,0-0.1,0.1,0,0.1l0.8,0.4c0.1,0,0.2,0,0.3,0l0.8-0.5c0.1,0,0.1-0.1,0-0.1
						l-0.8-0.4C62.6,161,62.5,161,62.4,161z"/>
					<path class="st24" d="M63.6,160.3l-0.8,0.5c-0.1,0-0.1,0.1,0,0.1l0.8,0.4c0.1,0,0.2,0,0.3,0l0.8-0.5c0.1,0,0.1-0.1,0-0.1
						l-0.8-0.4C63.7,160.3,63.6,160.3,63.6,160.3z"/>
					<path class="st24" d="M64.7,159.7l-0.8,0.5c-0.1,0,0,0.1,0,0.1l0.8,0.4c0.1,0,0.2,0,0.3,0l0.8-0.5c0.1,0,0-0.1,0-0.1l-0.8-0.4
						C64.9,159.6,64.8,159.6,64.7,159.7z"/>
					<path class="st24" d="M65.8,159l-0.8,0.5c-0.1,0-0.1,0.1,0,0.1l0.8,0.4c0.1,0,0.2,0,0.3,0l0.8-0.5c0.1,0,0-0.1,0-0.1l-0.8-0.4
						C66,159,65.9,159,65.8,159z"/>
					<path class="st24" d="M67,158.4l-0.8,0.5c-0.1,0-0.1,0.1,0,0.1l0.8,0.4c0.1,0,0.2,0,0.2,0L68,159c0.1,0,0.1-0.1,0-0.1l-0.8-0.4
						C67.2,158.4,67.1,158.3,67,158.4z"/>
					<path class="st24" d="M68.1,157.7l-0.8,0.5c-0.1,0-0.1,0.1,0,0.1l0.8,0.4c0.1,0,0.2,0,0.2,0l0.8-0.5c0.1,0,0.1-0.1,0-0.1
						l-0.8-0.4C68.3,157.7,68.2,157.7,68.1,157.7z"/>
					<path class="st24" d="M69.3,157.1l-0.8,0.5c-0.1,0-0.1,0.1,0,0.1l0.8,0.4c0.1,0,0.2,0,0.2,0l0.8-0.5c0.1,0,0.1-0.1,0-0.1
						l-0.8-0.4C69.4,157,69.3,157,69.3,157.1z"/>
					<path class="st24" d="M71,156.1l-1.4,0.8c-0.1,0-0.1,0.1,0,0.1l0.8,0.4c0.1,0,0.2,0,0.3,0l1.3-0.8c0.1,0,0.1-0.1,0-0.1
						l-0.8-0.4C71.2,156,71.1,156,71,156.1z"/>
					<path class="st24" d="M56.2,163.3l-0.8,0.5c-0.1,0-0.1,0.1,0,0.1l0.8,0.4c0.1,0,0.2,0,0.2,0l0.8-0.5c0.1,0,0.1-0.1,0-0.1
						l-0.8-0.4C56.3,163.3,56.2,163.3,56.2,163.3z"/>
					<path class="st24" d="M57.3,162.7l-0.8,0.5c-0.1,0-0.1,0.1,0,0.1l0.8,0.4c0.1,0,0.2,0,0.3,0l0.8-0.5c0.1,0,0.1-0.1,0-0.1
						l-0.8-0.4C57.5,162.6,57.4,162.6,57.3,162.7z"/>
					<path class="st24" d="M58.4,162l-0.8,0.5c-0.1,0-0.1,0.1,0,0.1l0.8,0.4c0.1,0,0.2,0,0.3,0l0.8-0.5c0.1,0,0-0.1,0-0.1l-0.8-0.4
						C58.6,162,58.5,162,58.4,162z"/>
					<path class="st24" d="M59.6,161.4l-0.8,0.5c-0.1,0-0.1,0.1,0,0.1l0.8,0.4c0.1,0,0.2,0,0.2,0l0.8-0.5c0.1,0,0.1-0.1,0-0.1
						l-0.8-0.4C59.8,161.3,59.7,161.3,59.6,161.4z"/>
					<path class="st24" d="M60.7,160.7l-0.8,0.5c-0.1,0,0,0.1,0,0.1l0.8,0.4c0.1,0,0.2,0,0.3,0l0.8-0.5c0.1,0,0.1-0.1,0-0.1
						l-0.8-0.4C60.9,160.7,60.8,160.7,60.7,160.7z"/>
					<path class="st24" d="M61.9,160l-0.8,0.5c-0.1,0-0.1,0.1,0,0.1l0.8,0.4c0.1,0,0.2,0,0.3,0l0.8-0.5c0.1,0,0.1-0.1,0-0.1
						l-0.8-0.4C62,160,61.9,160,61.9,160z"/>
					<path class="st24" d="M63,159.4l-0.8,0.5c-0.1,0-0.1,0.1,0,0.1l0.8,0.4c0.1,0,0.2,0,0.2,0L64,160c0.1,0,0.1-0.1,0-0.1l-0.8-0.4
						C63.2,159.3,63.1,159.3,63,159.4z"/>
					<path class="st24" d="M64.2,158.7l-0.8,0.5c-0.1,0,0,0.1,0,0.1l0.8,0.4c0.1,0,0.2,0,0.3,0l0.8-0.5c0.1,0,0.1-0.1,0-0.1
						l-0.8-0.4C64.3,158.7,64.2,158.7,64.2,158.7z"/>
					<path class="st24" d="M65.3,158.1l-0.8,0.5c-0.1,0-0.1,0.1,0,0.1l0.8,0.4c0.1,0,0.2,0,0.2,0l0.8-0.5c0.1,0,0.1-0.1,0-0.1
						l-0.8-0.4C65.5,158,65.4,158,65.3,158.1z"/>
					<path class="st24" d="M66.4,157.4l-0.8,0.5c-0.1,0-0.1,0.1,0,0.1l0.8,0.4c0.1,0,0.2,0,0.3,0l0.8-0.5c0.1,0,0.1-0.1,0-0.1
						l-0.8-0.4C66.6,157.4,66.5,157.4,66.4,157.4z"/>
					<path class="st24" d="M67.6,156.7l-0.8,0.5c-0.1,0,0,0.1,0,0.1l0.8,0.4c0.1,0,0.2,0,0.3,0l0.8-0.5c0.1,0,0.1-0.1,0-0.1
						l-0.8-0.4C67.8,156.7,67.7,156.7,67.6,156.7z"/>
					<path class="st24" d="M68.7,156.1l-0.8,0.5c-0.1,0-0.1,0.1,0,0.1l0.8,0.4c0.1,0,0.2,0,0.2,0l0.8-0.5c0.1,0,0.1-0.1,0-0.1
						l-0.8-0.4C68.9,156,68.8,156,68.7,156.1z"/>
					<path class="st24" d="M55,164l-1.4,0.8c-0.1,0,0,0.1,0,0.1l0.8,0.4c0.1,0,0.2,0,0.3,0l1.4-0.8c0.1,0,0-0.1,0-0.1l-0.8-0.4
						C55.2,164,55.1,164,55,164z"/>
					<path class="st24" d="M70.9,156l-0.8,0.5c-0.1,0-0.2,0-0.2,0L69,156c0,0-0.1-0.1,0-0.1c0,0,0,0,0,0h0.1c0.1,0,0.1-0.1,0-0.1
						l-0.9-0.5c-0.1,0-0.1-0.1,0-0.1l0.5-0.3c0.1,0,0.2,0,0.2,0l0.8,0.5l0.2,0.1l0.1,0.1l0.1,0.1L70.9,156C71,155.9,71,156,70.9,156
						z"/>
					<path class="st24" d="M51.2,162.4l-0.8,0.5c-0.1,0-0.1,0.1,0,0.1l0.8,0.4c0.1,0,0.2,0,0.2,0l0.8-0.5c0.1,0,0.1-0.1,0-0.1
						l-0.8-0.4C51.3,162.3,51.2,162.4,51.2,162.4z"/>
					<path class="st24" d="M52.3,161.7l-0.8,0.5c-0.1,0-0.1,0.1,0,0.1l0.8,0.4c0.1,0,0.2,0,0.2,0l0.8-0.5c0.1,0,0.1-0.1,0-0.1
						l-0.8-0.4C52.5,161.7,52.4,161.7,52.3,161.7z"/>
					<path class="st24" d="M53.4,161.1l-0.8,0.5c-0.1,0-0.1,0.1,0,0.1l0.8,0.4c0.1,0,0.2,0,0.3,0l0.8-0.5c0.1,0,0.1-0.1,0-0.1
						l-0.8-0.4C53.6,161,53.5,161,53.4,161.1z"/>
					<path class="st24" d="M63.1,155.5l-0.8,0.5c-0.1,0-0.1,0.1,0,0.1l0.8,0.4c0.1,0,0.2,0,0.3,0l0.8-0.5c0.1,0,0.1-0.1,0-0.1
						l-0.8-0.4C63.3,155.4,63.2,155.4,63.1,155.5z"/>
					<path class="st24" d="M64.3,154.8l-0.8,0.5c-0.1,0-0.1,0.1,0,0.1l0.8,0.4c0.1,0,0.2,0,0.2,0l0.8-0.5c0.1,0,0.1-0.1,0-0.1
						l-0.8-0.4C64.4,154.8,64.3,154.8,64.3,154.8z"/>
					<path class="st24" d="M65.4,154.2l-0.8,0.5c-0.1,0-0.1,0.1,0,0.1l0.8,0.4c0.1,0,0.2,0,0.2,0l0.8-0.5c0.1,0,0.1-0.1,0-0.1
						l-0.8-0.4C65.6,154.1,65.5,154.1,65.4,154.2z"/>
					<path class="st24" d="M66.5,153.5l-0.8,0.5c-0.1,0-0.1,0.1,0,0.1l0.8,0.4c0.1,0,0.2,0,0.3,0l0.8-0.5c0.1,0,0-0.1,0-0.1
						l-0.8-0.4C66.7,153.5,66.6,153.5,66.5,153.5z"/>
					<path class="st24" d="M54.8,160.3l-1.1,0.6c-0.1,0,0,0.1,0,0.1l0.8,0.4c0.1,0,0.2,0,0.3,0l1.1-0.6c0.1,0,0.1-0.1,0-0.1
						l-0.8-0.4C55,160.2,54.9,160.2,54.8,160.3z"/>
					<path class="st24" d="M62,156.1l-1.1,0.6c-0.1,0-0.1,0.1,0,0.1l0.8,0.4c0.1,0,0.2,0,0.2,0l1.1-0.6c0.1,0,0.1-0.1,0-0.1
						l-0.8-0.4C62.2,156.1,62.1,156.1,62,156.1z"/>
					<path class="st24" d="M60.5,157l-5.4,3.1c-0.1,0-0.1,0.1,0,0.1l0.8,0.4c0.1,0,0.2,0,0.3,0l5.4-3.1c0.1,0,0.1-0.1,0-0.1
						l-0.8-0.4C60.7,157,60.6,157,60.5,157z"/>
					<path class="st24" d="M55.4,162.5l-0.8,0.5c-0.1,0-0.1,0.1,0,0.1l0.8,0.4c0.1,0,0.2,0,0.3,0l0.8-0.5c0.1,0,0.1-0.1,0-0.1
						l-0.8-0.4C55.5,162.5,55.4,162.5,55.4,162.5z"/>
					<path class="st24" d="M56.5,161.9l-0.8,0.5c-0.1,0-0.1,0.1,0,0.1l0.8,0.4c0.1,0,0.2,0,0.3,0l0.8-0.5c0.1,0,0.1-0.1,0-0.1
						l-0.8-0.4C56.7,161.8,56.6,161.8,56.5,161.9z"/>
					<path class="st24" d="M57.6,161.2l-0.8,0.5c-0.1,0,0,0.1,0,0.1l0.8,0.4c0.1,0,0.2,0,0.3,0l0.8-0.5c0.1,0,0.1-0.1,0-0.1
						l-0.8-0.4C57.8,161.2,57.7,161.2,57.6,161.2z"/>
					<path class="st24" d="M58.8,160.5L58,161c-0.1,0,0,0.1,0,0.1l0.8,0.4c0.1,0,0.2,0,0.3,0l0.8-0.5c0.1,0,0.1-0.1,0-0.1l-0.8-0.4
						C59,160.5,58.9,160.5,58.8,160.5z"/>
					<path class="st24" d="M59.9,159.9l-0.8,0.5c-0.1,0,0,0.1,0,0.1l0.8,0.4c0.1,0,0.2,0,0.3,0l0.8-0.5c0.1,0,0.1-0.1,0-0.1
						l-0.8-0.4C60.1,159.8,60,159.8,59.9,159.9z"/>
					<path class="st24" d="M61.1,159.2l-0.8,0.5c-0.1,0,0,0.1,0,0.1l0.8,0.4c0.1,0,0.2,0,0.3,0l0.8-0.5c0.1,0,0.1-0.1,0-0.1
						l-0.8-0.4C61.2,159.2,61.1,159.2,61.1,159.2z"/>
					<path class="st24" d="M62.2,158.6l-0.8,0.5c-0.1,0,0,0.1,0,0.1l0.8,0.4c0.1,0,0.2,0,0.3,0l0.8-0.5c0.1,0,0-0.1,0-0.1l-0.8-0.4
						C62.4,158.5,62.3,158.5,62.2,158.6z"/>
					<path class="st24" d="M63.3,157.9l-0.8,0.5c-0.1,0,0,0.1,0,0.1l0.8,0.4c0.1,0,0.2,0,0.3,0l0.8-0.5c0.1,0,0-0.1,0-0.1l-0.8-0.4
						C63.5,157.9,63.4,157.9,63.3,157.9z"/>
					<path class="st24" d="M64.5,157.2l-0.8,0.5c-0.1,0,0,0.1,0,0.1l0.8,0.4c0.1,0,0.2,0,0.3,0l0.8-0.5c0.1,0,0-0.1,0-0.1l-0.8-0.4
						C64.7,157.2,64.6,157.2,64.5,157.2z"/>
					<path class="st24" d="M65.6,156.6l-0.8,0.5c-0.1,0-0.1,0.1,0,0.1l0.8,0.4c0.1,0,0.2,0,0.3,0l0.8-0.5c0.1,0,0-0.1,0-0.1
						l-0.8-0.4C65.8,156.6,65.7,156.6,65.6,156.6z"/>
					<path class="st24" d="M66.8,155.9l-0.8,0.5c-0.1,0-0.1,0.1,0,0.1l0.8,0.4c0.1,0,0.2,0,0.3,0l0.8-0.5c0.1,0,0-0.1,0-0.1L67,156
						C66.9,155.9,66.8,155.9,66.8,155.9z"/>
					<path class="st24" d="M67.9,155.3l-0.8,0.5c-0.1,0-0.1,0.1,0,0.1l0.8,0.4c0.1,0,0.2,0,0.3,0l0.8-0.5c0.1,0,0-0.1,0-0.1
						l-0.8-0.4C68.1,155.2,68,155.2,67.9,155.3z"/>
					<path class="st24" d="M54.2,163.2l-1.7,1c-0.1,0-0.1,0.1,0,0.1l0.8,0.4c0.1,0,0.2,0,0.3,0l1.7-1c0.1,0,0.1-0.1,0-0.1l-0.8-0.4
						C54.4,163.1,54.3,163.1,54.2,163.2z"/>
					<path class="st24" d="M53.7,162.2l-0.8,0.5c-0.1,0-0.1,0.1,0,0.1l0.8,0.4c0.1,0,0.2,0,0.2,0l0.8-0.5c0.1,0,0.1-0.1,0-0.1
						l-0.8-0.4C53.9,162.2,53.8,162.2,53.7,162.2z"/>
					<path class="st24" d="M54.8,161.6L54,162c-0.1,0-0.1,0.1,0,0.1l0.8,0.4c0.1,0,0.2,0,0.2,0l0.8-0.5c0.1,0,0.1-0.1,0-0.1
						l-0.8-0.4C55,161.5,54.9,161.5,54.8,161.6z"/>
					<path class="st24" d="M56,160.9l-0.8,0.5c-0.1,0-0.1,0.1,0,0.1L56,162c0.1,0,0.2,0,0.2,0l0.8-0.5c0.1,0,0.1-0.1,0-0.1l-0.8-0.4
						C56.2,160.9,56.1,160.9,56,160.9z"/>
					<path class="st24" d="M57.1,160.2l-0.8,0.5c-0.1,0-0.1,0.1,0,0.1l0.8,0.4c0.1,0,0.2,0,0.2,0l0.8-0.5c0.1,0,0.1-0.1,0-0.1
						l-0.8-0.4C57.3,160.2,57.2,160.2,57.1,160.2z"/>
					<path class="st24" d="M58.2,159.6l-0.8,0.5c-0.1,0-0.1,0.1,0,0.1l0.8,0.4c0.1,0,0.2,0,0.2,0l0.8-0.5c0.1,0,0.1-0.1,0-0.1
						l-0.8-0.4C58.4,159.5,58.3,159.5,58.2,159.6z"/>
					<path class="st24" d="M59.4,158.9l-0.8,0.5c-0.1,0-0.1,0.1,0,0.1l0.8,0.4c0.1,0,0.2,0,0.2,0l0.8-0.5c0.1,0,0.1-0.1,0-0.1
						l-0.8-0.4C59.6,158.9,59.5,158.9,59.4,158.9z"/>
					<path class="st24" d="M60.5,158.3l-0.8,0.5c-0.1,0-0.1,0.1,0,0.1l0.8,0.4c0.1,0,0.2,0,0.3,0l0.8-0.5c0.1,0,0.1-0.1,0-0.1
						l-0.8-0.4C60.7,158.2,60.6,158.2,60.5,158.3z"/>
					<path class="st24" d="M61.7,157.6l-0.8,0.5c-0.1,0-0.1,0.1,0,0.1l0.8,0.4c0.1,0,0.2,0,0.3,0l0.8-0.5c0.1,0,0.1-0.1,0-0.1
						l-0.8-0.4C61.8,157.6,61.7,157.6,61.7,157.6z"/>
					<path class="st24" d="M62.8,156.9l-0.8,0.5c-0.1,0-0.1,0.1,0,0.1l0.8,0.4c0.1,0,0.2,0,0.3,0l0.8-0.5c0.1,0,0.1-0.1,0-0.1
						l-0.8-0.4C63,156.9,62.9,156.9,62.8,156.9z"/>
					<path class="st24" d="M64,156.3l-0.8,0.5c-0.1,0-0.1,0.1,0,0.1l0.8,0.4c0.1,0,0.2,0,0.3,0l0.8-0.5c0.1,0,0.1-0.1,0-0.1
						l-0.8-0.4C64.2,156.2,64.1,156.2,64,156.3z"/>
					<path class="st24" d="M65.1,155.6l-0.8,0.5c-0.1,0-0.1,0.1,0,0.1l0.8,0.4c0.1,0,0.2,0,0.3,0l0.8-0.5c0.1,0,0.1-0.1,0-0.1
						l-0.8-0.4C65.3,155.6,65.2,155.6,65.1,155.6z"/>
					<path class="st24" d="M67.6,154.1l-2.2,1.3c-0.1,0-0.1,0.1,0,0.1l0.8,0.4c0.1,0,0.2,0,0.3,0l2.2-1.3c0.1,0,0.1-0.1,0-0.1
						l-0.8-0.4C67.8,154.1,67.7,154.1,67.6,154.1z"/>
					<path class="st24" d="M52.5,162.9l-1.1,0.6c-0.1,0-0.1,0.1,0,0.1l0.8,0.4c0.1,0,0.2,0,0.3,0l1.1-0.6c0.1,0,0.1-0.1,0-0.1
						l-0.8-0.4C52.7,162.8,52.6,162.8,52.5,162.9z"/>
					<path class="st24" d="M72.1,156.7l-16.2,9.4c-0.1,0-0.1,0.1,0,0.1l0.4,0.2c0.1,0,0.2,0,0.3,0l16.2-9.4c0.1,0,0.1-0.1,0-0.1
						l-0.4-0.2C72.3,156.7,72.2,156.7,72.1,156.7z"/>
					<polygon id="_Контур_18" class="st25" points="53.2,157.1 53.3,157.2 56.1,158.8 61,155.9 61.1,155.9 58.2,154.2 					
						"/>
					<polygon id="_Контур_19" class="st26" points="53.3,157.2 56.1,158.8 61,155.9 58.2,154.3 					"/>
					<path id="_Контур_20" class="st26" d="M45.2,160.9v0.2c0,0.4,0.2,0.7,0.5,0.9l9.9,5.7c0.2,0.1,0.3,0.1,0.5,0.1
						c0.2,0,0.4,0,0.5-0.1l17.8-10.3c0.3-0.2,0.5-0.5,0.5-0.9v-0.2l-18.9,10.9L45.2,160.9z"/>
					<path id="_Контур_21" class="st20" d="M56.3,167.4c0.3,0.1,0.7,0.1,1-0.1L75.2,157c0.3-0.2,0.5-0.5,0.6-0.8l2-11.6
						c0-0.1,0-0.1,0-0.2c0-0.3-0.1-0.6-0.3-0.9l-18.5,10.7c-0.2,0.1-0.4,0.4-0.4,0.6L56.3,167.4z"/>
					<path id="_Контур_22" class="st26" d="M56.1,167.2l0.1,0.1l0.2,0.1l2.1-12.6c0-0.3,0.2-0.5,0.4-0.6l18.5-10.7
						c-0.1-0.1-0.2-0.1-0.2-0.2L58.6,154c-0.2,0.1-0.4,0.4-0.4,0.6L56.1,167.2z"/>
				</g>
			</g>
			<path id="_Контур_23" class="st19" d="M42.7,117.6c0,0,0.2,4.4,0.1,4.8s-2,1.7-2.6,2.2s3,4,4.8,4.8s7.3-1.3,7.4-4
				s-1-5-1.8-5.2S42.7,117.6,42.7,117.6z"/>
			<path id="_Контур_24" class="st20" d="M42.2,123.1c0,0,3.2,4.8,7.7,5.2c1.4-1.4,1.5-6.3-0.4-7.9c0,0,1.8-1.4,3-1.2
				c1.3,0.8,2.3,2,2.8,3.5c1.1,3.3,1.7,6.7,1.6,10.2c-0.1,4.7,0,16.5,0,16.5c-0.5,2.8-2.2,5.3-4.7,6.8c-3.2,1.8-7,2.3-10.6,1.5
				c-1.8-0.4-3.3-1.7-3.9-3.4c0.2-3.3,1.5-10,1-14.2s-1.4-7.2-1.7-10.5s0.4-3.3,2.1-4.5C40,124.4,41.1,123.7,42.2,123.1z"/>
			<path id="_Контур_25" class="st19" d="M47.3,161.2c-0.8-0.5-1.6-1-2.5-1.4c-0.8-0.3-1.5-0.7-2.1-1.3
				c-0.8-0.8-2.1-3.7-3-6.5c-0.9-3.2-1.3-6.5-1.1-9.9c0.4-4,1.8-9.6,2.2-11.8s-0.4-3.2-1.4-4c-1.2-1-3-0.6-3.9,2.7
				c-1.2,4.4-1.8,9-2,13.6c0,3.4,0.5,6.8,1.5,10c1,2.8,2.2,5.4,3.8,7.9c0.4,0.7,0.6,1.4,1.2,2.9c0.6,1.5,1.7,2.9,2.9,3.9
				c1.1,0.8,1.7,0.9,1.9,0.8s0.3-0.6-0.2-1c-0.8-0.6-1.5-1.4-2-2.2c0,0,1,1,1.6,1.5c0.6,0.5,1.2,0.9,1.9,1.2
				c0.7,0.3,1.6-0.3,1.1-0.7s-0.9-0.7-1.9-1.5c-0.5-0.4-1-0.9-1.4-1.4c0.7,0.5,1.4,1,2.1,1.4c0.6,0.3,1.2,0.5,1.9,0.5
				c0.3,0,0.8-0.5,0.1-1c-0.9-0.5-1.7-1-2.5-1.7c-0.7-0.7-1.1-1.3-0.9-1.3s0.6,0.4,1.4,0.7s1.7,0,1.8-0.4S48.1,161.6,47.3,161.2z"/>
			<path id="_Контур_26" class="st19" d="M52.6,111L52.6,111c-0.5-3.4-3-6-6.5-5.8c-3.8,0.2-6.6,3.4-6.4,7.2c0,0,0,0,0,0
				c0.1,2.1,1.2,4,3,5.2c0.1,0.5,0.3,1,0.5,1.5c1.2,1.5,5,2.4,6.1,2.2c1.3-0.1,2.4-1,2.8-2.3C53.3,116.3,52.9,112.7,52.6,111z"/>
			<path class="st24" d="M42.7,117.6L42.7,117.6l0.3-3c0,0-2.4-6.3,3.3-5.1c3.8,0.8,4.8,1.1,5.9-1.4s-2.9-4.9-7.8-4.2
				c-3.5,0.4-6.1,3.3-6,6.8C38.6,112.5,39.1,116.3,42.7,117.6z"/>
			<path class="st23" d="M32.8,134.7c0,0,3.2,3.1,6.9,2.2c0.5-0.4,1.8-7.7,1.8-7.7s0-4.1-3.1-4S32.8,134.7,32.8,134.7z"/>
			<path class="st23" d="M56.5,128.6c0.9,0,1.7-0.4,2.3-1c-0.1-1.6-2.2-7.9-6.5-8.3c1.2,0.8,2.1,1.9,2.6,3.2
				C55.7,124.5,56.2,126.6,56.5,128.6z"/>
		</g>
		<g id="Girl_8">
			<ellipse class="st5" cx="455.9" cy="360.2" rx="22.7" ry="13.1"/>
			<path id="_Контур_27" class="st24" d="M454.9,237.7c0.9-1.5,7.9-2.4,10.1,3.5c0.9,2.2,0.7,7.9,1.5,11.5s2.4,5.6,3,8.5
				s-0.4,7.8-7.4,8.6s-12.4-1.6-14.1-3.8s-1.7-7,0-9.5s3-4.6,3-8L454.9,237.7z"/>
			<path class="st19" d="M446.5,262.3c0,0-1.6,11.7,1.5,19.9s2.2-2.1,2.2-2.1l-0.8-2.5c0,0-0.6-9.5-0.4-11.8s0.2-4.3,0.4-4.5
				s-0.6-0.6-0.9-0.6S446.5,262.3,446.5,262.3z"/>
			<path id="_Контур_28" class="st24" d="M459.4,236.7c0,0-5.2-1.5-8.4,1.3c-2.1,2-3,5-2.2,7.8c0.4,1.6,1.3,3.9,2.6,4
				S459.4,236.7,459.4,236.7z"/>
			<path id="_Контур_29" class="st19" d="M461.4,251c0,0-0.3,5.8-0.2,6.3s2.3,0.8,2.9,1.4s-3.2,6.4-5.1,7.3s-7.9-1.4-8.3-4.3
				c-0.4-2.7,1.7-4.8,2.5-5.6c0.5,0,1.1,0,1.6,0l0.2-2.8C457.6,252.2,461.4,251,461.4,251z"/>
			<path id="_Контур_30" class="st20" d="M462.2,257.8c1.6,0.3,3.5,1.1,3.8,2c0.7,3.2,0.5,6.6-0.5,9.7
				c-1.4,3.8-2.4,6.1-3.2,7.8c0,0-7.1,3-12.8-0.5c0,0-0.4-4-0.4-6.2c-5.3-4.6-0.8-10.3,3.7-14.7c0.5,0,1.1,0,1.6,0
				c0,0-4,4.7-1.2,7.4C459.2,261.5,460.3,258.8,462.2,257.8z"/>
			<path id="_Контур_31" class="st19" d="M450.5,243.7L450.5,243.7c0.6-3.8,3.3-6.6,7.2-6.4c4.1,0.2,7.3,3.7,7.1,7.8
				c-0.1,2.4-1.4,4.6-3.3,5.9c-0.1,0.6-0.3,1.1-0.6,1.6c-1.4,1.6-5,2.6-6.2,2.6c-1,0-1.9-0.9-2.9-2.6
				C449.7,249.3,450.2,245.6,450.5,243.7z"/>
			<path class="st24" d="M458.9,237.4c2.7,0.5,4.9,1.3,5.7,3.9c0.5,1.8,1.2,5.3,0.5,6.8l-0.4,1.1l-3.3,1.7c0,0-1.5-1.3-1-5
				c0-0.5-0.2-1-0.5-1.4c-0.2-0.4-0.4-0.7-0.5-1.1c-0.4-1-1.1-1.8-2.1-2.3c-2.5-1.4-6-0.2-6.5,0.3
				C452.2,238.4,455.6,236.7,458.9,237.4z"/>
			<path id="_Контур_32" class="st19" d="M466.2,285c0.6-3.8,1.8-6.3,1.2-8.4c-1.2-4.2-2.7-8.3-4.6-12.3
				c-1.2-2.4-0.8-4,0.4-4.9c1.4-1,2.7-0.6,4,2c1.6,3.3,3.4,6.7,4.2,11.6c0.6,3.2,0.5,6.4-0.1,9.6c-0.5,3.4-1.6,5.3-2.9,8.5
				C468.1,292,465.7,288.2,466.2,285z"/>
			<path class="st27" d="M463.8,355.8c-1.4,1.1-3.5,0.3-3.6,0.4c-1.6,1.4-3.3,2.7-5,3.8c-0.9,0.7-2.2,1.6-2,2.9
				c0.4,2.3,4.1,1.6,5.5,0.9s2.5-1.9,3.9-2.7c1-0.6,1.9-0.9,2-2.1C464.7,358.4,464.1,355.8,463.8,355.8z"/>
			<path class="st28" d="M464.6,358.6c-0.2,1.1-1.1,1.5-2,2c-1.3,0.8-2.5,2-3.9,2.7s-4.5,1.3-5.4-0.4c0.5,2.2,4.1,1.5,5.5,0.8
				s2.5-1.9,3.9-2.7c1-0.6,1.9-0.9,2-2.1C464.7,358.9,464.7,358.8,464.6,358.6z"/>
			<path class="st27" d="M454.2,353.9c-1.2,1-3.1,0.5-3.2,0.5c-1.5,1.3-3,2.4-4.6,3.5c-0.8,0.6-2,1.4-1.8,2.6
				c0.4,2.1,3.8,1.5,5.1,0.8s2.3-1.7,3.5-2.5c0.9-0.5,1.7-0.8,1.9-1.9C455.1,356.4,454.4,353.9,454.2,353.9z"/>
			<path class="st28" d="M455,356.6c-0.2,1-1,1.3-1.9,1.9c-1.2,0.8-2.3,1.9-3.6,2.5s-4.1,1.2-5-0.3c0.5,2,3.8,1.4,5,0.8
				s2.3-1.7,3.5-2.5c0.9-0.5,1.7-0.8,1.9-1.9C455,356.9,455,356.7,455,356.6z"/>
			<path class="st19" d="M446.8,290.1c0.6-4.7,2.4-11.6,2.4-11.6c1.6,0.8,3.4,1.2,5.2,1.3c2.7,0,5.3-0.3,7.9-0.8
				c0.9,1.5,1.8,2.9,2.8,4.3c1.4,1.9,4,6,3.4,13.3c-0.4,4.7-3.1,24.8-3.1,24.8c1,3.4,1.6,6.9,1.6,10.4c-0.2,4.2-0.8,8.4-1.7,12.5
				l-1.6,11.4c0,0-2.1,1.5-3.6,0.4l0.2-11.2c-0.2-2.7-0.5-6.8-0.6-9.3c-0.3-4.2-1-10.9-1.2-12.5s-0.8-4.6-1-7.8s-1.5-19.8-1.5-19.8
				l-0.2,3.1c0,0-0.2,5-0.9,11.2s-1,9-1,9c0.7,1.2,1.2,2.6,1.4,4c0.1,1.3,1.7,12,0.7,17.4l-1.9,13.7c-1,0.7-2.2,0.8-3.2,0.4
				l-1.1-13.8c-0.7-5.3-2.3-16.4-2.5-17.9c-0.5-2.9-0.8-5.9-0.9-8.9C446.1,307.9,446.2,294.8,446.8,290.1z"/>
			<path class="st9" d="M462.4,277.3l4.1,8.2c0,0,6.2,9.1-0.2,32.5l1.2,7.2c0,0-12.2,7.8-20.4,0c0,0-2.8-21.6-1.3-31.6
				c0.8-5.7,2.1-11.4,3.8-16.9c0,0,2,2.2,12.3,0.8"/>
			<path class="st23" d="M469.7,266c0,0-2.8,2.8-6.2,2.5l-1.6-5.5c0,0-1-2.9,1.4-4.1S468.2,260.4,469.7,266z"/>
			<path class="st23" d="M452.8,255.9c0,0-3.2-1-6.7,6.2l1.3,0.8C449,260.4,450.8,258.1,452.8,255.9z"/>
		</g>
		<g id="Girl_4">
			<ellipse class="st5" cx="85.4" cy="486.9" rx="22.7" ry="13.1"/>
			<path id="_Контур_33" class="st19" d="M98.5,386.2c2,0.6,3.1,2.8,4.9,7.5c1.4,4.3,2.2,8.7,2.1,13.2
				c-0.6,4.4-2.4,7.9-6.8,11.4l-2.1-3.9c0,0,4.3-3.8,4.8-8.2c0.2-2.5-2.7-10.8-2.7-11.1S98.5,386.2,98.5,386.2z"/>
			<path class="st27" d="M81.2,488.1c-1.3,0.4-2.8,0.2-4-0.5c-1.1,0-7.4-2.5-8.2-0.4c-0.7,1.9,1.8,3.6,3.2,3.9
				c3,0.7,5.2,2.2,6.4,2.4c0.9,0.3,1.9,0.2,2.7-0.4C82.1,492.3,82,489.2,81.2,488.1z"/>
			<path class="st28" d="M78.5,493c-1.2-0.2-3.4-1.7-6.4-2.5c-1.1-0.3-3.1-1.5-3.3-3c-0.3,1.7,2,3.2,3.3,3.5c3,0.7,5.2,2.2,6.4,2.4
				c0.9,0.3,1.9,0.2,2.7-0.4c0.2-0.2,0.3-0.4,0.4-0.7C80.7,493.1,79.6,493.3,78.5,493z"/>
			<path class="st27" d="M97.3,479.7c-1.2,0.4-2.5,0.2-3.5-0.5c-1,0-7.5-2.4-8.3-0.4c-0.7,1.8,1.8,3.4,3.1,3.7
				c2.9,0.7,5,2.1,6.1,2.4c0.9,0.3,1.9,0.2,2.6-0.4C98.2,483.8,98.1,480.8,97.3,479.7z"/>
			<path class="st28" d="M94.7,484.4c-1.2-0.2-3.3-1.7-6.1-2.4c-1.1-0.3-3-1.5-3.2-2.9c-0.2,1.6,2,3.1,3.2,3.4
				c2.9,0.7,5,2.1,6.1,2.4c0.9,0.3,1.9,0.2,2.6-0.4c0.2-0.2,0.3-0.4,0.4-0.7C96.9,484.5,95.7,484.7,94.7,484.4z"/>
			<path id="_Контур_34" class="st19" d="M99.4,463.6c0-2.4-0.4-4.9-1.2-7.1c0,0,0.8-9.8,1.4-16.2c0.9-9.5,2.4-10.4,2-16.2
				c-0.4-5.3-3.4-8.8-4.2-12.4l-15.5,1.2c0,0-1.3,4.4-3.1,13.1s-1.9,19.1-1.7,32.9c0,3.5-0.6,6.6-0.4,15.5
				c0.1,5.9,0.5,13.2,0.5,13.2c2.3,1.9,3.8,0.5,3.8,0.5s4-17.6,4.6-21.6c0.4-2.2,0.2-4.5-0.5-6.7c0,0,1.2-5.5,2-9.9
				c1-5.3,3.7-16.8,3.7-16.8s-0.4,17.6,0.3,21.1s0.9,6.5,1.6,11.2c0.8,5.7,1.2,14,1.2,14c2.4,1.5,3.4,0.4,3.4,0.4
				S99.4,468.6,99.4,463.6z"/>
			<path class="st9" d="M97.4,411.6c1.6,1.7,4.3,6.7,4.3,14.4c0,8.6-1.2,6.9-1.8,16.3l-0.6,9.5c0,0-12.9,6.2-22.2,0.5
				c-0.8-1.8,0.3-21.7,1.9-28.8s2.7-10.5,2.7-10.5S93.6,416.1,97.4,411.6z"/>
			<path id="_Контур_35" class="st19" d="M97.6,386.1c-3.3-0.2-3.6,0.4-3.9-0.8c-0.1-0.4-0.3-3.3-0.3-3.3
				c0.3-0.4,0.6-0.8,0.8-1.2c2.2-1.4,3.7-3.7,4-6.3c0.5-4.6-2.9-8.8-7.5-9.3c-4.4-0.5-7.6,2.6-8.4,6.8c-0.5,2.1-0.9,6.3,0.4,9.7
				c0.7,1.9,1.4,3.3,3.2,3.2c0.6-0.1,1.2-0.2,1.7-0.3c0.1,0.8,0.1,1.6,0.1,2.4c0,0.9,0.1,1.3-1.6,2.3s2.5,3.1,5.2,2.9
				s5.8-1.8,6.6-3.6C98.7,386.7,99.1,386.2,97.6,386.1z"/>
			<path class="st23" d="M100,400.8c0,0,3.7-0.8,5.4-2.5c0,0-2.2-7-3.6-8.7S99,399,99,399L100,400.8z"/>
			<path id="_Контур_36" class="st20" d="M94.3,386.1c0.6,0.8,0.7,1.7-1.7,2.3c-1.7,0.5-3.5,0.3-5.2-0.4
				c-1.9,0.8-3.6,1.7-5.3,2.8c-2,6.6-0.4,7.5-1.2,12.2c0.3,2.4,0.7,8.5,0.8,9.9c4.5,3.1,13.6,2.1,15.6-1.3c0-1.1,0.1-2.2,0.3-3.3
				c2.1-7.9,3.8-10,3.2-16c-0.3-3.4-0.6-5.1-2.4-6.1C97.1,386,95.7,386,94.3,386.1z"/>
			<path id="_Контур_37" class="st19" d="M53.1,411.9c1,0.2,2,0.5,3,0.9c0.9,0.5,1.9,0.8,2.9,1c1.1,0.2,2.8-0.4,5.8-1.8
				c3.3-1.7,6.2-3.9,8.7-6.5c2.8-3.4,5.4-7,7.6-10.9c1.3-2.4,2.9-2.9,4.3-2.5c1.7,0.6,1.9,2.2,0,5.4c-2.4,4.1-5.4,8-8.7,11.4
				c-2.6,2.6-5.7,4.8-9.1,6.4c-2.4,1.2-5,2.1-7.6,2.6c-0.9,0.2-1.6,0.6-3.3,1.2c-1.7,0.6-3.5,0.8-5.3,0.6c-1.5-0.3-2-0.6-2.1-1
				s0.2-0.6,0.9-0.6c1.1,0.2,2.2,0.1,3.3-0.1c0,0-1.5,0-2.5-0.2c-0.8-0.1-1.6-0.3-2.4-0.6c-0.7-0.3-1-1.5-0.3-1.4s1.2,0.3,2.6,0.4
				c0.7,0.1,1.4,0.1,2.2,0c-0.9-0.1-1.8-0.4-2.7-0.7c-0.7-0.2-1.4-0.6-1.8-1.1c-0.2-0.3-0.2-1,0.7-0.8c1,0.4,2.1,0.6,3.2,0.7
				c1.1,0,1.9-0.1,1.8-0.3s-0.8-0.1-1.6-0.6s-1.3-1.4-1-1.8S52.2,411.5,53.1,411.9z"/>
			<path class="st23" d="M83.6,401.3c-2.6-0.4-5-1.6-6.8-3.5l4.1-5.7c0,0,2.3-2.9,5.4-1.3c0,0,2.3,0.2,0,5.1
				C85.6,397.8,84.7,399.6,83.6,401.3z"/>
			<path class="st24" d="M81.4,369.5c0.3-2.1,2.3-3.5,4.3-3.2c1.4-1,3.2-1.4,4.9-1.2c3.9,0.4,6.5,3,7.7,6.9c0.6,2,1,4,1.2,6
				c1.2,8.8,4.4,15.7,1.4,18.3s-11.1,4.2-14.5,2.6s2.8-16.7-3.9-25.1C80.9,371.9,80.8,370.5,81.4,369.5z"/>
		</g>
		<g id="Men_13">
			<ellipse class="st5" cx="22.7" cy="454.9" rx="22.7" ry="13.1"/>
			<path class="st18" d="M12,451.6c1.6,1.3,3.8,0.1,3.9,0.2c1.8,1.7,3.7,3.3,5.7,4.8c1,0.8,2.5,1.8,2.2,3.2c-0.5,2.6-4.6,1.8-6.2,1
				s-2.9-2.1-4.4-3c-1.1-0.7-2.1-1-2.3-2.3C10.9,454.6,11.7,451.6,12,451.6z"/>
			<path class="st21" d="M11,454.9c0.2,1.3,1.2,1.6,2.3,2.3c1.5,0.9,2.8,2.3,4.4,3.1s5.1,1.5,6.1-0.4c-0.5,2.5-4.6,1.7-6.2,0.9
				s-2.9-2.1-4.4-3c-1.1-0.7-2.1-1-2.3-2.3C11,455.3,11,455.1,11,454.9z"/>
			<path class="st18" d="M25.4,446.6c1.5,1.3,4.2-0.1,4.4,0c1.6,1.6,3.3,3.2,5.1,4.6c1,0.8,2.5,1.8,2.2,3.2c-0.5,2.6-4.7,1.8-6.2,1
				s-2.9-2.1-4.4-3c-1.1-0.7-2.1-1-2.3-2.3C24.1,449.3,25.1,446.6,25.4,446.6z"/>
			<path class="st21" d="M24.2,449.7c0.2,1.3,1.2,1.6,2.3,2.3c1.5,0.9,2.9,2.3,4.4,3.1c1.6,0.8,5.1,1.5,6.1-0.4
				c-0.5,2.5-4.7,1.7-6.2,0.9s-2.9-2.1-4.3-3c-1.1-0.7-2.1-1-2.3-2.3C24.2,450.1,24.2,449.9,24.2,449.7z"/>
			<path id="_Контур_38" class="st22" d="M11.9,394.5c0.1,2.3,0.8,12.5,1.1,17.9s0.4,12,0.4,12s-0.9,3.9-1.5,8.5
				s0,19.1,0,19.1c1.2,0.8,2.8,0.8,4,0c0,0,2.5-11.6,3.6-16.9s1.4-8.3,1.9-11.5c0.7-3.9,2.3-22.3,2.3-22.3h0.6l1.7,20.7
				c-0.5,1.5-0.9,3.1-1,4.7c-0.5,3.4,0.5,20.3,0.5,20.3c1.3,0.7,3,0.7,4.3-0.2c0,0,4.1-22.5,4.1-25.9c0-2.3-0.4-32.1-0.4-32.1
				L11.9,394.5z"/>
			<path id="_Контур_39" class="st19" d="M17.5,349.4c0,0,0.3,5.1,0.1,5.5s-2.3,1.9-3,2.5s3.5,4.6,5.6,5.6s8.5-1.5,8.6-4.7
				s-1.1-5.8-2.1-6S17.5,349.4,17.5,349.4z"/>
			<path class="st19" d="M31.4,358.8c0.3-2.2-1.2-4.4,0.2-6.2c5,4.9,4.4,18,5.5,26.4c3.7,3.9,11.2,7.8,13.4,8.7
				c0.4,0.2,0.7,0.4,0.6,0.8c-0.3,1.4-0.9,2.7-1.8,3.8c-5-2.1-8.5-3.4-14.8-9.3c-0.6-0.6-1.1-1.3-1.6-2.1
				C31.4,375.6,30.9,362.7,31.4,358.8z"/>
			<path id="_Контур_40" class="st20" d="M16.9,355.8c0,0,3.7,5.5,8.9,6c1.6-1.6,1.8-7.3-0.5-9.1c0,0,2.1-1.7,3.5-1.4
				c1.5,0.9,2.7,2.4,3.2,4.1c1.3,3.8,1.9,7.8,1.8,11.8c-0.1,5.4,0,21.9,0,21.9s-0.7,3.5-5.4,6.1s-8.1,2.9-11.3,2.1
				c-2.6-0.6-4.8-1.5-5.7-3.4c0.2-3.8,1.9-13.7,1.3-18.5s-1.6-8.3-1.9-12.2s0.5-3.8,2.4-5.1C14.4,357.3,15.6,356.5,16.9,355.8z"/>
			<path id="_Контур_41" class="st19" d="M29,341.8L29,341.8c-0.6-4-3.5-7-7.5-6.7c-4.3,0.2-7.7,3.9-7.4,8.3
				c0.1,2.4,1.4,4.7,3.4,6.1c0.1,0.6,0.4,1.2,0.6,1.7c1.4,1.7,5.8,2.7,7.1,2.5c1.5-0.1,2.8-1.2,3.3-2.6
				C29.8,347.9,29.4,343.7,29,341.8z"/>
			<path class="st18" d="M17.5,349.4L17.5,349.4l0.4-3.5c0,0-2.9-7.3,3.9-5.9c4.4,0.9,5.5,1.3,6.8-1.6s-3.4-5.6-9-4.9
				c-4,0.4-7,3.8-6.9,7.9C12.8,343.5,13.3,347.9,17.5,349.4z"/>
			<path class="st19" d="M9.7,361c1.9-0.5,0.5-0.1,1.9-0.5c5,4.9,4.4,13.4,5.6,21.7c2.8,4.6,13.1,10.8,13.1,10.8
				c0.1,0.9-0.2,1.1-1.3,3c-5.7-2.2-11-5.6-15.3-9.9c-0.2-0.2-0.6-0.3-0.7-0.6C11.1,380.1,9.2,364.9,9.7,361z"/>
			<polygon class="st20" points="55.5,371.3 48.1,396.9 31.6,403.5 37.6,378.5 			"/>
			<path class="st19" d="M27.6,393.2c0.2-0.9,0.9-0.7,1.6-0.4c0.8,0.3,1.6,0.4,2.4,0.2c0.6-0.3,1.2-0.7,1.7-1.2
				c0.3-0.2,0.7-0.3,1.1-0.3c0,0.2-0.4,1.5-0.4,1.5s3.6,0,4,0c0.3-0.1,0.6,0.2,0.7,0.5c0,0.2,0,0.4-0.1,0.5h0.2c0.7-0.2,1,1,0.3,1.1
				l-0.6,0.1c0.5,0.2,0.6,1,0,1.1h-0.2c-0.1,0-0.2,0-0.3,0H38c0.1,0.3-0.1,0.7-0.5,0.8c0,0,0,0-0.1,0c-1.8,0.2-4.3,0.9-5.9-0.5
				c-1.1-0.1-2.2-0.4-3.2-0.9C27.4,395.2,27.4,394.2,27.6,393.2z"/>
			<path class="st19" d="M45.6,391.1h0.2c-0.3-0.2-0.3-0.6-0.1-0.8c0.1-0.2,0.3-0.3,0.5-0.3c0.4,0,4.1-0.8,4.1-0.8l0.5-1.5
				c0-0.1,0.6,0.3,0.7,0.3c0.6,0.4,1.1,1.1,1.1,1.9c0,1.1-0.3,2.1-1.1,2.9c-0.7,0.7-1.5,1-2.5,1.1c-0.5,0-0.9,0-1.3,0.1
				c-0.4,0-0.7-0.3-0.7-0.6c0,0,0,0,0,0h-0.1c-0.1,0-0.2,0-0.3,0h-0.2c-0.6,0-0.7-0.8-0.2-1.1h-0.6
				C44.8,392.3,44.9,391.1,45.6,391.1z"/>
			<path class="st23" d="M33.5,362.1c1,0,2-0.5,2.7-1.2c-0.1-1.9-2.6-9.1-7.4-9.6c1.3,0.9,2.3,2.2,3,3.7
				C32.5,357.3,33.1,359.7,33.5,362.1z"/>
			<path class="st23" d="M8.8,371.6c0,0,4.8,1.7,8.3-1.1c0.4-0.6-2-8.9-2-8.9s-2-4.2-5.2-2.5S8.8,371.6,8.8,371.6z"/>
		</g>
		<g id="Men_12">
			<path id="_Контур_42" class="st19" d="M304.3,86.4c-1.6,2.8-3.5,5.4-5.7,7.8c-0.6,0.7-5.4-1.1-4.4-1.6s4.1-4.8,5.6-7.7
				c1.3-3.4,2.4-7,3.3-10.5c1-3.5,1.8-8.7,2.5-11.2c0.4-1.8,1.8-3.3,3.6-3.7c1.7-0.4,2.8,0.1,2.5,2.1
				C311.3,65.2,308.5,79.3,304.3,86.4z"/>
			<path class="st27" d="M307,141.5c-1.5,1.2-3.6,0.1-3.7,0.2c-1.7,1.6-3.5,3.1-5.4,4.5c-0.9,0.7-2.3,1.7-2.1,3.1
				c0.5,2.5,4.4,1.7,5.9,1s2.7-2,4.1-2.9c1-0.6,2-0.9,2.2-2.2C308.1,144.4,307.3,141.5,307,141.5z"/>
			<path class="st28" d="M308,144.6c-0.2,1.2-1.2,1.6-2.2,2.2c-1.4,0.9-2.7,2.2-4.2,2.9s-4.8,1.4-5.8-0.4c0.5,2.4,4.4,1.6,5.9,0.9
				s2.7-2,4.1-2.9c1-0.6,2-0.9,2.2-2.2C308,145,308,144.8,308,144.6z"/>
			<path class="st27" d="M292.1,133c-1.5,1.2-4-0.1-4.1,0c-1.5,1.5-3.1,3-4.8,4.4c-0.9,0.7-2.4,1.7-2.1,3.1c0.5,2.5,4.4,1.7,5.9,1
				s2.7-2,4.1-2.9c1-0.6,2-0.9,2.2-2.2C293.4,135.5,292.4,132.9,292.1,133z"/>
			<path class="st28" d="M293.2,135.9c-0.2,1.2-1.2,1.6-2.2,2.2c-1.4,0.9-2.7,2.2-4.2,2.9s-4.8,1.4-5.8-0.4c0.5,2.4,4.4,1.6,5.9,0.9
				s2.7-2,4.1-2.9c1-0.6,2-0.9,2.2-2.2C293.2,136.2,293.2,136.1,293.2,135.9z"/>
			<path id="_Контур_43" class="st9" d="M326.7,94.4c1.6,10.2-2.9,14-8.8,16.1c-4.2,1.6-10.3,3.9-10.3,3.9s0.1,2.2,0.1,7.2
				c0,4.4-0.5,20.5-0.5,20.5c-1.4,0.7-3.1,0.7-4.5-0.1c0,0-2.4-12.3-2.9-17.9c-0.7-7.6-1.8-12.5-1.5-14.1c0.3-1.4,8.6-5.5,11.2-7.7
				l-17.3,5.8c0.3,1.9,0.5,3.8,0.5,5.7c-0.2,6-0.5,18.9-0.5,18.9s-2.4,1.7-4.4,0c0,0-4.4-25.7-3.8-29c0.5-3.2,15.7-9.8,18.4-12.1
				c0.9-0.8,2.2-1.1,3.4-0.9L326.7,94.4z"/>
			<g id="_Группа_5">
				<g id="_Группа_6">
					<path id="_Контур_44" class="st20" d="M285.2,98.7l11.6-6.7c0.2-0.1,0.5-0.1,0.7,0l20.4,11.8l-11.9,6.9L285.2,98.7z"/>
					<path class="st24" d="M306.5,108.2l0.9,0.5c0.1,0,0.1,0.1,0,0.2l-0.9,0.5c-0.1,0.1-0.2,0.1-0.3,0l-0.9-0.5
						c-0.1,0-0.1-0.1,0-0.2l0.8-0.5C306.3,108.1,306.4,108.1,306.5,108.2z"/>
					<path class="st24" d="M305.2,107.4l0.9,0.5c0.1,0,0.1,0.1,0,0.2l-0.8,0.5c-0.1,0-0.2,0-0.3,0l-0.9-0.5c-0.1,0-0.1-0.1,0-0.2
						l0.9-0.5C305,107.4,305.1,107.4,305.2,107.4z"/>
					<path class="st24" d="M304,106.7l0.9,0.5c0.1,0,0.1,0.1,0,0.2l-0.9,0.5c-0.1,0-0.2,0-0.3,0l-0.9-0.5c-0.1,0-0.1-0.1,0-0.2
						l0.8-0.5C303.8,106.7,303.9,106.7,304,106.7z"/>
					<path class="st24" d="M302.7,106l0.9,0.5c0.1,0,0.1,0.1,0,0.2l-0.9,0.5c-0.1,0.1-0.2,0.1-0.3,0l-0.9-0.5c-0.1,0-0.1-0.1,0-0.2
						l0.8-0.5C302.5,106,302.6,106,302.7,106z"/>
					<path class="st24" d="M301.5,105.3l0.9,0.5c0.1,0,0.1,0.1,0,0.2l-0.9,0.5c-0.1,0-0.2,0-0.3,0l-0.9-0.5c-0.1,0-0.1-0.1,0-0.2
						l0.9-0.5C301.3,105.2,301.4,105.2,301.5,105.3z"/>
					<path class="st24" d="M300.2,104.6l0.9,0.5c0.1,0,0.1,0.1,0,0.2l-0.8,0.5c-0.1,0-0.2,0-0.3,0l-0.9-0.5c-0.1,0-0.1-0.1,0-0.2
						l0.9-0.5C300,104.5,300.1,104.5,300.2,104.6z"/>
					<path class="st24" d="M299,103.8l0.9,0.5c0.1,0,0.1,0.1,0,0.2L299,105c-0.1,0-0.2,0-0.3,0l-0.9-0.5c-0.1,0-0.1-0.1,0-0.2
						l0.8-0.5C298.8,103.8,298.9,103.8,299,103.8z"/>
					<path class="st24" d="M297.7,103.1l0.9,0.5c0.1,0,0.1,0.1,0,0.2l-0.9,0.5c-0.1,0-0.2,0-0.3,0l-0.9-0.5c-0.1,0-0.1-0.1,0-0.2
						l0.8-0.5C297.5,103.1,297.6,103.1,297.7,103.1z"/>
					<path class="st24" d="M296.5,102.4l0.9,0.5c0.1,0,0.1,0.1,0,0.2l-0.8,0.5c-0.1,0-0.2,0-0.3,0l-0.9-0.5c-0.1,0-0.1-0.1,0-0.2
						l0.9-0.5C296.3,102.3,296.4,102.3,296.5,102.4z"/>
					<path class="st24" d="M295.2,101.7l0.9,0.5c0.1,0,0.1,0.1,0,0.2l-0.8,0.5c-0.1,0.1-0.2,0.1-0.3,0l-0.9-0.5
						c-0.1,0-0.1-0.1,0-0.2l0.9-0.5C295,101.6,295.1,101.6,295.2,101.7z"/>
					<path class="st24" d="M293.9,100.9l0.9,0.5c0.1,0,0.1,0.1,0,0.2l-0.9,0.5c-0.1,0-0.2,0-0.3,0l-0.9-0.5c-0.1,0-0.1-0.1,0-0.2
						l0.8-0.5C293.7,100.9,293.9,100.9,293.9,100.9z"/>
					<path class="st24" d="M292.7,100.2l0.9,0.5c0.1,0,0.1,0.1,0,0.2l-0.9,0.5c-0.1,0-0.2,0-0.3,0l-0.9-0.5c-0.1,0-0.1-0.1,0-0.2
						l0.8-0.5C292.5,100.2,292.6,100.2,292.7,100.2z"/>
					<path class="st24" d="M291.4,99.5l0.9,0.5c0.1,0,0.1,0.1,0,0.2l-0.8,0.5c-0.1,0.1-0.2,0.1-0.3,0l-0.9-0.5c-0.1,0-0.1-0.1,0-0.2
						l0.9-0.5C291.2,99.4,291.4,99.4,291.4,99.5z"/>
					<path class="st24" d="M289.6,98.4l1.5,0.9c0.1,0,0.1,0.1,0,0.2l-0.8,0.5c-0.1,0-0.2,0-0.3,0l-1.5-0.9c-0.1,0-0.1-0.1,0-0.2
						l0.8-0.5C289.4,98.4,289.5,98.4,289.6,98.4z"/>
					<path class="st24" d="M305.8,106.4l0.9,0.5c0.1,0,0.1,0.1,0,0.2l-0.8,0.5c-0.1,0-0.2,0-0.3,0l-0.9-0.5c-0.1,0-0.1-0.1,0-0.2
						l0.9-0.5C305.6,106.4,305.7,106.4,305.8,106.4z"/>
					<path class="st24" d="M304.6,105.7l0.9,0.5c0.1,0,0.1,0.1,0,0.2l-0.9,0.5c-0.1,0-0.2,0-0.3,0l-0.9-0.5c-0.1,0-0.1-0.1,0-0.2
						l0.8-0.5C304.4,105.6,304.5,105.6,304.6,105.7z"/>
					<path class="st24" d="M303.3,105l0.9,0.5c0.1,0,0.1,0.1,0,0.2l-0.8,0.5c-0.1,0-0.2,0-0.3,0l-0.9-0.5c-0.1,0-0.1-0.1,0-0.2
						l0.8-0.5C303.1,104.9,303.2,104.9,303.3,105z"/>
					<path class="st24" d="M302.1,104.2l0.9,0.5c0.1,0,0.1,0.1,0,0.2l-0.9,0.5c-0.1,0-0.2,0-0.3,0l-0.9-0.5c-0.1,0-0.1-0.1,0-0.2
						l0.8-0.5C301.9,104.2,302,104.2,302.1,104.2z"/>
					<path class="st24" d="M300.8,103.5l0.9,0.5c0.1,0,0.1,0.1,0,0.2l-0.8,0.5c-0.1,0-0.2,0-0.3,0l-0.9-0.5c-0.1,0-0.1-0.1,0-0.2
						l0.9-0.5C300.6,103.5,300.7,103.5,300.8,103.5z"/>
					<path class="st24" d="M299.6,102.8l0.9,0.5c0.1,0,0.1,0.1,0,0.2l-0.9,0.5c-0.1,0-0.2,0-0.3,0l-0.9-0.5c-0.1,0-0.1-0.1,0-0.2
						l0.8-0.5C299.4,102.7,299.5,102.7,299.6,102.8z"/>
					<path class="st24" d="M298.3,102.1l0.9,0.5c0.1,0,0.1,0.1,0,0.2l-0.8,0.5c-0.1,0-0.2,0-0.3,0l-0.9-0.5c-0.1,0-0.1-0.1,0-0.2
						l0.9-0.5C298.1,102,298.2,102,298.3,102.1z"/>
					<path class="st24" d="M297,101.3l0.9,0.5c0.1,0,0.1,0.1,0,0.2l-0.9,0.5c-0.1,0.1-0.2,0.1-0.3,0l-0.9-0.5c-0.1,0-0.1-0.1,0-0.2
						l0.8-0.5C296.9,101.3,297,101.3,297,101.3z"/>
					<path class="st24" d="M295.8,100.6l0.9,0.5c0.1,0,0.1,0.1,0,0.2l-0.8,0.5c-0.1,0-0.2,0-0.3,0l-0.9-0.5c-0.1,0-0.1-0.1,0-0.2
						l0.9-0.5C295.6,100.6,295.7,100.6,295.8,100.6z"/>
					<path class="st24" d="M294.5,99.9l0.9,0.5c0.1,0,0.1,0.1,0,0.2l-0.9,0.5c-0.1,0.1-0.2,0.1-0.3,0l-0.9-0.5c-0.1,0-0.1-0.1,0-0.2
						l0.8-0.5C294.3,99.8,294.5,99.8,294.5,99.9z"/>
					<path class="st24" d="M293.3,99.2l0.9,0.5c0.1,0,0.1,0.1,0,0.2l-0.8,0.5c-0.1,0-0.2,0-0.3,0l-0.9-0.5c-0.1,0-0.1-0.1,0-0.2
						l0.9-0.5C293.1,99.1,293.2,99.1,293.3,99.2z"/>
					<path class="st24" d="M292,98.4l0.9,0.5c0.1,0,0.1,0.1,0,0.2l-0.9,0.5c-0.1,0-0.2,0-0.3,0l-0.9-0.5c-0.1,0-0.1-0.1,0-0.2
						l0.8-0.5C291.8,98.4,291.9,98.4,292,98.4z"/>
					<path class="st24" d="M307.1,107.1l1.5,0.9c0.1,0,0.1,0.1,0,0.2l-0.8,0.5c-0.1,0-0.2,0-0.3,0l-1.5-0.9c-0.1,0-0.1-0.1,0-0.2
						l0.8-0.5C306.9,107.1,307,107.1,307.1,107.1z"/>
					<path class="st24" d="M289.6,98.4l0.9,0.5c0.1,0.1,0.2,0.1,0.3,0l0.9-0.5c0.1,0,0.1-0.1,0-0.2h-0.1c0,0-0.1-0.1,0-0.1
						c0,0,0,0,0,0l1-0.6c0,0,0.1-0.1,0-0.1c0,0,0,0,0,0L292,97c-0.1,0-0.2,0-0.3,0l-0.9,0.5l-0.2,0.1l-0.1,0.1l-0.1,0.1l-0.8,0.4
						C289.6,98.2,289.6,98.2,289.6,98.4C289.6,98.3,289.6,98.4,289.6,98.4z"/>
					<path class="st24" d="M311.3,105.4l0.9,0.5c0.1,0,0.1,0.1,0,0.2l-0.9,0.5c-0.1,0-0.2,0-0.3,0l-0.9-0.5c-0.1,0-0.1-0.1,0-0.2
						l0.8-0.5C311.1,105.3,311.2,105.3,311.3,105.4z"/>
					<path class="st24" d="M310.1,104.6l0.9,0.5c0.1,0,0.1,0.1,0,0.2l-0.8,0.5c-0.1,0-0.2,0-0.3,0l-0.9-0.5c-0.1,0-0.1-0.1,0-0.2
						l0.8-0.5C309.9,104.6,310,104.6,310.1,104.6z"/>
					<path class="st24" d="M308.8,103.9l0.9,0.5c0.1,0,0.1,0.1,0,0.2l-0.8,0.5c-0.1,0-0.2,0-0.3,0l-0.9-0.5c-0.1,0-0.1-0.1,0-0.2
						l0.8-0.5C308.6,103.9,308.7,103.9,308.8,103.9z"/>
					<path class="st24" d="M298.2,97.8l0.9,0.5c0.1,0,0.1,0.1,0,0.2l-0.8,0.5c-0.1,0-0.2,0-0.3,0l-0.9-0.5c-0.1,0-0.1-0.1,0-0.2
						l0.9-0.5C298,97.7,298.1,97.7,298.2,97.8z"/>
					<path class="st24" d="M296.9,97.1l0.9,0.5c0.1,0,0.1,0.1,0,0.2l-0.8,0.5c-0.1,0-0.2,0-0.3,0l-0.9-0.5c-0.1,0-0.1-0.1,0-0.2
						l0.9-0.5C296.7,97,296.9,97,296.9,97.1z"/>
					<path class="st24" d="M295.7,96.3l0.9,0.5c0.1,0,0.1,0.1,0,0.2l-0.8,0.5c-0.1,0-0.2,0-0.3,0l-0.9-0.5c-0.1,0-0.1-0.1,0-0.2
						l0.9-0.5C295.5,96.3,295.6,96.3,295.7,96.3z"/>
					<path class="st24" d="M294.4,95.6l0.9,0.5c0.1,0,0.1,0.1,0,0.2l-0.8,0.5c-0.1,0-0.2,0-0.3,0l-0.9-0.5c-0.1,0-0.1-0.1,0-0.2
						l0.9-0.5C294.2,95.6,294.4,95.6,294.4,95.6z"/>
					<path class="st24" d="M307.2,103l1.2,0.7c0.1,0,0.1,0.1,0,0.2l-0.8,0.5c-0.1,0-0.2,0-0.3,0l-1.2-0.7c-0.1-0.1-0.1-0.1,0-0.2
						l0.9-0.5C307.1,103,307.2,103,307.2,103z"/>
					<path class="st24" d="M299.4,98.5l1.2,0.7c0.1,0,0.1,0.1,0,0.2l-0.8,0.5c-0.1,0-0.2,0-0.3,0l-1.2-0.7c-0.1,0-0.1-0.1,0-0.2
						l0.8-0.5C299.2,98.5,299.3,98.5,299.4,98.5z"/>
					<path class="st24" d="M301,99.4l5.9,3.4c0.1,0,0.1,0.1,0,0.2l-0.8,0.5c-0.1,0-0.2,0-0.3,0l-5.9-3.4c-0.1,0-0.1-0.1,0-0.2
						l0.9-0.5C300.8,99.4,300.9,99.4,301,99.4z"/>
					<path class="st24" d="M306.7,105.5l0.9,0.5c0.1,0,0.1,0.1,0,0.2l-0.9,0.5c-0.1,0-0.2,0-0.3,0l-0.9-0.5c-0.1,0-0.1-0.1,0-0.2
						l0.8-0.5C306.5,105.5,306.6,105.5,306.7,105.5z"/>
					<path class="st24" d="M305.5,104.8l0.9,0.5c0.1,0,0.1,0.1,0,0.2l-0.8,0.5c-0.1,0-0.2,0-0.3,0l-0.9-0.5c-0.1,0-0.1-0.1,0-0.2
						l0.9-0.5C305.3,104.7,305.4,104.7,305.5,104.8z"/>
					<path class="st24" d="M304.2,104.1l0.9,0.5c0.1,0,0.1,0.1,0,0.2l-0.8,0.5c-0.1,0-0.2,0-0.3,0l-0.9-0.5c-0.1,0-0.1-0.1,0-0.2
						l0.9-0.5C304,104,304.1,104,304.2,104.1z"/>
					<path class="st24" d="M303,103.3l0.9,0.5c0.1,0,0.1,0.1,0,0.2l-0.8,0.5c-0.1,0.1-0.2,0.1-0.3,0l-0.9-0.5c-0.1,0-0.1-0.1,0-0.2
						l0.9-0.5C302.8,103.3,302.9,103.3,303,103.3z"/>
					<path class="st24" d="M301.7,102.6l0.9,0.5c0.1,0,0.1,0.1,0,0.2l-0.8,0.5c-0.1,0-0.2,0-0.3,0l-0.9-0.5c-0.1,0-0.1-0.1,0-0.2
						l0.8-0.5C301.5,102.6,301.6,102.6,301.7,102.6z"/>
					<path class="st24" d="M300.4,101.9l0.9,0.5c0.1,0,0.1,0.1,0,0.2l-0.9,0.5c-0.1,0-0.2,0-0.3,0l-0.9-0.5c-0.1,0-0.1-0.1,0-0.2
						l0.8-0.5C300.2,101.8,300.4,101.8,300.4,101.9z"/>
					<path class="st24" d="M299.2,101.2l0.9,0.5c0.1,0,0.1,0.1,0,0.2l-0.9,0.5c-0.1,0-0.2,0-0.3,0l-0.9-0.5c-0.1,0-0.1-0.1,0-0.2
						l0.8-0.5C299,101.1,299.1,101.1,299.2,101.2z"/>
					<path class="st24" d="M297.9,100.4l0.9,0.5c0.1,0,0.1,0.1,0,0.2l-0.9,0.5c-0.1,0.1-0.2,0.1-0.3,0l-0.9-0.5
						c-0.1,0-0.1-0.1,0-0.2l0.8-0.5C297.7,100.4,297.9,100.4,297.9,100.4z"/>
					<path class="st24" d="M296.7,99.7l0.9,0.5c0.1,0,0.1,0.1,0,0.2l-0.9,0.5c-0.1,0-0.2,0-0.3,0l-0.9-0.5c-0.1,0-0.1-0.1,0-0.2
						l0.9-0.5C296.5,99.7,296.6,99.7,296.7,99.7z"/>
					<path class="st24" d="M295.4,99l0.9,0.5c0.1,0,0.1,0.1,0,0.2l-0.8,0.5c-0.1,0-0.2,0-0.3,0l-0.9-0.5c-0.1,0-0.1-0.1,0-0.2
						l0.9-0.5C295.2,98.9,295.4,98.9,295.4,99z"/>
					<path class="st24" d="M294.2,98.3l0.9,0.5c0.1,0,0.1,0.1,0,0.2l-0.8,0.5c-0.1,0-0.2,0-0.3,0l-0.9-0.5c-0.1,0-0.1-0.1,0-0.2
						l0.9-0.5C294,98.2,294.1,98.2,294.2,98.3z"/>
					<path class="st24" d="M292.9,97.6l0.9,0.5c0.1,0,0.1,0.1,0,0.2l-0.8,0.5c-0.1,0-0.2,0-0.3,0l-0.9-0.5c-0.1,0-0.1-0.1,0-0.2
						l0.8-0.5C292.7,97.5,292.8,97.5,292.9,97.6z"/>
					<path class="st24" d="M308,106.2l1.8,1.1c0.1,0,0.1,0.1,0,0.2l-0.8,0.5c-0.1,0-0.2,0-0.3,0l-1.8-1.1c-0.1,0-0.1-0.1,0-0.2
						l0.8-0.5C307.8,106.2,307.9,106.2,308,106.2z"/>
					<path class="st24" d="M308.5,105.2l0.9,0.5c0.1,0,0.1,0.1,0,0.2l-0.8,0.5c-0.1,0-0.2,0-0.3,0l-0.9-0.5c-0.1,0-0.1-0.1,0-0.2
						l0.9-0.5C308.3,105.1,308.5,105.1,308.5,105.2z"/>
					<path class="st24" d="M307.3,104.4l0.9,0.5c0.1,0,0.1,0.1,0,0.2l-0.8,0.5c-0.1,0-0.2,0-0.3,0l-0.9-0.5c-0.1,0-0.1-0.1,0-0.2
						l0.8-0.5C307.1,104.4,307.2,104.4,307.3,104.4z"/>
					<path class="st24" d="M306,103.7l0.9,0.5c0.1,0,0.1,0.1,0,0.2l-0.9,0.5c-0.1,0.1-0.2,0.1-0.3,0l-0.9-0.5c-0.1,0-0.1-0.1,0-0.2
						l0.8-0.5C305.8,103.7,305.9,103.7,306,103.7z"/>
					<path class="st24" d="M304.8,103l0.9,0.5c0.1,0,0.1,0.1,0,0.2l-0.9,0.5c-0.1,0-0.2,0-0.3,0l-0.9-0.5c-0.1,0-0.1-0.1,0-0.2
						l0.8-0.5C304.6,103,304.7,103,304.8,103z"/>
					<path class="st24" d="M303.5,102.3l0.9,0.5c0.1,0,0.1,0.1,0,0.2l-0.9,0.5c-0.1,0-0.2,0-0.3,0l-0.9-0.5c-0.1,0-0.1-0.1,0-0.2
						l0.8-0.5C303.3,102.2,303.4,102.2,303.5,102.3z"/>
					<path class="st24" d="M302.3,101.5l0.9,0.5c0.1,0,0.1,0.1,0,0.2l-0.9,0.5c-0.1,0-0.2,0-0.3,0l-0.9-0.5c-0.1,0-0.1-0.1,0-0.2
						l0.9-0.5C302.1,101.5,302.2,101.5,302.3,101.5z"/>
					<path class="st24" d="M301,100.8l0.9,0.5c0.1,0,0.1,0.1,0,0.2L301,102c-0.1,0-0.2,0-0.3,0l-0.9-0.5c-0.1,0-0.1-0.1,0-0.2
						l0.9-0.5C300.8,100.8,300.9,100.8,301,100.8z"/>
					<path class="st24" d="M299.8,100.1l0.9,0.5c0.1,0,0.1,0.1,0,0.2l-0.8,0.5c-0.1,0-0.2,0-0.3,0l-0.9-0.5c-0.1,0-0.1-0.1,0-0.2
						l0.9-0.5C299.6,100.1,299.7,100.1,299.8,100.1z"/>
					<path class="st24" d="M298.5,99.4l0.9,0.5c0.1,0,0.1,0.1,0,0.2l-0.8,0.5c-0.1,0-0.2,0-0.3,0l-0.9-0.5c-0.1,0-0.1-0.1,0-0.2
						l0.9-0.5C298.3,99.3,298.4,99.3,298.5,99.4z"/>
					<path class="st24" d="M297.3,98.7l0.9,0.5c0.1,0,0.1,0.1,0,0.2l-0.8,0.5c-0.1,0-0.2,0-0.3,0l-0.9-0.5c-0.1,0-0.1-0.1,0-0.2
						l0.8-0.5C297.1,98.6,297.2,98.6,297.3,98.7z"/>
					<path class="st24" d="M296,97.9l0.9,0.5c0.1,0,0.1,0.1,0,0.2l-0.8,0.5c-0.1,0-0.2,0-0.3,0l-0.9-0.5c-0.1,0-0.1-0.1,0-0.2
						l0.8-0.5C295.8,97.9,295.9,97.9,296,97.9z"/>
					<path class="st24" d="M293.2,96.3l2.4,1.4c0.1,0,0.1,0.1,0,0.2l-0.9,0.5c-0.1,0.1-0.2,0.1-0.3,0l-2.5-1.4c-0.1,0-0.1-0.1,0-0.2
						l0.8-0.5C293,96.3,293.1,96.3,293.2,96.3z"/>
					<path class="st24" d="M309.8,105.9l1.2,0.7c0.1,0,0.1,0.1,0,0.2l-0.8,0.5c-0.1,0-0.2,0-0.3,0l-1.2-0.7c-0.1,0-0.1-0.1,0-0.2
						l0.9-0.5C309.6,105.8,309.7,105.8,309.8,105.9z"/>
					<path class="st24" d="M288.3,99.2l17.8,10.2c0.1,0,0.1,0.1,0,0.2l-0.4,0.2c-0.1,0-0.2,0-0.3,0l-17.8-10.2c-0.1,0-0.1-0.1,0-0.2
						l0.4-0.2C288.1,99.1,288.2,99.1,288.3,99.2z"/>
					<polygon id="_Контур_45" class="st25" points="309.1,99.6 309,99.7 305.9,101.4 300.5,98.3 300.4,98.2 303.5,96.4 					
						"/>
					<polygon id="_Контур_46" class="st26" points="309,99.7 305.9,101.4 300.5,98.3 303.5,96.5 					"/>
					<path id="_Контур_47" class="st26" d="M317.9,103.7v0.3c0,0.4-0.2,0.8-0.5,1l-10.8,6.2c-0.2,0.1-0.4,0.2-0.6,0.2
						c-0.2,0-0.4-0.1-0.6-0.2l-19.6-11.3c-0.4-0.2-0.6-0.6-0.6-1v-0.3l20.7,12L317.9,103.7z"/>
					<path id="_Контур_48" class="st20" d="M305.6,110.8c-0.4,0.1-0.8,0.1-1.1-0.1L285,99.5c-0.3-0.2-0.6-0.5-0.6-0.9
						l-2.1-12.7c0-0.1,0-0.1,0-0.2c0-0.4,0.1-0.7,0.4-0.9l20.3,11.7c0.3,0.1,0.4,0.4,0.5,0.7L305.6,110.8z"/>
					<path id="_Контур_49" class="st26" d="M305.9,110.6l-0.1,0.1c-0.1,0-0.1,0.1-0.2,0.1L303.3,97c-0.1-0.3-0.2-0.5-0.5-0.7
						l-20.3-11.7c0.1-0.1,0.2-0.1,0.3-0.2l20.3,11.7c0.2,0.1,0.4,0.4,0.5,0.7L305.9,110.6z"/>
				</g>
			</g>
			<path id="_Контур_50" class="st19" d="M320.6,56.2c0,0-0.2,4.8-0.1,5.3s2.2,1.8,2.8,2.3c0.6,0.5-3.4,4.4-5.3,5.3
				s-8-1.4-8.1-4.4s1-5.5,2-5.7S320.6,56.2,320.6,56.2z"/>
			<path id="_Контур_51" class="st20" d="M321.2,62.3c0,0-3.5,5.2-8.4,5.7c-1.5-1.5-1.7-7,0.5-8.7c0,0-2-1.6-3.3-1.3
				c-1.4,0.9-2.5,2.3-3,3.9c-1.3,3.6-1.8,7.4-1.7,11.2c0.1,5.1,0,18.1,0,18.1c0.6,3.1,2.5,5.8,5.2,7.4c3.5,2,7.7,2.6,11.7,1.6
				c2.5-0.6,3.4-2,4.3-3.8c-0.2-3.6-1.6-11-1-15.6s1.6-7.9,1.8-11.6s-0.5-3.6-2.3-4.9C323.6,63.7,322.4,62.9,321.2,62.3z"/>
			<path id="_Контур_52" class="st19" d="M315.5,104c0.9-0.6,1.8-1.1,2.8-1.6c0.9-0.3,1.7-0.8,2.4-1.4c0.9-0.8,2.3-4,3.3-7.2
				c1-3.5,1.4-7.2,1.2-10.8c-0.4-4.4-2-10.5-2.4-13s0.4-3.5,1.6-4.4c1.4-1.1,3.3-0.6,4.3,2.9c1.3,4.9,2.1,9.9,2.3,14.9
				c0,3.7-0.5,7.5-1.7,11c-1,3-2.5,5.9-4.2,8.7c-0.5,0.8-0.6,1.5-1.4,3.2c-0.7,1.7-1.8,3.1-3.2,4.3c-1.2,0.9-1.8,1-2.1,0.8
				s-0.3-0.6,0.2-1.1c0.9-0.7,1.6-1.5,2.2-2.5c0,0-1.1,1.1-1.8,1.7c-0.6,0.5-1.3,1-2.1,1.3c-0.7,0.3-1.7-0.3-1.2-0.8s1-0.7,2.1-1.6
				c0.5-0.5,1-1,1.5-1.6c-0.7,0.6-1.5,1-2.3,1.5c-0.6,0.4-1.3,0.6-2.1,0.6c-0.4,0-0.8-0.5-0.1-1.1c1-0.5,1.9-1.1,2.7-1.9
				c0.8-0.8,1.2-1.4,1-1.5s-0.6,0.5-1.6,0.8s-1.9,0-2-0.5S314.7,104.4,315.5,104z"/>
			<path id="_Контур_53" class="st19" d="M309.7,48.9L309.7,48.9c0.6-3.8,3.3-6.6,7.2-6.4c4.1,0.2,7.3,3.7,7.1,7.8
				c-0.1,2.3-1.3,4.5-3.3,5.8c-0.1,0.6-0.3,1.1-0.6,1.7c-1.4,1.6-5.5,2.6-6.7,2.4c-1.5-0.1-2.7-1.1-3.1-2.5
				C309,54.8,309.4,50.8,309.7,48.9z"/>
			<path class="st24" d="M320.6,56.2L320.6,56.2l-0.4-3.3c0,0,2.7-6.9-3.6-5.6c-4.2,0.9-5.2,1.3-6.5-1.5s3.2-5.3,8.5-4.6
				c3.8,0.4,6.7,3.6,6.6,7.5C325.1,50.6,324.6,54.8,320.6,56.2z"/>
			<path class="st23" d="M331.5,75c0,0-3.5,3.4-7.5,2.4c-0.6-0.4-2-8.4-2-8.4s0-4.4,3.4-4.3S331.5,75,331.5,75z"/>
			<path class="st23" d="M305.4,68.3c-1,0-1.9-0.5-2.5-1.2c0.1-1.8,2.4-8.6,7.1-9.1c-1.3,0.9-2.3,2.1-2.9,3.5
				C306.3,63.8,305.8,66,305.4,68.3z"/>
		</g>
		<path class="st0" d="M425.1,388.3c-1.6-1.4-3.3-2.7-5.1-3.7c-13.9-8-36.4-8-50.2,0c-2.1,1.2-4.1,2.7-5.8,4.4
			c-7.6,7.8-5.7,17.9,5.8,24.5c13.8,8,36.4,8,50.2,0C431.8,406.7,433.5,396.2,425.1,388.3z M415.5,411c-11.4,6.6-30,6.6-41.4,0
			c-8-4.6-10.4-11.3-7.2-17.1c1.7-2.9,4.2-5.2,7.2-6.8c11.4-6.6,30-6.6,41.4,0c3,1.6,5.4,3.9,7.1,6.8l0,0
			C425.9,399.8,423.5,406.4,415.5,411z"/>
		<path class="st29" d="M422.7,393.9L422.7,393.9c-1.7-2.9-4.2-5.2-7.1-6.8c-11.4-6.6-30-6.6-41.4,0c-3,1.6-5.4,3.9-7.2,6.8
			l-3.1-4.9l-0.6-0.9l4-9.5l13.9-7.7l25.9,0.5l17.6,10.4c0,0,0.3,3.3,0.4,6.6C425.1,392.4,424.7,396.3,422.7,393.9z"/>
		<polygon class="st0" points="359.4,399 359.4,388.1 364.8,397.3 		"/>
		<polygon class="st0" points="430.3,399 430.3,388.2 425.6,393.6 		"/>
		<ellipse class="st30" cx="395.2" cy="393.6" rx="29.5" ry="17"/>
		<path class="st0" d="M362.1,400.8c0,0,4.5,17.9,38.5,17c23.5,0,26.6-20.2,26-23.1c-4.9,6.7-12.5,11-20.8,11.6
			c-14.3,1.2-24.9,1.1-30.6-1.6s-13.1-9.9-13.1-9.9L362.1,400.8z"/>
		<path class="st2" d="M369.8,403.2c-13.8-8-13.8-21,0-29s36.4-8,50.2,0s13.8,21,0,29S383.6,411.2,369.8,403.2z M415.5,376.8
			c-11.4-6.6-30-6.6-41.4,0s-11.4,17.3,0,23.9s30,6.6,41.4,0S427,383.4,415.5,376.8z"/>
		<ellipse transform="matrix(0.866 -0.5 0.5 0.866 -176.6344 218.5838)" class="st16" cx="319.6" cy="438.9" rx="3.9" ry="6.8"/>
		<polygon class="st0" points="373.4,407.8 358.5,416.4 353.8,413.7 368.8,405.1 		"/>
		<polygon class="st29" points="373.4,413.1 358.5,421.7 358.5,416.4 373.4,407.8 		"/>
		<path class="st9" d="M361.5,420.2c-0.2-3.4-2-6.4-4.8-8.3c-1-0.7-2.2-0.8-3.3-0.4l0,0L316.2,433l6.8,11.6l36.7-21.2
			C360.8,423,361.5,421.9,361.5,420.2z"/>
		<ellipse transform="matrix(0.866 -0.5 0.5 0.866 -176.6344 218.5838)" class="st9" cx="319.6" cy="438.9" rx="3.9" ry="6.8"/>
		<g id="Men_1">
			<ellipse class="st5" cx="423.9" cy="486.8" rx="22.7" ry="13.1"/>
			<path id="_Контур_54" class="st19" d="M439.9,392.7c0.2,2.1,2.8,11.2,2.2,14.3s-9.1,8.3-9.1,8.3l-1.2-5.3l4.8-4.7l-1.3-8.8
				L439.9,392.7z"/>
			<path id="_Контур_55" class="st23" d="M433.2,383.8c1.7-0.8,3.8-0.2,4.8,1.5c1.3,2.1,2.6,9.3,2.7,10.5c0,0-1.8,2.5-4.4,2
				L433.2,383.8z"/>
			<path class="st18" d="M423.4,485.2c-1.9,0.5-3.9,0.3-5.6-0.7c-1.3,0-8.6-3.1-9.6-0.5c-0.9,2.3,2.3,4.4,4,4.8
				c3.7,0.9,6.4,2.7,7.9,3c1.1,0.2,2.5,0.4,3.4-0.5C424.5,490.4,424.4,486.6,423.4,485.2z"/>
			<path class="st21" d="M420,491.3c-1.5-0.3-4.2-2.1-7.9-3c-1.4-0.3-3.8-1.9-4.1-3.7c-0.3,2.1,2.5,4,4.1,4.4c3.7,0.9,6.4,2.7,7.9,3
				c1.1,0.2,2.5,0.4,3.4-0.5c0.2-0.3,0.4-0.6,0.5-0.9C422.8,491.4,421.4,491.7,420,491.3z"/>
			<path class="st18" d="M435.2,479.9c-1.9,0.5-3.9,0.3-5.6-0.7c-1.3,0-8.6-3.1-9.6-0.5c-0.9,2.3,2.3,4.4,4,4.8
				c3.7,0.9,6.4,2.7,7.9,3c1.1,0.2,2.5,0.4,3.4-0.5C436.3,485.1,436.2,481.3,435.2,479.9z"/>
			<path class="st21" d="M431.9,486c-1.5-0.3-4.2-2.1-7.9-3c-1.4-0.3-3.8-1.9-4.1-3.7c-0.3,2.1,2.5,4,4.1,4.4c3.7,0.9,6.4,2.7,7.9,3
				c1.1,0.2,2.5,0.4,3.4-0.5c0.2-0.3,0.4-0.6,0.5-0.9C434.6,486.1,433.2,486.4,431.9,486z"/>
			<path id="_Контур_56" class="st22" d="M435.3,460.1c-0.3-2.7-0.9-5.4-1.7-8c0,0,0.5-6.9,0.8-13.4
				c0.3-7.4,2.9-13.9,0.8-19.8l-22.8,5.1c0,0,1.4,29.5,1.7,33.1c0.2,2.8,0.5,5.5,1,8.3c1,5.7,2.7,19.4,2.7,19.4
				c1.7,0.8,3.7,1,5.6,0.6c0,0-0.2-17.2-0.3-21.4c-0.2-5-0.3-4.6-0.3-4.6l0.8-12.5l0.5-6.2c0,0,0.6,4.6,1,8.7
				c0.4,3.6,1.2,6.8,2.2,13.4c0.8,5.8,2.2,17.3,2.2,17.3c2.4,1.4,5.7,0.2,5.7,0.2S436,465.1,435.3,460.1z"/>
			<path id="_Контур_57" class="st19" d="M432,383.9c-1.7,0.1-3,0.5-3.2,0c-0.2-0.9-0.3-1.8-0.4-2.7c0.2-0.5,0.4-1,0.4-1
				c2.2-1.3,2.9-3.7,3.2-6.5c0.5-4.7-2-8.8-6.8-9.3c-4.4-0.5-7.7,2.6-8.5,6.9c-0.5,2.1-1.4,6.1-0.1,9.5c0.7,1.9,1.6,3.5,2.5,3.8
				c0.9,0,1.7-0.1,2.6-0.2l0,0c0,0,0.2,1.3,0.4,2.1s0.1,1.3-1.6,2.3s2.5,3.1,5.3,2.9s5.8-1.9,6.7-3.6
				C433.3,386.1,433.2,383.8,432,383.9z"/>
			<path id="_Контур_58" class="st20" d="M429.5,384.1c0.5,1.2-0.8,2.7-4,3.7s-3.6-0.3-3.6-0.3c-2.2,1-4.3,2.1-6.4,3.3
				c-2,1.4-2.8,5.3-3.1,12c-0.3,7.7-0.3,19.2-0.1,21.2c0,0,3.7,3.6,8.4,3.3s12.6-4.5,14.5-7.7c0-6.8-0.9-7.9,0.2-11.8
				c2.5-9,3.8-12.6,2.6-18.6c-1-4.9-2.4-5.5-4.4-5.5C432.3,383.8,430.9,383.9,429.5,384.1z"/>
			<path id="_Контур_59" class="st19" d="M405.1,409.2c3.9,1,4.8-1.5,5.3-3.5c1.2-4.9,1.9-9.2,2.8-12c1.1-3.3,2.2-3.8,3.8-4.4
				c1.9-0.8,3.5,0.8,2.8,5c-0.8,4.8-1.9,9.5-3.5,14.1c-0.5,1.5-1.5,4.2-3.2,5.5c-2,1.6-5,1.5-9.5,0.4c-1.9-0.5-4-1.6-7.7-3.3
				c-1-0.5-1.7-0.8-3.6-1.6c-1.9-0.9-3.5-2.1-4.8-3.8c-1-1.4-1.1-2.1-0.9-2.4s0.7-0.3,1.2,0.3c0.8,1,1.7,1.9,2.8,2.6
				c0,0-1.2-1.3-1.9-2.1c-0.6-0.7-1.1-1.5-1.5-2.4c-0.4-0.8,0.4-2,0.9-1.4s0.8,1.2,1.8,2.4c0.5,0.6,1.1,1.2,1.8,1.7
				c-0.6-0.8-1.2-1.7-1.6-2.6c-0.4-0.7-0.6-1.6-0.6-2.4c0-0.4,0.6-1,1.2-0.1c0.6,1.1,1.3,2.2,2.1,3.1c0.9,0.9,1.6,1.4,1.6,1.2
				s-0.5-0.8-0.8-1.8s0-2.2,0.6-2.3s0.5-0.1,0.9,0.9c0.6,1,1.2,2.1,1.8,3.2c0.3,1,0.8,2,1.6,2.7
				C399.4,407.2,401.5,408.3,405.1,409.2z"/>
			<path id="_Контур_60" class="st23" d="M418.4,388.7c-2.6-0.4-4.4,0.8-5.5,4.7s-1.9,7.1-1.9,7.1c1,1.5,2.6,2.5,4.3,2.9
				c3.1,0.7,4.2-0.7,4.2-0.7s0.9-4.1,1.4-6.9S421.5,389.2,418.4,388.7z"/>
			<path class="st18" d="M416.8,370.7c0,0-4-6.2,4.7-7.4c6.3-0.9,10.4,3.2,10.9,7.6c0.5,4.2-2.1,8.6-4,10.4
				c-1.8,0.5-3.8,0.2-5.5-0.7c-0.1-1.1-0.1-2.3-0.1-3.5C422.8,377.1,425.8,370.6,416.8,370.7z"/>
		</g>
	</g>
</g>
</svg>
