<svg xmlns="http://www.w3.org/2000/svg" viewBox="0 0 400 300" width="406" height="306" class="illustration styles_illustrationTablet__1DWOa"><g id="_78_team_presentation" data-name="#78_team_presentation"><path d="M360,173.44H193.56a.5.5,0,0,1-.5-.5V57.55a.5.5,0,0,1,.5-.5H360a.5.5,0,0,1,.5.5V172.94A.5.5,0,0,1,360,173.44Zm-165.91-1H359.47V58.05H194.06Z" fill="#d1d3d4"></path><path d="M362.81,178.12H190.73a.5.5,0,0,1-.5-.5v-4.68a.5.5,0,0,1,.5-.5H362.81a.51.51,0,0,1,.5.5v4.68A.5.5,0,0,1,362.81,178.12Zm-171.58-1H362.31v-3.68H191.23Z" fill="#d1d3d4"></path><path d="M368.24,215.44H31.76a.51.51,0,0,1-.5-.5.5.5,0,0,1,.5-.5H368.24a.5.5,0,0,1,.5.5A.51.51,0,0,1,368.24,215.44Z" fill="#d1d3d4"></path><path d="M127.33,228.57H92.62a.47.47,0,0,1-.46-.46v-6.53a.46.46,0,0,1,.46-.45h34.71a.45.45,0,0,1,.45.45v6.53A.46.46,0,0,1,127.33,228.57Zm-34.25-.92h33.79V222H93.08Z" fill="#231f20"></path><path d="M75.58,182.12S63,110.17,67.65,104.38s62.37-5.62,66.5,0,.89,70.38.89,70.38Z" fill="#fff"></path><path d="M75.58,182.58a.46.46,0,0,1-.45-.38c-.52-2.95-12.53-72.23-7.84-78.1,3-3.77,24.83-4.69,38.76-4.39,6,.13,25.83.83,28.47,4.44,4.18,5.73,1.11,68,1,70.67a.45.45,0,0,1-.4.43l-59.46,7.32Zm24.94-82c-16.78,0-30.58,1.69-32.51,4.11-3.66,4.58,4.42,56.67,7.94,76.94l58.65-7.22c1.11-22.43,2.35-65.35-.82-69.7-1.54-2.11-12.69-3.74-27.75-4.07C104.17,100.58,102.32,100.56,100.52,100.56Z" fill="#231f20"></path><path d="M82.17,171.76h0a.46.46,0,0,1-.42-.49c0-.44,3.25-43.74.53-54.82-2.62-10.7-10.23-9.39-10.56-9.33a.46.46,0,0,1-.17-.9c.09,0,8.78-1.55,11.62,10,2.75,11.22-.38,53.32-.51,55.11A.46.46,0,0,1,82.17,171.76Z" fill="#231f20"></path><rect x="75.58" y="174.8" width="66.78" height="14.64" rx="7.32" fill="#fff"></rect><path d="M135,189.9H82.9a7.78,7.78,0,1,1,0-15.56H135a7.78,7.78,0,1,1,0,15.56ZM82.9,175.26a6.87,6.87,0,0,0,0,13.73H135a6.87,6.87,0,0,0,0-13.73Z" fill="#231f20"></path><path d="M97.13,221.58s.73,5.11,0,6.53c-1.84,3.6-6.15,10.38-11.88,8.92s.66-13.34.66-13.34Z" fill="#fff"></path><path d="M86.87,237.75a7.23,7.23,0,0,1-1.75-.22,3.36,3.36,0,0,1-2.36-2c-1.7-3.86,2.52-11.78,2.7-12.12a.51.51,0,0,1,.36-.26L97,221.08a.49.49,0,0,1,.39.08.52.52,0,0,1,.21.35c.08.54.73,5.32,0,6.83C95.71,232,92,237.75,86.87,237.75Zm-.61-13.59c-.66,1.28-3.91,7.91-2.55,11a2.32,2.32,0,0,0,1.67,1.37c5.48,1.4,9.72-5.59,11.29-8.66.43-.84.26-3.73,0-5.68Z" fill="#231f20"></path><path d="M162.4,94.85c.1-.19.22-.41.44-.44.43-.08.54.59.45,1l-1.09,5.11a73.76,73.76,0,0,1,6-8.88.69.69,0,0,1,.45-.32c.44,0,.44.66.26,1.06a34.15,34.15,0,0,1-4.33,7.22l4.11-5.87A6.78,6.78,0,0,1,170.21,92a2.45,2.45,0,0,1-.28,2,39.42,39.42,0,0,1-2.9,5.1,42.71,42.71,0,0,1,5.15-6.75,5,5,0,0,1-1,3.78A22.9,22.9,0,0,0,169,99.53a32.24,32.24,0,0,1,3.68-4.48,1.07,1.07,0,0,1,.83-.45.76.76,0,0,1,.58.79,2.14,2.14,0,0,1-.37,1,62.24,62.24,0,0,1-10.31,13.25c-.24.24-3.56-2.74-3.86-3.07a3.65,3.65,0,0,1-1.12-2.94C158.73,100.67,161.11,97.46,162.4,94.85Z" fill="#fff"></path><path d="M163.32,110.16h0c-.81,0-4.16-3.23-4.19-3.26a4.16,4.16,0,0,1-1.24-3.34c.26-2.22,1.61-4.57,2.8-6.64.46-.81.9-1.58,1.26-2.3a1.19,1.19,0,0,1,.81-.72.83.83,0,0,1,.76.25,1.59,1.59,0,0,1,.28,1.39l-.44,2.09a74.72,74.72,0,0,1,4.42-6.29,1.16,1.16,0,0,1,.85-.51.81.81,0,0,1,.72.36,1.32,1.32,0,0,1,.18.71l.38-.32a.52.52,0,0,1,.43-.08.53.53,0,0,1,.34.28,2,2,0,0,1,.12,1.37c.33-.37.67-.75,1-1.11a.52.52,0,0,1,.51-.15.51.51,0,0,1,.37.38,4.05,4.05,0,0,1-.09,2.12,1.33,1.33,0,0,1,.94-.3,1.26,1.26,0,0,1,1,1.31,2.57,2.57,0,0,1-.44,1.24A62.6,62.6,0,0,1,163.73,110,.6.6,0,0,1,163.32,110.16Zm.1-1h0Zm-.62-13.93c-.36.71-.78,1.44-1.23,2.22-1.14,2-2.43,4.24-2.66,6.25a3.08,3.08,0,0,0,1,2.53,34.2,34.2,0,0,0,3.35,2.83,61.49,61.49,0,0,0,10-12.92,1.65,1.65,0,0,0,.3-.74c0-.14-.08-.26-.12-.26s-.14,0-.41.29a31.81,31.81,0,0,0-3.61,4.42.52.52,0,0,1-.9-.5,12,12,0,0,1,1.5-2.4c.26-.34.51-.69.75-1a6,6,0,0,0,1-2.2,43.07,43.07,0,0,0-3.37,4.37c-.28.47-.57.92-.87,1.37a.51.51,0,0,1-.71.14.5.5,0,0,1-.16-.7c.28-.46.57-.91.87-1.36a38.74,38.74,0,0,0,2-3.69c.09-.2.19-.42.26-.63-.23.28-.43.57-.63.85l-2,2.86a33.55,33.55,0,0,1-2.12,3,.52.52,0,0,1-.83-.61l2.09-3a32.63,32.63,0,0,0,2.19-4.13,75,75,0,0,0-5.78,8.59.51.51,0,0,1-.95-.36l1.09-5.11A.36.36,0,0,0,162.8,95.21Zm-.4-.36h0Z" fill="#231f20"></path><path d="M118.51,104.14l1.84.79c6.47,2.8,23.23,11.24,24,10.94s12.18-13.94,12.18-13.94l9.71,8.26S154.13,132.27,147.4,132s-24.85-9.13-24.85-9.13" fill="#18d25e"></path><path d="M105.28,103.18s-14.89,4-17.21,9.37-.55,52.71-.55,52.71l42.47-2.2s.41-46.09-2.07-52.2S112.6,101.35,105.28,103.18Z" fill="#18d25e"></path><path d="M104.75,107.29l12.57,35.63s1.62-28.12.88-33.49S104.75,107.29,104.75,107.29Z" fill="#fff"></path><path d="M118.55,73.65c1,.69,1.93,1.54,2.88,2.07a12.07,12.07,0,0,0,5.75,1.68c.54,0-.14,4.58-.25,5A12.29,12.29,0,0,1,124.56,87a37.07,37.07,0,0,1-3.24,3.39c-1.45,1.38-3.79,1.74-5.66,2.11-1.66.32-3.42.89-5.08,1.07s-3.66.46-5.2-.08c-2-.71-3.34-3.17-4.13-5A11.07,11.07,0,0,1,100.6,81a5.39,5.39,0,0,1,1.46-2.48,4.31,4.31,0,0,1,2.86-.88,3,3,0,0,1,1.29-3c2.56-2.24,7.24-2.76,10.46-1.92A6.17,6.17,0,0,1,118.55,73.65Z" fill="#fff"></path><path d="M107.6,94.35a7.2,7.2,0,0,1-2.39-.34c-1.71-.6-3.2-2.39-4.43-5.31a11.58,11.58,0,0,1-.67-7.84,5.81,5.81,0,0,1,1.61-2.71,4,4,0,0,1,2.65-1,3.55,3.55,0,0,1,1.5-3c2.8-2.45,7.72-2.87,10.93-2a6.34,6.34,0,0,1,2,1h0c.38.26.75.55,1.12.83a14.78,14.78,0,0,0,1.72,1.21,11.56,11.56,0,0,0,5.5,1.62.75.75,0,0,1,.5.25c.61.8-.24,5.35-.25,5.39A13,13,0,0,1,125,87.36a40,40,0,0,1-3.29,3.44c-1.44,1.37-3.68,1.8-5.48,2.15l-.43.08c-.62.12-1.25.28-1.88.43a25,25,0,0,1-3.25.66l-.37,0A24.65,24.65,0,0,1,107.6,94.35Zm5.91-21.51a10.87,10.87,0,0,0-7,2.17,2.51,2.51,0,0,0-1.12,2.57.52.52,0,0,1-.11.4.49.49,0,0,1-.35.19l-.32,0a3.32,3.32,0,0,0-2.24.73,4.81,4.81,0,0,0-1.32,2.24,10.62,10.62,0,0,0,.64,7.13c1.12,2.65,2.4,4.25,3.82,4.74a11.21,11.21,0,0,0,4.59.1l.38,0a24.15,24.15,0,0,0,3.11-.63c.65-.16,1.3-.32,1.93-.44l.43-.08c1.76-.34,3.74-.72,5-1.89a37.61,37.61,0,0,0,3.2-3.34,12,12,0,0,0,2.27-4.44,25,25,0,0,0,.43-4.36,12.57,12.57,0,0,1-5.68-1.74,15.81,15.81,0,0,1-1.85-1.29c-.36-.28-.71-.55-1.07-.8a5.49,5.49,0,0,0-1.72-.88A12.4,12.4,0,0,0,113.51,72.84Z" fill="#231f20"></path><path d="M118.22,101l.68,7.37A8.55,8.55,0,0,1,111,111c-4.79-1-5.56-4.31-5.56-4.31l-.22-13.44s3.5-2,2.3-9.59A39.38,39.38,0,0,0,122,84.75a111.68,111.68,0,0,1-.22,12.37C121.23,100.82,118.22,101,118.22,101Z" fill="#fff"></path><path d="M112.69,111.74a8.53,8.53,0,0,1-1.83-.2c-5-1.11-5.91-4.56-6-4.7a.45.45,0,0,1,0-.11l-.22-13.44a.52.52,0,0,1,.26-.46s3.16-1.93,2-9.06a.52.52,0,0,1,.17-.47.5.5,0,0,1,.48-.11,39.16,39.16,0,0,0,14.24,1,.54.54,0,0,1,.41.12.49.49,0,0,1,.18.38,107.68,107.68,0,0,1-.22,12.45,4.65,4.65,0,0,1-3.46,4.23l.64,6.9a.51.51,0,0,1-.12.38A9.28,9.28,0,0,1,112.69,111.74Zm-6.76-5.09c.11.39,1,3,5.15,3.88a7.93,7.93,0,0,0,7.29-2.34l-.66-7.15a.51.51,0,0,1,.48-.56c.12,0,2.6-.22,3-3.43a103.81,103.81,0,0,0,.23-11.71,39.51,39.51,0,0,1-13.34-1c.75,6.17-1.58,8.54-2.4,9.17Z" fill="#231f20"></path><path d="M108,93a3.11,3.11,0,0,0-1.09-1.64,5.37,5.37,0,0,0-1.69-.8,2.15,2.15,0,0,0-1-.16,1.77,1.77,0,0,0-.67.26,2.39,2.39,0,0,0-1.13,1.22,2.88,2.88,0,0,0,0,1.37,6,6,0,0,0,.39,1.44,3.78,3.78,0,0,0,5,1.86" fill="#fff"></path><path d="M106.2,97.41a4.22,4.22,0,0,1-1.49-.27,4.28,4.28,0,0,1-2.42-2.25,6.44,6.44,0,0,1-.43-1.57,3.4,3.4,0,0,1,0-1.61,2.88,2.88,0,0,1,1.36-1.51,2.27,2.27,0,0,1,.86-.32,2.53,2.53,0,0,1,1.23.18,5.82,5.82,0,0,1,1.85.88,3.65,3.65,0,0,1,1.27,1.92.52.52,0,0,1-1,.27,2.51,2.51,0,0,0-.91-1.37A4.63,4.63,0,0,0,105,91a1.91,1.91,0,0,0-.77-.14,1.43,1.43,0,0,0-.48.19,1.94,1.94,0,0,0-.9,1,2.44,2.44,0,0,0,0,1.11,4.71,4.71,0,0,0,.36,1.31,3.32,3.32,0,0,0,1.83,1.72,3.36,3.36,0,0,0,2.51-.11A.52.52,0,1,1,108,97,4.42,4.42,0,0,1,106.2,97.41Z" fill="#231f20"></path><path d="M118.39,104.66a6.17,6.17,0,0,1-4.91-1.48c-2.14-2-2-3.16-2-3.16s3.42,1.79,6.53,1.1Z" fill="#231f20"></path><path d="M117.59,105.22a6.52,6.52,0,0,1-4.44-1.68c-2.27-2.09-2.16-3.44-2.14-3.59a.48.48,0,0,1,.26-.37.47.47,0,0,1,.46,0s3.3,1.69,6.19,1a.51.51,0,0,1,.4.08.52.52,0,0,1,.21.36l.36,3.54a.51.51,0,0,1-.41.54A4.81,4.81,0,0,1,117.59,105.22Zm-5.33-4.32a7.4,7.4,0,0,0,1.56,1.91,5.66,5.66,0,0,0,4,1.4l-.26-2.51A11.14,11.14,0,0,1,112.26,100.9Z" fill="#231f20"></path><path d="M116.43,89s2.7,3.58,2.14,4.26-2.24.34-2.24.34" fill="#fff"></path><path d="M117.23,94.19a5,5,0,0,1-1-.1.5.5,0,1,1,.19-1c.58.12,1.52.12,1.75-.17A13.3,13.3,0,0,0,116,89.3a.5.5,0,0,1,.1-.7.51.51,0,0,1,.7.1c1.94,2.58,2.66,4.22,2.13,4.87A2.21,2.21,0,0,1,117.23,94.19Z" fill="#231f20"></path><ellipse cx="112.2" cy="89.13" rx="0.62" ry="0.87" transform="translate(-19.7 33.12) rotate(-15.46)" fill="#231f20"></ellipse><ellipse cx="118.68" cy="88.82" rx="0.62" ry="0.87" transform="translate(-19.38 34.84) rotate(-15.46)" fill="#231f20"></ellipse><path d="M116.47,99.26a4.57,4.57,0,0,1-4.29-3.19.51.51,0,0,1,.41-.65c2.61-.37,6.62-1,6.92-1a.54.54,0,0,1,.41.07.53.53,0,0,1,.22.33,4.66,4.66,0,0,1-.77,3.22,3.36,3.36,0,0,1-2.43,1.22Zm-3.1-2.94a3.44,3.44,0,0,0,3.48,1.93,2.38,2.38,0,0,0,1.74-.84,3.32,3.32,0,0,0,.59-2C118.05,95.64,115.62,96,113.37,96.32Z" fill="#231f20"></path><path d="M105.18,78.68a27.53,27.53,0,0,1,1.28,2.62" fill="#fff"></path><path d="M106.46,81.8a.51.51,0,0,1-.46-.31,26.05,26.05,0,0,0-1.26-2.57.51.51,0,0,1,.19-.68.51.51,0,0,1,.69.19c0,.06.78,1.4,1.31,2.68a.5.5,0,0,1-.28.65A.41.41,0,0,1,106.46,81.8Z" fill="#231f20"></path><path d="M162.4,100.25A5,5,0,0,1,164,104.8" fill="#fff"></path><path d="M164,105.31h-.09a.5.5,0,0,1-.41-.59,4.49,4.49,0,0,0-1.4-4.07.52.52,0,0,1,.69-.77,5.53,5.53,0,0,1,1.72,5A.51.51,0,0,1,164,105.31Z" fill="#231f20"></path><path d="M91.51,109.84c-8.91,3.68-24.1,40.2-18.61,44.43,8.56,6.6,38.35-.08,38.35-.08l-2.43-11.48s-19.16.53-19.43-3.4,11.14-22.14,9.65-24.86S91.51,109.84,91.51,109.84Z" fill="#18d25e"></path><path d="M106.35,148.22s5.3.3,6.09,0c1.43-.53,2.65-1.3,4.21-1.39a41.43,41.43,0,0,1,6.58.37c.37,0,.81.15.88.51s-.37.66-.74.8l-2.38.92,4.44.83c1,.18,2.1.52,2.36,1.46a2.09,2.09,0,0,1-.72,1.94c-2.55,2.54-7.46,2-10.73,2.16s-6.74.18-10.11.22h-.18Z" fill="#fff"></path><path d="M106.05,156.56a.51.51,0,0,1-.51-.54l.3-7.82a.46.46,0,0,1,.17-.36.51.51,0,0,1,.37-.13,37.12,37.12,0,0,0,5.88,0c.39-.15.77-.31,1.14-.47a9,9,0,0,1,3.22-1,39.86,39.86,0,0,1,6.46.34l.21,0c1,.1,1.27.63,1.33.93s0,.94-1.06,1.37l-.69.27,2.66.5c.65.12,2.38.44,2.76,1.82a2.53,2.53,0,0,1-.86,2.44c-2.27,2.26-6.17,2.28-9.3,2.29-.63,0-1.22,0-1.77,0-3.11.11-6.42.19-10.12.22Zm.8-7.8-.26,6.76c3.55,0,6.73-.11,9.73-.22.56,0,1.17,0,1.8,0,2.95,0,6.62,0,8.58-2,.18-.18.77-.82.6-1.43s-.77-.86-2-1.09l-4.44-.83a.51.51,0,0,1-.42-.46.52.52,0,0,1,.33-.53l2.37-.92a1.19,1.19,0,0,0,.41-.24s-.16,0-.41-.08l-.21,0a40.4,40.4,0,0,0-6.29-.34,8.42,8.42,0,0,0-2.87.86c-.39.17-.78.34-1.19.5A29.82,29.82,0,0,1,106.85,148.76Z" fill="#231f20"></path><path d="M96.75,158.14a.49.49,0,0,1-.49-.41.5.5,0,0,1,.41-.58l8.9-1.53.27-10.27-16.78-1.73a.47.47,0,0,1-.37-.22.48.48,0,0,1-.06-.42l7.49-25.86a.5.5,0,0,1,1,.27l-7.34,25.3,16.65,1.71a.49.49,0,0,1,.45.51l-.3,11.14a.49.49,0,0,1-.41.48l-9.3,1.6Z" fill="#231f20"></path><rect x="45.96" y="159.83" width="8.88" height="72.16" fill="#fff"></rect><path d="M54.84,232.44H46a.46.46,0,0,1-.46-.45V159.83a.47.47,0,0,1,.46-.46h8.88a.46.46,0,0,1,.46.46V232A.45.45,0,0,1,54.84,232.44Zm-8.42-.91h8V160.28h-8Z" fill="#231f20"></path><rect x="166.28" y="159.83" width="8.88" height="72.16" fill="#fff"></rect><path d="M175.17,232.44h-8.89a.45.45,0,0,1-.45-.45V159.83a.46.46,0,0,1,.45-.46h8.89a.46.46,0,0,1,.45.46V232A.45.45,0,0,1,175.17,232.44Zm-8.43-.91h8V160.28h-8Z" fill="#231f20"></path><rect x="38.14" y="153.26" width="144.85" height="6.57" transform="translate(221.13 313.08) rotate(-180)" fill="#fff"></rect><path d="M183,160.28H38.14a.46.46,0,0,1-.46-.45v-6.57a.46.46,0,0,1,.46-.46H183a.45.45,0,0,1,.45.46v6.57A.45.45,0,0,1,183,160.28ZM38.6,159.37H182.53v-5.66H38.6Z" fill="#231f20"></path><path d="M87.52,165.26s-9,21.46-9.41,25.45,7.8,33,7.8,33-1,3.13,5,2,6.25-4.11,6.25-4.11-5.83-26.65-3-29.69,14.36-15.72,15.21-15.72,26.83,8.36,26.83,8.36-6.18,20.63-12.58,37.34L134,227s22.78-40.73,20.36-46.83S130,163.06,130,163.06Z" fill="#231f20"></path><path d="M123.62,221.87s-4.37,7.51-3.71,8,22.35,6,25.43,4.12-11.3-7-11.3-7Z" fill="#fff"></path><path d="M142.92,234.86c-7,0-23.18-4.5-23.3-4.59-.4-.27-1.05-.74,3.56-8.66a.52.52,0,0,1,.67-.21l10.42,5.12c2.71,1,11.77,4.35,12,6.7a1.22,1.22,0,0,1-.67,1.19A5.69,5.69,0,0,1,142.92,234.86Zm-22.54-5.36c2.21.77,22,5.66,24.69,4,.09-.06.19-.14.18-.2-.12-1.17-6-4-11.38-5.86l-10-4.93A43.26,43.26,0,0,0,120.38,229.5Zm0,.16h0Z" fill="#231f20"></path><path d="M111.25,222h-4.9a.46.46,0,0,1-.45-.46V189.44a.45.45,0,0,1,.45-.45h4.9a.45.45,0,0,1,.45.45v32.14A.46.46,0,0,1,111.25,222Zm-4.44-.91h4V189.9h-4Z" fill="#231f20"></path><path d="M265.54,87H209.42a.5.5,0,0,1,0-1h56.12a.5.5,0,0,1,0,1Z" fill="#d1d3d4"></path><path d="M265.54,98.92H209.42a.51.51,0,0,1-.5-.5.5.5,0,0,1,.5-.5h56.12a.5.5,0,0,1,.5.5A.5.5,0,0,1,265.54,98.92Z" fill="#d1d3d4"></path><path d="M265.54,110.86H209.42a.5.5,0,0,1-.5-.5.51.51,0,0,1,.5-.5h56.12a.5.5,0,0,1,.5.5A.5.5,0,0,1,265.54,110.86Z" fill="#d1d3d4"></path><path d="M265.54,122.81H209.42a.5.5,0,0,1-.5-.5.51.51,0,0,1,.5-.5h56.12a.5.5,0,0,1,.5.5A.5.5,0,0,1,265.54,122.81Z" fill="#d1d3d4"></path><path d="M251.85,134.76H209.42a.5.5,0,1,1,0-1h42.43a.5.5,0,1,1,0,1Z" fill="#d1d3d4"></path><path d="M223.28,83.07a2.37,2.37,0,0,1,.8-1.74,2.64,2.64,0,0,1,1.8-.23,5.52,5.52,0,0,1,2,.51c.62.32.91.9,1.35,1.42a11.1,11.1,0,0,0,3.56,2.74l0,.09,23.68,12.75,8.44-1.87,7.41,9.57s-15.52,2.65-18,2.92c-1.88.2-26.56-19.75-28.6-20a2.2,2.2,0,0,1-.81-.21,1.84,1.84,0,0,1-.59-.73A9.1,9.1,0,0,1,223.28,83.07Z" fill="#fff"></path><path d="M254.28,109.69c-1.16,0-6-3.51-15.76-10.86-5.35-4-12-9-12.91-9.17a2.48,2.48,0,0,1-1-.27,2.12,2.12,0,0,1-.75-.91,9.49,9.49,0,0,1-1-5.46h0a2.68,2.68,0,0,1,1-2.05,3,3,0,0,1,2.12-.31,6,6,0,0,1,2.15.55,3.54,3.54,0,0,1,1.16,1.11l.32.42A10.81,10.81,0,0,0,233,85.36a.52.52,0,0,1,.22.22l23.31,12.54,8.27-1.83a.46.46,0,0,1,.46.17l7.41,9.57a.46.46,0,0,1-.29.73c-.63.11-15.55,2.66-18,2.92ZM223.74,83.12a8.65,8.65,0,0,0,.94,4.94,1.39,1.39,0,0,0,.42.54,1.65,1.65,0,0,0,.59.15c1,.14,5.05,3.1,13.38,9.35,6,4.47,14.11,10.59,15.19,10.68,2.12-.23,14.07-2.26,17.21-2.79l-6.77-8.75-8.15,1.81a.5.5,0,0,1-.32,0L232.55,86.27a.43.43,0,0,1-.19-.21,11.67,11.67,0,0,1-3.48-2.73l-.37-.47a2.63,2.63,0,0,0-.84-.85,5.18,5.18,0,0,0-1.84-.45,2.22,2.22,0,0,0-1.49.15,1.88,1.88,0,0,0-.6,1.41Z" fill="#231f20"></path><rect x="221.62" y="81.18" width="11.88" height="2.45" transform="translate(469.44 74.42) rotate(158.2)" fill="#fff"></rect><path d="M222.49,86.21a.58.58,0,0,1-.18,0,.49.49,0,0,1-.24-.25l-.91-2.27a.46.46,0,0,1,.26-.6l11-4.41a.43.43,0,0,1,.35,0,.45.45,0,0,1,.24.25l.91,2.28a.45.45,0,0,1-.25.59l-11,4.41A.33.33,0,0,1,222.49,86.21Zm-.31-2.48.57,1.43,10.18-4.08-.57-1.42Z" fill="#231f20"></path><rect x="220.72" y="83.93" width="1.37" height="1.87" transform="translate(458.49 81.45) rotate(158.2)" fill="#fff"></rect><path d="M221.12,86.45a.34.34,0,0,1-.18,0,.47.47,0,0,1-.25-.25L220,84.42a.45.45,0,0,1,.25-.59l1.27-.51a.47.47,0,0,1,.35,0,.51.51,0,0,1,.25.25l.69,1.74a.46.46,0,0,1-.25.6l-1.27.51ZM221,84.51l.36.89.42-.17-.35-.89Z" fill="#231f20"></path><rect x="218.37" y="85.25" width="2.44" height="0.69" transform="translate(455.25 83.53) rotate(158.2)" fill="#fff"></rect><path d="M218.58,86.82a.46.46,0,0,1-.42-.28l-.26-.64a.53.53,0,0,1,0-.35.51.51,0,0,1,.25-.25l2.27-.9a.43.43,0,0,1,.35,0,.51.51,0,0,1,.25.25l.25.64a.46.46,0,0,1-.25.59l-2.27.91A.51.51,0,0,1,218.58,86.82Z" fill="#231f20"></path><path d="M232.39,85.75l-1.58-2.83a4.16,4.16,0,0,0-.41-.62,3.4,3.4,0,0,0-.85-.61,17.14,17.14,0,0,0-3.89-1.54c-.17-.05-.39-.07-.49.08a.39.39,0,0,0,0,.24,1.74,1.74,0,0,0,.74,1,19.3,19.3,0,0,0,2.66,1.74,6.78,6.78,0,0,0-.21,2.72,2.89,2.89,0,0,0,1.5,2.17" fill="#fff"></path><path d="M229.83,88.56a.45.45,0,0,1-.19,0,3.28,3.28,0,0,1-1.76-2.5,6.86,6.86,0,0,1,.14-2.57,18.83,18.83,0,0,1-2.42-1.61,2.08,2.08,0,0,1-.91-1.3.78.78,0,0,1,.1-.55.82.82,0,0,1,1-.27,17.12,17.12,0,0,1,4,1.58,3.53,3.53,0,0,1,1,.71,3.9,3.9,0,0,1,.47.7l1.58,2.83a.46.46,0,0,1-.8.44l-1.58-2.82a2.52,2.52,0,0,0-.35-.54,2.55,2.55,0,0,0-.73-.52,17,17,0,0,0-3.69-1.48,2.88,2.88,0,0,0,.53.5,17.78,17.78,0,0,0,2.59,1.7.46.46,0,0,1,.23.5,6.24,6.24,0,0,0-.21,2.54A2.41,2.41,0,0,0,230,87.68a.46.46,0,0,1-.19.88Z" fill="#231f20"></path><path d="M324.69,118.37c.22.92,7.31,14.54,7.31,14.54l13.43-9.29c.05-1.78.07-3.59.28-5.36.11-.93.12-1.87,1.23-2.21,1.82-.56,1.73,2.76,2,4.09.52-1.14,1.05-2.28,1.61-3.41a8.62,8.62,0,0,1,1.7-2.55,2.28,2.28,0,0,1,2.42-.65,3,3,0,0,1,.82.65,4.27,4.27,0,0,1,1.41,2.3,3.88,3.88,0,0,1-.14,1.31c-.5,2.23-1.13,5.07-2.55,6.91-2.87,3.7-20.95,21.92-26.1,23.21-6.15,1.53-19.18-31.25-19.18-31.25" fill="#fff"></path><path d="M327.72,148.41c-6.47,0-17.9-28.28-19.22-31.59a.46.46,0,0,1,.85-.33c5.18,13,14.42,32,18.65,31,5-1.24,23.08-19.47,25.85-23,1.34-1.74,2-4.46,2.45-6.65a2.73,2.73,0,0,0-1.14-3.27,2.66,2.66,0,0,0-.68-.56,1.87,1.87,0,0,0-1.92.57,8.21,8.21,0,0,0-1.6,2.43c-.56,1.12-1.08,2.26-1.61,3.39a.46.46,0,0,1-.46.27.47.47,0,0,1-.4-.37,10,10,0,0,1-.14-1c-.11-.94-.27-2.35-.78-2.69a.55.55,0,0,0-.5,0c-.7.21-.78.69-.88,1.59l0,.23c-.17,1.48-.21,3-.25,4.5l0,.82a.47.47,0,0,1-.2.36l-13.43,9.3a.48.48,0,0,1-.37.06.44.44,0,0,1-.3-.23c-.72-1.4-7.11-13.7-7.34-14.64a.45.45,0,0,1,.33-.55.46.46,0,0,1,.55.33c.18.66,4.21,8.55,7,14L345,123.37l0-.59c0-1.5.08-3.06.25-4.57l0-.23c.1-.88.22-2,1.53-2.37a1.46,1.46,0,0,1,1.26.14c.73.48,1,1.67,1.12,2.77.31-.67.62-1.33.95-2a9.18,9.18,0,0,1,1.79-2.68,2.77,2.77,0,0,1,2.94-.74,3.41,3.41,0,0,1,.94.76,4.57,4.57,0,0,1,1.54,2.55,4.21,4.21,0,0,1-.14,1.47c-.53,2.36-1.17,5.19-2.64,7.09-2.88,3.72-21.09,22.06-26.35,23.37A2.07,2.07,0,0,1,327.72,148.41Z" fill="#231f20"></path><path d="M301.77,65.49a7.3,7.3,0,0,1,5.92-2.91,8.2,8.2,0,0,1,6,2.88,7.88,7.88,0,0,1,1.92,5.62,6.7,6.7,0,0,1-2.92,5.1,7.5,7.5,0,0,1-3.5,1.13,8.14,8.14,0,0,1-6.37-2.09C300.69,73.12,300,68,301.77,65.49Z" fill="#fff"></path><path d="M308.42,77.8a8.42,8.42,0,0,1-5.91-2.26c-2.19-2.15-3.13-7.54-1.11-10.32h0a7.72,7.72,0,0,1,6.2-3.1h.1a8.68,8.68,0,0,1,6.34,3,8.33,8.33,0,0,1,2,6A7.21,7.21,0,0,1,313,76.57a8.14,8.14,0,0,1-3.71,1.2Zm-6.28-12c-1.61,2.22-1.07,7.08,1,9.13a7.67,7.67,0,0,0,6,2,7.27,7.27,0,0,0,3.3-1.06,6.29,6.29,0,0,0,2.71-4.75,7.42,7.42,0,0,0-1.82-5.29A7.73,7.73,0,0,0,307.69,63h-.09a6.78,6.78,0,0,0-5.46,2.72Z" fill="#231f20"></path><path d="M310.27,72.8a13.61,13.61,0,0,0-4-5.12c-1.48-1.09-4.95-2.67-6.58-1a1.44,1.44,0,0,0-.13,2.07l5.15,5.41C306,75.43,308,77.68,310,77.5,312.21,77.3,310.82,73.93,310.27,72.8Z" fill="#231f20"></path><path d="M309.76,78c-2,0-3.91-2-5.17-3.31L299.25,69a1.87,1.87,0,0,1,.13-2.69c2-2,5.93.09,7.15,1a14.08,14.08,0,0,1,4.14,5.28c.46.94,1.44,3.26.72,4.53a1.61,1.61,0,0,1-1.36.81Zm-8.13-11.57A2.21,2.21,0,0,0,300,67a1,1,0,0,0-.12,1.46L305.23,74c1.2,1.27,3,3.21,4.72,3a.78.78,0,0,0,.68-.36c.39-.7-.1-2.36-.75-3.71h0A13.36,13.36,0,0,0,306,68,8.7,8.7,0,0,0,301.63,66.38Z" fill="#231f20"></path><path d="M283,225.29c.13.81-.68,10.24-.68,10.24s-11.53,2-11.59,1.22-3.5-4.28-3.5-4.28l4.66-2.17.4-11.38Z" fill="#fff"></path><path d="M271.71,237.36a2.43,2.43,0,0,1-1.18-.18.67.67,0,0,1-.22-.39,23,23,0,0,0-3.36-4,.46.46,0,0,1,.13-.73l4.4-2.05.4-11.1a.45.45,0,0,1,.23-.39.47.47,0,0,1,.46,0l10.71,6.37a.52.52,0,0,1,.22.32c.12.83-.55,8.76-.69,10.34a.46.46,0,0,1-.37.42A87.08,87.08,0,0,1,271.71,237.36Zm-.49-.65Zm-.07-.26c1,.16,6.09-.52,10.78-1.32.29-3.37.68-8.42.67-9.57l-9.84-5.85-.38,10.61a.44.44,0,0,1-.26.4l-4.07,1.9A19.33,19.33,0,0,1,271.15,236.45Z" fill="#231f20"></path><polygon points="314.92 226.1 316.6 237.75 308.96 237.75 304.49 221.41 314.92 226.1" fill="#fff"></polygon><path d="M316.6,238.21H309a.45.45,0,0,1-.44-.33l-4.47-16.35a.45.45,0,0,1,.63-.53l10.43,4.69a.44.44,0,0,1,.26.35l1.68,11.65a.44.44,0,0,1-.11.36A.44.44,0,0,1,316.6,238.21Zm-7.29-.91h6.76l-1.57-10.88-9.32-4.19Z" fill="#231f20"></path><path d="M290,65.76a13.14,13.14,0,0,1,3.94-1.49c4.53-.92,10.54,2.87,13.45,6.07,4.39,4.82,6,12.24.13,16.63-3.13,2.34-7.29,3-11.19,2.56-6.32-.64-13.38-4.06-13.4-11.26a14.63,14.63,0,0,1,3-9A13.75,13.75,0,0,1,290,65.76Z" fill="#fff"></path><path d="M298.49,90.1a20.69,20.69,0,0,1-2.2-.12c-6.36-.64-13.79-4.1-13.82-11.7A15.12,15.12,0,0,1,285.58,69a14.35,14.35,0,0,1,4.19-3.64,13.73,13.73,0,0,1,4.07-1.55c4.79-1,11,3.05,13.89,6.21s4.35,7,4,10.51a9.47,9.47,0,0,1-3.95,6.79A15.48,15.48,0,0,1,298.49,90.1Zm-3.07-25.52a7,7,0,0,0-1.39.14,12.73,12.73,0,0,0-3.8,1.44h0a13.27,13.27,0,0,0-3.93,3.41,14.23,14.23,0,0,0-2.92,8.7c0,7,7,10.2,13,10.81,4.29.43,8.15-.45,10.87-2.48a8.5,8.5,0,0,0,3.59-6.15c.3-3.21-1.11-6.87-3.78-9.8C304.59,68,299.62,64.58,295.42,64.58ZM290,65.76h0Z" fill="#231f20"></path><polygon points="277.48 132.63 285.25 91.83 307.63 93.61 307.52 143.72 277.48 132.63" fill="#fff"></polygon><path d="M307.52,144.18l-.15,0-30.05-11.09a.47.47,0,0,1-.29-.52l7.78-40.79a.45.45,0,0,1,.48-.37l22.38,1.78a.46.46,0,0,1,.42.46l-.11,50.1a.47.47,0,0,1-.46.46ZM278,132.33l29.07,10.73.11-49-21.55-1.72Z" fill="#231f20"></path><path d="M310.24,135s3.64,66.81,6.36,91.74l-12,1.89s-5.47-36.32-12.91-64l-7.46,64-13.42-1.74,4-94.22Z" fill="#231f20"></path><path d="M329.55,120.75l-16.19,5.69,1.44,24.28-15.59-.46,3.13-54.56-12.72-.5c0,.48-4.06,44.93-5.36,55.52L269,146.08s1.73-18.34,6.43-51.46C278,90.57,285.8,90,289.62,90.25c16.23.92,10.57.94,10.24.94.33,0,12.89,0,18.63,7.77S329.55,120.75,329.55,120.75Z" fill="#18d25e"></path><path d="M290.47,90.59s-.82,7.53-.82,7.53.23,4.32,5,3.61a9.59,9.59,0,0,0,6.79-4.65l.84-9.3c.31-3.45,1-7.09.9-10.55-3.5,1.42-8.26-2.79-9.61-5.65a5.57,5.57,0,0,0,1.54,5.24,6.85,6.85,0,0,1-4.57-4.08,26.14,26.14,0,0,0-2.77,2.89,12.88,12.88,0,0,0-1.52,3.8c-.53,2.34-.87,5.83.45,8C288.42,90.19,290.47,90.59,290.47,90.59Z" fill="#fff"></path><path d="M293.63,102.27a4.36,4.36,0,0,1-2.84-.92,4.8,4.8,0,0,1-1.6-3.2c.52-4.8.71-6.57.78-7.23a7.56,7.56,0,0,1-3.67-3.28c-1.58-2.55-.88-6.66-.51-8.31a13.19,13.19,0,0,1,1.59-3.94s2.56-3.11,3.17-3.11h0a.46.46,0,0,1,.39.29,6.4,6.4,0,0,0,2.75,3.19,6,6,0,0,1-.59-4.29.46.46,0,0,1,.86-.08c1.25,2.68,5.82,6.72,9,5.42a.45.45,0,0,1,.42,0,.49.49,0,0,1,.21.37,52.71,52.71,0,0,1-.54,7.29c-.14,1.11-.27,2.22-.37,3.31l-.84,9.3a.34.34,0,0,1-.05.17,10,10,0,0,1-7.12,4.9A8.34,8.34,0,0,1,293.63,102.27Zm-3.53-4.1a3.47,3.47,0,0,0,4.47,3.11A9.19,9.19,0,0,0,301,96.94l.83-9.21c.1-1.09.23-2.21.37-3.33a58.23,58.23,0,0,0,.54-6.54c-3.25.77-7-2.21-8.84-4.85a5.13,5.13,0,0,0,1.53,3.48.46.46,0,0,1,.09.56.45.45,0,0,1-.52.21,7.3,7.3,0,0,1-4.62-3.79c-.69.69-2.05,2.16-2.21,2.4a12.2,12.2,0,0,0-1.46,3.66c-.35,1.54-1,5.36.39,7.63a6.24,6.24,0,0,0,3.48,3,.45.45,0,0,1,.36.5c0,.1-.81,7.4-.82,7.52Z" fill="#231f20"></path><path d="M301.57,82.49a2.68,2.68,0,0,1,1-1.34,4.55,4.55,0,0,1,1.48-.59,2,2,0,0,1,.87-.08,1.71,1.71,0,0,1,.56.27,2.07,2.07,0,0,1,.89,1.11,2.53,2.53,0,0,1,0,1.16,5.13,5.13,0,0,1-.43,1.21,3.22,3.22,0,0,1-4.4,1.3" fill="#fff"></path><path d="M303.09,86.33a3.65,3.65,0,0,1-1.77-.46.4.4,0,0,1,.39-.69A2.82,2.82,0,0,0,305.57,84a4.3,4.3,0,0,0,.39-1.11,2.14,2.14,0,0,0,.05-1,1.68,1.68,0,0,0-.72-.88,1.25,1.25,0,0,0-.42-.21,1.57,1.57,0,0,0-.69.08,4.24,4.24,0,0,0-1.36.53,2.19,2.19,0,0,0-.87,1.14.41.41,0,0,1-.51.24.39.39,0,0,1-.25-.5,3.12,3.12,0,0,1,1.18-1.54,5.26,5.26,0,0,1,1.61-.64,2.32,2.32,0,0,1,1-.09,1.9,1.9,0,0,1,.7.33,2.39,2.39,0,0,1,1,1.34,2.79,2.79,0,0,1,0,1.35,5.25,5.25,0,0,1-.46,1.31,3.6,3.6,0,0,1-2.17,1.76A3.48,3.48,0,0,1,303.09,86.33Z" fill="#231f20"></path><path d="M290.27,93.58s3,1.23,5.23-.57a5.33,5.33,0,0,0,2.19-3.89s-4.22,2.51-7.22,1.63Z" fill="#231f20"></path><path d="M292.55,94.43a7,7,0,0,1-2.44-.44.45.45,0,0,1-.28-.44l.2-2.84a.45.45,0,0,1,.19-.33.5.5,0,0,1,.38-.06c2.77.82,6.82-1.56,6.86-1.58a.48.48,0,0,1,.45,0,.45.45,0,0,1,.22.38,5.72,5.72,0,0,1-2.36,4.24A5,5,0,0,1,292.55,94.43Zm-1.81-1.16a5,5,0,0,0,4.48-.6,5.39,5.39,0,0,0,1.9-2.75c-1.31.65-4,1.77-6.24,1.37Z" fill="#231f20"></path><path d="M290.64,78.65s-2.88,3.32-2.38,4,2.17.48,2.17.48" fill="#fff"></path><path d="M289.87,83.64a2.42,2.42,0,0,1-2-.71c-.47-.65.34-2.19,2.41-4.57a.43.43,0,0,1,.62,0,.44.44,0,0,1,.05.63c-1.3,1.49-2.39,3.14-2.34,3.53.21.28,1.16.33,1.73.25a.45.45,0,0,1,.49.39.43.43,0,0,1-.38.49A4.29,4.29,0,0,1,289.87,83.64Z" fill="#231f20"></path><ellipse cx="294.67" cy="79.34" rx="0.85" ry="0.61" transform="translate(122.05 330.99) rotate(-70.62)" fill="#231f20"></ellipse><ellipse cx="287.99" cy="78.65" rx="0.85" ry="0.61" transform="translate(118.24 324.23) rotate(-70.62)" fill="#231f20"></ellipse><path d="M287.26,84.62s1.78,3.5,6,.87" fill="#fff"></path><path d="M290.35,86.91a3.69,3.69,0,0,1-1.05-.14,4.13,4.13,0,0,1-2.43-2,.45.45,0,0,1,.19-.6.45.45,0,0,1,.6.2,3.32,3.32,0,0,0,1.89,1.5,4.4,4.4,0,0,0,3.48-.8.44.44,0,1,1,.47.75A6.08,6.08,0,0,1,290.35,86.91Z" fill="#231f20"></path><line x1="314.15" y1="139.76" x2="312.39" y2="101.73" fill="#fff"></line><path d="M314.15,140.22a.46.46,0,0,1-.46-.44l-1.76-38a.45.45,0,0,1,.44-.48.43.43,0,0,1,.47.43l1.77,38a.47.47,0,0,1-.44.48Z" fill="#231f20"></path><path d="M307.57,232.74s6.85-3.79,9.74,0a17.6,17.6,0,0,1,3.16,8.64s-14.41,2.4-14.52,0S307.57,232.74,307.57,232.74Z" fill="#231f20"></path><path d="M268.81,229.67l3.63,4.71L284.3,232l.5,6.17s-25.21,5.2-26.24,2.42S268.81,229.67,268.81,229.67Z" fill="#231f20"></path><polygon points="282.91 90.67 263.27 94.79 266.04 110.35 285.81 104.98 282.91 90.67" fill="#18d25e"></polygon><path d="M348.94,120.14s4.08,1.7,1.35,5.16" fill="#fff"></path><path d="M350.29,125.75a.52.52,0,0,1-.29-.09.47.47,0,0,1-.07-.65,2.85,2.85,0,0,0,.78-2.46,3.63,3.63,0,0,0-1.95-2,.44.44,0,0,1-.24-.59.46.46,0,0,1,.6-.25,4.47,4.47,0,0,1,2.48,2.59,3.74,3.74,0,0,1-1,3.27A.48.48,0,0,1,350.29,125.75Z" fill="#231f20"></path><path d="M348.94,101H325.57a.5.5,0,0,1-.5-.5V81.05a.5.5,0,0,1,.5-.5h23.37a.5.5,0,0,1,.5.5v19.46A.5.5,0,0,1,348.94,101Zm-22.87-1h22.37V81.55H326.07Z" fill="#d1d3d4"></path><path d="M215.15,203.14a27.53,27.53,0,0,0-7-4.55c-.21,7.46,2.81,14.32,5.61,19h9.09" fill="#fff"></path><path d="M222.88,218.1h-9.09a.5.5,0,0,1-.43-.24c-2.71-4.55-5.9-11.6-5.68-19.28a.49.49,0,0,1,.69-.45,27.55,27.55,0,0,1,7.11,4.64.5.5,0,0,1-.66.74,28.27,28.27,0,0,0-6.15-4.14c0,7,2.88,13.44,5.41,17.73h8.8a.5.5,0,0,1,.5.5A.5.5,0,0,1,222.88,218.1Z" fill="#231f20"></path><path d="M228.18,205.14c-2.23-11.65-11.37-19-11.37-19a42.24,42.24,0,0,0-1.66,17,61.93,61.93,0,0,0,3.15,14.46h9.78" fill="#fff"></path><path d="M228.08,218.1h-9.79a.49.49,0,0,1-.47-.34,63.29,63.29,0,0,1-3.17-14.57A42.67,42.67,0,0,1,216.33,186a.52.52,0,0,1,.34-.32.47.47,0,0,1,.45.09c.09.07,9.31,7.58,11.55,19.28a.51.51,0,0,1-.39.59.52.52,0,0,1-.59-.4c-1.86-9.68-8.63-16.4-10.63-18.21a42,42,0,0,0-1.41,16.07,62.2,62.2,0,0,0,3,14h9.43a.51.51,0,0,1,.5.5A.5.5,0,0,1,228.08,218.1Z" fill="#231f20"></path><path d="M233,217.6h-8.66c-.08-2.56.5-6.44,3.28-11.48l.55-1c5-8.5,9.61-8.4,9.61-8.4C239.73,205.69,235.63,213.65,233,217.6Z" fill="#fff"></path><path d="M233,218.1h-8.66a.5.5,0,0,1-.5-.48c-.08-2.45.44-6.48,3.34-11.74.2-.36.38-.67.56-1,5.11-8.65,9.85-8.67,10.05-8.65a.49.49,0,0,1,.48.39c2,9.13-2.19,17.23-4.85,21.24A.5.5,0,0,1,233,218.1Zm-8.17-1h7.9c2.54-3.88,6.3-11.38,4.65-19.81-1.17.22-4.83,1.43-8.77,8.11-.18.3-.36.62-.54.94C225.46,211.09,224.85,214.75,224.84,217.1Z" fill="#231f20"></path><polygon points="231.44 231.34 214.45 231.34 211.72 217.61 234.17 217.61 231.44 231.34" fill="#231f20"></polygon></g></svg>