<?xml version="1.0" encoding="utf-8"?>
<!-- Generator: Adobe Illustrator 26.0.1, SVG Export Plug-In . SVG Version: 6.00 Build 0)  -->
<svg version="1.1" id="Layer_1" xmlns="http://www.w3.org/2000/svg" xmlns:xlink="http://www.w3.org/1999/xlink" x="0px" y="0px"
	 viewBox="0 0 500 500" style="enable-background:new 0 0 500 500;" xml:space="preserve">
<style type="text/css">
	.st0{opacity:0.2;}
	.st1{fill:#CFCFCF;}
	.st2{fill:#051D23;}
	.st3{fill:#46DB8B;}
	.st4{enable-background:new    ;}
	.st5{fill:#D8D8D8;}
	.st6{fill:#DBDBDB;}
	.st7{fill:#C5C5C5;}
	.st8{fill:#E8E8E8;}
	.st9{fill:#898989;}
	.st10{fill:#FFFFFF;}
	.st11{fill:#0FB7B3;}
	.st12{fill:#199B94;}
	.st13{fill:#01A3A2;}
	.st14{fill:#FF9C00;}
	.st15{fill:#FFBA5F;}
	.st16{fill:#FFAC33;}
	.st17{fill:#242626;}
	.st18{fill:#3B3F3F;}
	.st19{fill:#111114;}
	.st20{fill:#29383D;}
	.st21{fill:#243135;}
	.st22{fill:#8FB6D7;}
	.st23{fill:#558299;}
	.st24{clip-path:url(#SVGID_00000007414685538475050680000000841787333063980981_);enable-background:new    ;}
	.st25{fill:#123468;}
	.st26{fill:#113365;}
	.st27{fill:#113163;}
	.st28{fill:#103060;}
	.st29{fill:#102F5E;}
	.st30{fill:#0F2E5B;}
	.st31{fill:#0F2C58;}
	.st32{fill:#0F2B56;}
	.st33{fill:#0E2A53;}
	.st34{fill:#0E2851;}
	.st35{fill:#0D274E;}
	.st36{fill:#3F3F3F;}
	.st37{fill:#184C9F;}
	.st38{fill:#0B357C;}
	.st39{fill:#1A4789;}
	.st40{fill:#231D21;}
	.st41{fill:#31282E;}
	.st42{fill:#EFB185;}
	.st43{fill:#D7D3D0;}
	.st44{fill:#C3BBB7;}
	.st45{fill:#E7E3E2;}
	.st46{fill:#301806;}
	.st47{fill:#E8A476;}
	.st48{fill:#DB9669;}
	.st49{fill:#F1B287;}
	.st50{fill:#231202;}
	.st51{fill:#45210C;}
	.st52{fill:#8B4E29;}
	.st53{fill:#673112;}
	.st54{fill:#BB732C;}
	.st55{fill:#FBC868;}
	.st56{fill:#F4CD57;}
	.st57{fill:#773717;}
	.st58{fill:#4F260E;}
	.st59{fill:#592A10;}
	.st60{fill:#DFE5F3;}
	.st61{fill:#AEB6BC;}
	.st62{fill:#DCDCDC;}
	.st63{fill:#6B4125;}
	.st64{fill:#885937;}
	.st65{fill:#AA814F;}
	.st66{fill:#C0C5D1;}
	.st67{opacity:0.1;}
	.st68{fill:#A9B5C4;}
	.st69{fill:#C3C5C5;}
	.st70{fill:#E6E7EC;}
	.st71{opacity:0.5;}
	.st72{fill:#939599;}
	.st73{fill:#D5DFE6;}
	.st74{fill:#C8D2DB;}
	.st75{fill:#E1EAEF;}
	.st76{fill:#F5F3F2;}
	.st77{fill:#E4E4E4;}
	.st78{fill:#CACACA;}
	.st79{fill:#A8AAAA;}
	.st80{fill:#9FB0BC;}
	.st81{fill:#388852;}
	.st82{fill:#2C7741;}
	.st83{fill:#E2E6ED;}
	.st84{fill:#A5AAB4;}
	.st85{fill:#354751;}
	.st86{fill:#304047;}
	.st87{fill:#3B5059;}
	.st88{fill:#DD9569;}
	.st89{fill:#E6A376;}
	.st90{fill:#221101;}
	.st91{fill:#341C09;}
	.st92{fill:#DEF0F9;}
	.st93{fill:#1F5699;}
	.st94{fill:#39844B;}
	.st95{fill:#BDBDBD;}
	.st96{fill:#F4F7F8;}
</style>
<g>
	<g>
		<g class="st0">
			<path class="st1" d="M397.7,251.5c82.1,47.4,82.5,124.3,1,171.7c-81.6,47.4-214.3,47.4-296.4,0s-82.5-124.3-1-171.7
				C182.9,204.1,315.6,204.1,397.7,251.5z"/>
		</g>
		<path class="st2" d="M459.5,290.2c0,0.5,0,1.1-0.1,1.6c0,0.4-0.1,0.9-0.1,1.3c0,0.5-0.1,1.1-0.2,1.6c0,0.4-0.1,0.9-0.1,1.3
			c-0.1,0.6-0.1,1.1-0.2,1.7c-0.1,0.4-0.1,0.9-0.2,1.3c-0.1,0.6-0.2,1.1-0.3,1.7c-0.1,0.4-0.2,0.8-0.2,1.3c-0.1,0.5-0.2,1.1-0.4,1.6
			c-0.1,0.4-0.2,0.9-0.3,1.3c-0.1,0.5-0.3,1.1-0.4,1.6c-0.1,0.4-0.2,0.9-0.4,1.3c-0.2,0.5-0.3,1.1-0.5,1.6c-0.1,0.4-0.3,0.8-0.4,1.3
			c-0.2,0.6-0.4,1.1-0.6,1.7c-0.1,0.4-0.3,0.8-0.4,1.2c-0.3,0.8-0.6,1.7-1,2.5c-0.1,0.1-0.1,0.3-0.2,0.4c-0.4,1-0.8,1.9-1.3,2.9
			c-0.1,0.3-0.3,0.6-0.4,0.8c-0.3,0.7-0.7,1.4-1,2.1c-0.2,0.4-0.4,0.7-0.6,1.1c-0.3,0.6-0.6,1.2-1,1.8c-0.2,0.3-0.4,0.7-0.6,1
			c-0.4,0.7-0.8,1.3-1.2,2c-0.2,0.4-0.5,0.8-0.7,1.2c-0.4,0.6-0.8,1.2-1.2,1.8c-0.3,0.4-0.5,0.8-0.8,1.2c-0.4,0.6-0.8,1.2-1.2,1.7
			c-0.3,0.4-0.6,0.8-0.9,1.2c-0.4,0.6-0.9,1.2-1.4,1.8c-0.3,0.4-0.5,0.7-0.8,1.1c-0.8,1.1-1.7,2.1-2.6,3.2c-0.2,0.2-0.3,0.4-0.5,0.5
			c-0.8,0.9-1.6,1.8-2.4,2.6c-0.3,0.3-0.6,0.7-0.9,1c-0.7,0.8-1.5,1.6-2.3,2.3c-0.3,0.3-0.5,0.6-0.8,0.8c-1,1-2.1,2-3.2,3.1
			c-0.4,0.4-0.8,0.8-1.3,1.2c-0.5,0.5-1,0.9-1.5,1.4c-0.5,0.4-0.9,0.8-1.4,1.2c-0.5,0.4-1,0.9-1.6,1.3c-0.5,0.4-1,0.8-1.4,1.2
			c-0.5,0.4-1.1,0.9-1.6,1.3s-1,0.8-1.5,1.2c-0.6,0.4-1.1,0.9-1.7,1.3c-0.5,0.4-1,0.8-1.5,1.1c-0.6,0.4-1.2,0.9-1.8,1.3
			c-0.5,0.4-1.1,0.7-1.6,1.1c-0.6,0.4-1.2,0.8-1.8,1.3c-0.5,0.4-1.1,0.7-1.7,1.1s-1.3,0.8-1.9,1.2c-0.6,0.4-1.2,0.7-1.7,1.1
			c-0.6,0.4-1.3,0.8-2,1.2c-1,0.6-2.1,1.3-3.1,1.9c-1.6,0.9-3.2,1.8-4.8,2.7c-0.5,0.3-0.9,0.5-1.4,0.8c-1.2,0.7-2.5,1.3-3.7,2
			c-0.4,0.2-0.9,0.4-1.3,0.7c-1.6,0.8-3.3,1.6-5,2.4c-0.3,0.1-0.6,0.3-0.9,0.4c-1.4,0.7-2.8,1.3-4.2,1.9c-0.5,0.2-1,0.5-1.5,0.7
			c-1.4,0.6-2.8,1.2-4.2,1.8c-0.4,0.1-0.7,0.3-1.1,0.4c-1.7,0.7-3.5,1.4-5.3,2.1c-0.5,0.2-0.9,0.3-1.4,0.5c-1.4,0.5-2.8,1-4.1,1.5
			c-0.5,0.2-1.1,0.4-1.6,0.6c-1.7,0.6-3.3,1.1-5,1.7c-0.2,0.1-0.3,0.1-0.5,0.2c-1.5,0.5-3.1,1-4.6,1.5c-0.5,0.1-1,0.3-1.4,0.4
			c-1.1,0.3-2.2,0.7-3.3,1c-0.6,0.2-1.2,0.3-1.8,0.5c-1,0.3-1.9,0.5-2.9,0.8c-0.7,0.2-1.3,0.3-2,0.5c-0.9,0.2-1.9,0.5-2.8,0.7
			c-0.7,0.2-1.4,0.3-2.1,0.5c-0.9,0.2-1.8,0.4-2.8,0.7c-0.7,0.2-1.4,0.3-2.2,0.5c-0.9,0.2-1.8,0.4-2.7,0.6c-0.7,0.2-1.5,0.3-2.2,0.5
			c-0.9,0.2-1.8,0.4-2.7,0.6c-0.7,0.1-1.5,0.3-2.2,0.4c-0.9,0.2-1.8,0.3-2.7,0.5c-0.7,0.1-1.3,0.2-2,0.4c-1.5,0.3-3,0.5-4.6,0.8
			c-0.5,0.1-1,0.2-1.5,0.2c-2,0.3-3.9,0.6-5.9,0.9c-0.5,0.1-0.9,0.1-1.4,0.2c-1.6,0.2-3.1,0.4-4.7,0.6c-0.6,0.1-1.2,0.1-1.9,0.2
			c-1.6,0.2-3.3,0.4-4.9,0.5c-0.4,0-0.8,0.1-1.2,0.1c-1.8,0.2-3.6,0.3-5.4,0.5c-0.3,0-0.6,0-0.9,0.1c-1.5,0.1-3,0.2-4.5,0.3
			c-0.6,0-1.3,0.1-1.9,0.1c-1.2,0.1-2.4,0.1-3.5,0.2c-0.7,0-1.4,0.1-2.1,0.1c-1.1,0.1-2.3,0.1-3.4,0.1c-0.7,0-1.5,0.1-2.2,0.1
			c-1,0-1.9,0.1-2.9,0.1c-0.8,0-1.5,0-2.3,0c-1,0-1.9,0-2.9,0c-0.8,0-1.5,0-2.3,0c-1,0-2,0-3,0c-0.7,0-1.5,0-2.2,0
			c-1,0-2.1,0-3.1-0.1c-0.7,0-1.4,0-2.1,0c-1,0-1.9-0.1-2.9-0.1c-0.7,0-1.5,0-2.2-0.1c-1,0-1.9-0.1-2.9-0.1c-0.8,0-1.5-0.1-2.3-0.1
			c-0.9-0.1-1.8-0.1-2.8-0.2c-0.8,0-1.6-0.1-2.3-0.1c-0.9-0.1-1.8-0.1-2.7-0.2c-0.8-0.1-1.6-0.1-2.4-0.2c-0.9-0.1-1.8-0.2-2.7-0.2
			c-0.8-0.1-1.6-0.1-2.4-0.2c-0.9-0.1-1.9-0.2-2.8-0.3c-0.7-0.1-1.5-0.2-2.2-0.2c-1.6-0.2-3.1-0.4-4.7-0.6c-0.4,0-0.7-0.1-1.1-0.1
			c-1.4-0.2-2.8-0.4-4.2-0.6c-0.4-0.1-0.7-0.1-1.1-0.2c-1.3-0.2-2.7-0.4-4-0.6c-0.7-0.1-1.3-0.2-2-0.3c-1-0.2-2.1-0.3-3.1-0.5
			c-0.7-0.1-1.4-0.3-2.2-0.4c-0.9-0.2-1.9-0.3-2.8-0.5c-0.8-0.1-1.5-0.3-2.2-0.4c-0.9-0.2-1.8-0.4-2.7-0.5c-0.7-0.1-1.4-0.3-2.1-0.4
			c-1.1-0.2-2.1-0.5-3.2-0.7c-0.7-0.2-1.4-0.3-2.1-0.5c-1.1-0.2-2.1-0.5-3.2-0.7c-0.7-0.2-1.3-0.3-2-0.5c-1.1-0.3-2.2-0.6-3.3-0.8
			c-0.6-0.2-1.2-0.3-1.8-0.5c-1.3-0.4-2.6-0.7-4-1.1c-0.4-0.1-0.7-0.2-1.1-0.3c-1.9-0.5-3.8-1.1-5.8-1.7c-0.5-0.2-1-0.3-1.6-0.5
			c-1.5-0.5-3.1-1-4.6-1.5c-0.4-0.1-0.8-0.3-1.3-0.4c-1.9-0.6-3.7-1.3-5.6-2c-0.4-0.1-0.8-0.3-1.2-0.4c-1.5-0.6-3-1.1-4.5-1.7
			c-0.5-0.2-0.9-0.4-1.4-0.5c-2.3-0.9-4.6-1.9-6.8-2.8c-0.4-0.2-0.8-0.3-1.1-0.5c-2.3-1-4.5-2-6.7-3.1c-0.3-0.2-0.7-0.3-1-0.5
			c-2.2-1.1-4.5-2.2-6.7-3.3c-0.2-0.1-0.4-0.2-0.7-0.4c-2.3-1.2-4.6-2.5-6.8-3.7c-41.3-23.9-62-55.2-61.9-86.4l-0.1,18.4l0,0l0,0
			c-0.1,29.3,18,58.7,54.4,81.9c2.4,1.5,4.9,3.1,7.5,4.6c2.2,1.3,4.5,2.5,6.8,3.7c0.2,0.1,0.4,0.2,0.6,0.3c2.2,1.1,4.4,2.3,6.7,3.3
			c0.3,0.2,0.7,0.3,1,0.5c2.2,1,4.4,2.1,6.7,3.1c0.4,0.2,0.8,0.3,1.1,0.5c2.3,1,4.6,1.9,6.9,2.8c0.2,0.1,0.3,0.1,0.5,0.2
			c0.3,0.1,0.6,0.2,0.8,0.3c1.5,0.6,3,1.2,4.5,1.7c0.4,0.1,0.8,0.3,1.2,0.4c1.8,0.7,3.7,1.3,5.6,2c0.4,0.1,0.8,0.3,1.3,0.4
			c1.5,0.5,3.1,1,4.6,1.5c0.5,0.2,1,0.3,1.5,0.5c1.9,0.6,3.8,1.2,5.8,1.7h0.1c0.3,0.1,0.5,0.1,0.8,0.2c1.4,0.4,2.8,0.8,4.1,1.1
			c0.6,0.2,1.2,0.3,1.7,0.5c1.1,0.3,2.3,0.6,3.4,0.9c0.6,0.2,1.3,0.3,1.9,0.5c1.1,0.3,2.2,0.5,3.3,0.8c0.7,0.2,1.3,0.3,2,0.4
			c1.1,0.2,2.2,0.5,3.3,0.7c0.4,0.1,0.8,0.2,1.3,0.3c0.2,0,0.5,0.1,0.7,0.1c1,0.2,2,0.4,2.9,0.6c0.7,0.1,1.4,0.3,2,0.4
			c1,0.2,2.1,0.4,3.1,0.6c0.7,0.1,1.3,0.2,1.9,0.3c1.1,0.2,2.2,0.4,3.3,0.5c0.6,0.1,1.2,0.2,1.8,0.3c1.2,0.2,2.5,0.4,3.7,0.6
			c0.4,0.1,0.9,0.1,1.3,0.2h0.1c3.3,0.5,6.7,0.9,10,1.3c0.3,0,0.6,0.1,1,0.1c1.4,0.1,2.7,0.3,4.1,0.4c0.5,0,1,0.1,1.5,0.1
			c1.2,0.1,2.4,0.2,3.6,0.3c0.1,0,0.1,0,0.2,0c0.5,0,1.1,0.1,1.6,0.1c1.1,0.1,2.2,0.2,3.3,0.2c0.7,0,1.3,0.1,2,0.1
			c1,0.1,2.1,0.1,3.1,0.2c0.7,0,1.4,0.1,2.2,0.1c1,0,1.9,0.1,2.9,0.1c0.8,0,1.5,0.1,2.3,0.1c0.9,0,1.9,0.1,2.8,0.1
			c0.2,0,0.3,0,0.5,0c0.6,0,1.1,0,1.7,0c1,0,2,0,3,0.1c0.8,0,1.5,0,2.3,0c1,0,1.9,0,2.9,0c0.8,0,1.6,0,2.4,0c0.9,0,1.9,0,2.8,0
			c0.8,0,1.6,0,2.4,0c0.9,0,1.9,0,2.8-0.1c0.4,0,0.8,0,1.1,0c0.4,0,0.8,0,1.1,0c1.1,0,2.3-0.1,3.4-0.1c0.7,0,1.4-0.1,2.1-0.1
			c1.2-0.1,2.4-0.1,3.6-0.2c0.6,0,1.2-0.1,1.9-0.1c1.6-0.1,3.1-0.2,4.7-0.3c0.2,0,0.5,0,0.7-0.1c1.8-0.2,3.6-0.3,5.5-0.5
			c0.1,0,0.2,0,0.2,0c0.3,0,0.5-0.1,0.8-0.1c1.7-0.2,3.4-0.4,5.1-0.6c0.6-0.1,1.2-0.1,1.8-0.2c1.6-0.2,3.2-0.4,4.8-0.6
			c0.4-0.1,0.9-0.1,1.3-0.2c2-0.3,4-0.6,5.9-0.9c0.5-0.1,1-0.2,1.5-0.2c1.5-0.2,3-0.5,4.5-0.8c0.3-0.1,0.7-0.1,1-0.2s0.7-0.1,1-0.2
			c0.9-0.2,1.7-0.3,2.6-0.5c0.8-0.2,1.6-0.3,2.4-0.5c0.9-0.2,1.7-0.4,2.6-0.5c0.8-0.2,1.5-0.3,2.3-0.5c0.9-0.2,1.8-0.4,2.7-0.6
			c0.7-0.2,1.5-0.3,2.2-0.5c0.9-0.2,1.8-0.4,2.8-0.7c0.7-0.2,1.4-0.3,2.1-0.5c1-0.2,1.9-0.5,2.9-0.7c0.6-0.2,1.3-0.3,1.9-0.5
			c1-0.3,2.1-0.6,3.1-0.9c0.5-0.2,1.1-0.3,1.6-0.5c1.3-0.4,2.6-0.8,4-1.2c0.2-0.1,0.5-0.1,0.7-0.2c1.6-0.5,3.1-1,4.7-1.5l0,0
			c0.1,0,0.1-0.1,0.2-0.1c1.8-0.6,3.5-1.2,5.2-1.8c0.5-0.2,1.1-0.4,1.6-0.6c1.4-0.5,2.8-1,4.2-1.5c0.4-0.2,0.9-0.3,1.3-0.5
			c1.8-0.7,3.5-1.4,5.3-2.1c0.4-0.1,0.7-0.3,1.1-0.5c1.4-0.6,2.8-1.2,4.2-1.8c0.5-0.2,1-0.5,1.6-0.7c1.4-0.6,2.8-1.3,4.2-1.9
			c0.3-0.1,0.6-0.3,0.9-0.4c1.7-0.8,3.3-1.6,5-2.4c0.4-0.2,0.9-0.4,1.3-0.7c1.3-0.6,2.5-1.3,3.8-2c0.5-0.2,0.9-0.5,1.4-0.7
			c1.6-0.9,3.2-1.8,4.8-2.7c0.9-0.5,1.7-1,2.6-1.5c0.2-0.1,0.4-0.2,0.6-0.4c0.6-0.4,1.3-0.8,1.9-1.2c0.6-0.4,1.2-0.7,1.8-1.1
			c0.6-0.4,1.2-0.8,1.8-1.2c0.6-0.4,1.2-0.8,1.7-1.1c0.6-0.4,1.2-0.8,1.8-1.2c0.6-0.4,1.1-0.8,1.6-1.1c0.6-0.4,1.2-0.8,1.8-1.3
			c0.5-0.4,1.1-0.8,1.6-1.1c0.6-0.4,1.1-0.9,1.7-1.3c0.5-0.4,1-0.8,1.5-1.1c0.6-0.4,1.1-0.9,1.7-1.3c0.5-0.4,0.9-0.8,1.4-1.1
			c0.6-0.5,1.1-0.9,1.6-1.4c0.4-0.4,0.9-0.7,1.3-1.1c0.6-0.5,1.1-1,1.6-1.5c0.4-0.3,0.7-0.6,1.1-1l0.1-0.1c1.1-1,2.2-2,3.2-3.1
			c0.3-0.3,0.5-0.5,0.8-0.8c0.8-0.8,1.5-1.6,2.3-2.4c0.3-0.3,0.6-0.6,0.9-1c0.8-0.9,1.6-1.8,2.4-2.6c0.2-0.2,0.3-0.4,0.5-0.5
			c0.9-1.1,1.8-2.1,2.6-3.2c0.1-0.1,0.1-0.2,0.2-0.3c0.2-0.3,0.4-0.5,0.6-0.8c0.5-0.6,0.9-1.2,1.4-1.9c0.3-0.4,0.6-0.8,0.8-1.1
			c0.4-0.6,0.9-1.2,1.3-1.8c0.3-0.4,0.5-0.8,0.8-1.2c0.4-0.6,0.8-1.2,1.2-1.9c0.2-0.4,0.5-0.8,0.7-1.1c0.4-0.7,0.8-1.3,1.2-2
			c0.2-0.3,0.3-0.5,0.5-0.8c0-0.1,0.1-0.2,0.1-0.2c0.3-0.6,0.6-1.2,0.9-1.7c0.2-0.4,0.4-0.8,0.6-1.1c0.3-0.7,0.6-1.3,1-2
			c0.1-0.3,0.3-0.6,0.5-0.9c0.5-1,0.9-1.9,1.3-2.9c0.1-0.1,0.1-0.3,0.2-0.4c0.3-0.8,0.7-1.7,1-2.5V332c0.1-0.3,0.2-0.7,0.4-1
			c0.2-0.6,0.4-1.2,0.6-1.8c0.1-0.4,0.3-0.8,0.4-1.2c0.2-0.6,0.4-1.1,0.5-1.7c0.1-0.4,0.2-0.9,0.4-1.3c0.1-0.5,0.3-1.1,0.4-1.6
			c0.1-0.4,0.2-0.9,0.3-1.3c0.1-0.5,0.2-1,0.3-1.6c0-0.1,0-0.2,0.1-0.3c0.1-0.4,0.1-0.7,0.2-1.1c0.1-0.5,0.2-1.1,0.3-1.6
			c0.1-0.5,0.1-0.9,0.2-1.4s0.2-1.1,0.2-1.6c0.1-0.5,0.1-0.9,0.1-1.4c0.1-0.5,0.1-1.1,0.1-1.6s0.1-0.9,0.1-1.4s0.1-1,0.1-1.5
			c0-0.2,0-0.4,0-0.5c0-0.6,0-1.2,0-1.8c0-6.1,0-12.2,0.1-18.4C459.6,288.7,459.6,289.5,459.5,290.2z"/>
		<g>
			<path class="st3" d="M397.7,201.5c82.1,47.4,82.5,124.3,1,171.7c-81.6,47.4-214.3,47.4-296.4,0s-82.5-124.3-1-171.7
				C182.9,154.1,315.6,154.1,397.7,201.5z"/>
		</g>
	</g>
	<g>
		<g class="st4">
			<g>
				<g>
					<polygon class="st5" points="341.8,244.2 337.4,241.6 337,86.8 341.4,89.4 					"/>
				</g>
			</g>
			<g>
				<g>
					<polygon class="st6" points="341.4,89.4 337,86.8 369.2,68.2 373.6,70.8 					"/>
				</g>
			</g>
			<g>
				<g>
					<polygon class="st7" points="373.6,70.8 374,225.6 341.8,244.2 341.4,89.4 					"/>
				</g>
			</g>
		</g>
		<g class="st4">
			<g>
				<g>
					<polygon class="st8" points="341.7,184 341.7,188.9 399.2,222.3 399.2,217.4 					"/>
				</g>
			</g>
			<g>
				<g>
					<polygon class="st9" points="399.2,217.4 399.2,222.3 429.7,204.6 429.7,199.8 					"/>
				</g>
			</g>
			<g>
				<g>
					<polygon class="st10" points="341.7,184 399.2,217.4 429.7,199.8 372.2,166.4 					"/>
				</g>
			</g>
		</g>
		<g>
			<g class="st4">
				<g>
					<g>
						<polygon class="st11" points="385.6,179.5 385.6,183.7 368.1,193.9 368.1,189.7 						"/>
					</g>
				</g>
				<g>
					<g>
						<polygon class="st12" points="368.1,189.7 368.1,193.9 346.3,181.3 346.3,177.2 						"/>
					</g>
				</g>
				<g>
					<g>
						<polygon class="st13" points="385.6,179.5 368.1,189.7 346.3,177.2 363.8,167 						"/>
					</g>
				</g>
			</g>
		</g>
		<g>
			<g class="st4">
				<g>
					<g>
						<polygon class="st14" points="382.8,174.3 382.8,177.5 369.6,185.1 369.7,182 						"/>
					</g>
				</g>
				<g>
					<g>
						<polygon class="st15" points="369.7,182 369.6,185.1 353.3,175.7 353.3,172.6 						"/>
					</g>
				</g>
				<g>
					<g>
						<polygon class="st16" points="382.8,174.3 369.7,182 353.3,172.6 366.5,164.9 						"/>
					</g>
				</g>
			</g>
		</g>
		<g class="st0">
			<polygon points="333.6,249.7 377.9,224 439.7,257.6 400.2,280.3 			"/>
		</g>
		<g class="st4">
			<g>
				<g>
					<polygon class="st8" points="341.7,131.7 341.7,136.5 399.2,170 399.2,165.1 					"/>
				</g>
			</g>
			<g>
				<g>
					<polygon class="st9" points="399.2,165.1 399.2,170 429.7,152.3 429.7,147.5 					"/>
				</g>
			</g>
			<g>
				<g>
					<polygon class="st10" points="341.7,131.7 399.2,165.1 429.7,147.5 372.2,114.1 					"/>
				</g>
			</g>
		</g>
		<g class="st4">
			<g>
				<g>
					<polygon class="st8" points="341.7,237.6 341.7,242.4 399.2,275.8 399.2,271 					"/>
				</g>
			</g>
			<g>
				<g>
					<polygon class="st9" points="399.2,271 399.2,275.8 429.7,258.2 429.7,253.4 					"/>
				</g>
			</g>
			<g>
				<g>
					<polygon class="st10" points="341.7,237.6 399.2,271 429.7,253.4 372.2,220 					"/>
				</g>
			</g>
		</g>
		<g class="st0">
			<polygon points="343.1,348.4 344.1,326.4 308.3,308.6 361.5,280.3 291.2,235.1 220,276.2 122.9,255.2 83.1,277.8 140,322.4 
				140,322.4 215.8,365.4 215.8,365.4 			"/>
		</g>
		<g>
			<path class="st17" d="M345.2,324.9c0,0.6-0.4,1.1-1.1,1.5l-34.8,20.1c-0.4,0.2-0.8,0.4-1.2,0.5l0,0c-0.4,0.1-0.9,0.1-1.3,0.2
				c0,0,0,0-0.1,0c-0.4,0-0.9-0.1-1.3-0.1h-0.1c-0.4-0.1-0.8-0.2-1.2-0.4c-0.2-0.1-0.3-0.2-0.4-0.3h-0.1c-0.1-0.1-0.2-0.2-0.3-0.4
				l0,0c-0.1-0.1-0.1-0.2-0.2-0.4c0,0,0,0,0-0.1s-0.1-0.2-0.1-0.4l0,0v2.6c0,0.1,0,0.1,0,0.2v0.1l0,0l0,0c0,0.1,0.1,0.1,0.1,0.2
				c0,0,0,0.1,0.1,0.1v0.1c0,0,0,0,0,0.1c0.1,0.1,0.1,0.2,0.2,0.2l0,0c0.1,0.1,0.2,0.1,0.3,0.2c0.1,0,0.1,0.1,0.2,0.1l0,0
				c0.3,0.2,0.5,0.3,0.8,0.4c0.1,0,0.2,0.1,0.3,0.1h0.1c0.1,0,0.1,0,0.2,0.1c0.2,0,0.3,0,0.5,0.1c0.1,0,0.3,0,0.4,0s0.1,0,0.2,0l0,0
				h0.1c0.1,0,0.2,0,0.4,0c0.1,0,0.2,0,0.4,0c0.1,0,0.3,0,0.4-0.1c0.1,0,0.3-0.1,0.4-0.1c0.2-0.1,0.3-0.1,0.5-0.2s0.4-0.2,0.5-0.3
				l34.8-20.1c0.7-0.4,1.1-1,1.1-1.5L345.2,324.9z"/>
		</g>
		<g>
			<path class="st17" d="M347.2,344.1L347.2,344.1c-0.1,0.2-0.1,0.3-0.2,0.4c0,0,0,0,0,0.1c-0.1,0.1-0.2,0.2-0.3,0.3
				c-0.1,0.1-0.2,0.1-0.3,0.2c-0.1,0.1-0.1,0.1-0.2,0.2c-0.3,0.2-0.7,0.3-1.1,0.4c-0.1,0-0.1,0-0.2,0c-0.4,0.1-0.8,0.1-1.3,0.1h-0.1
				c-0.4,0-0.9-0.1-1.3-0.1h-0.1c-0.4-0.1-0.8-0.3-1.2-0.5l-34.8-20.1c-0.7-0.4-1.1-1-1.1-1.5v2.6c0,0.6,0.4,1.1,1.1,1.5l34.8,20.1
				c0.2,0.1,0.4,0.2,0.5,0.3c0.1,0.1,0.3,0.1,0.5,0.2c0.1,0,0.1,0,0.2,0.1l0,0h0.1c0.1,0,0.2,0,0.4,0.1c0.1,0,0.2,0,0.4,0
				c0.1,0,0.2,0,0.4,0h0.1c0,0,0,0,0.1,0s0.1,0,0.2,0s0.3,0,0.4,0c0.2,0,0.3,0,0.5-0.1c0.1,0,0.1,0,0.2-0.1c0.1,0,0.1,0,0.2,0
				s0.2,0,0.3-0.1c0.3-0.1,0.6-0.2,0.8-0.4l0,0c0.1,0,0.1-0.1,0.2-0.1c0.1-0.1,0.2-0.1,0.3-0.2l0,0c0.1-0.1,0.2-0.2,0.2-0.2
				s0,0,0-0.1c0,0,0,0,0-0.1c0,0,0-0.1,0.1-0.1c0-0.1,0.1-0.1,0.1-0.2l0,0l0,0v-0.1c0-0.1,0-0.1,0-0.2v-2.6l0,0
				C347.3,343.8,347.2,344,347.2,344.1z"/>
		</g>
		<g>
			<g>
				<path class="st18" d="M346.2,342.2c1.5,0.8,1.4,2.2,0,3s-3.8,0.8-5.2,0l-34.8-20.1c-1.5-0.8-1.5-2.2,0-3c1.4-0.8,3.8-0.8,5.2,0
					L346.2,342.2z"/>
			</g>
		</g>
		<g>
			<path class="st19" d="M286.5,308.8c0,0-4.4,1.5-2.9,3.9c1.6,2.4,7.5,5.5,8.5,7.1c1,1.5,6.3,6.7,7.6,5.9c1.3-0.8,5-0.6,3.4-7.3
				C301.5,311.8,292.5,307.5,286.5,308.8z"/>
		</g>
		<g>
			<path class="st20" d="M284.9,262.1c0,0-7.1,2.9,1.2,38.9c4.4,18.9,4.4,18.9,4.4,18.9s4.6,7,14.3,0l-4.8-39.5L284.9,262.1z"/>
		</g>
		<g>
			<path class="st19" d="M292.5,327.3c0,0,2.9,6.3-2.5,8.4s-4.1-1.5-15.9,2.8c-11.8,4.4-13.9-1.8-13.7-3.2c0.1-1.4,7.9-4.8,10.5-5.8
				s7.4-2.8,7.4-2.8l14.4-1.5L292.5,327.3z"/>
		</g>
		<g>
			<path class="st19" d="M292.5,327.3c0,0,2.9,6.3-2.5,8.4s-4.1-1.5-15.9,2.8c-11.8,4.4-13.9-1.8-13.7-3.2c0.1-1.4,7.9-4.8,10.5-5.8
				s9.5-3.8,9.5-3.8l12.3-0.5L292.5,327.3z"/>
		</g>
		<g>
			<path class="st20" d="M272.6,271.4c0,0-5.2,2.5,2.8,37.5c4.4,18.9,4.4,18.9,4.4,18.9s4.6,7,14.3,0l-4.8-39.5L272.6,271.4z"/>
		</g>
		<g>
			<path class="st21" d="M290.1,294.9l-4.6-2.3l4.1,37.6c1.3-0.5,2.8-1.2,4.4-2.4L290.1,294.9z"/>
		</g>
		<g>
			<path class="st21" d="M302.7,302.5l-5.9-5.6l4.7,25c1-0.5,2.1-1.1,3.3-2L302.7,302.5z"/>
		</g>
		<g>
			<g>
				<path class="st22" d="M135,212.5c0-0.3,0.1-0.6,0.1-0.9v-0.1c0.1-0.3,0.1-0.6,0.2-0.8v-0.1c0.1-0.2,0.1-0.4,0.2-0.6
					c0-0.1,0.1-0.1,0.1-0.2c0.1-0.2,0.2-0.3,0.3-0.5c0-0.1,0.1-0.1,0.1-0.2l0.1-0.1c0.2-0.2,0.3-0.5,0.5-0.7
					c0.1-0.1,0.1-0.1,0.2-0.2c0.2-0.2,0.5-0.4,0.7-0.6c-0.8,0.5-1.6,0.9-2.4,1.4c-0.3,0.2-0.5,0.3-0.7,0.6c-0.1,0.1-0.1,0.1-0.2,0.2
					c-0.2,0.2-0.4,0.4-0.5,0.7c0,0,0,0-0.1,0.1l0,0c0,0.1-0.1,0.1-0.1,0.2c-0.1,0.1-0.1,0.3-0.2,0.4v0.1c0,0.1-0.1,0.1-0.1,0.2
					c0,0.1-0.1,0.2-0.1,0.3s-0.1,0.3-0.1,0.4v0.1c0,0,0,0,0,0.1c0,0.2-0.1,0.3-0.1,0.5c0,0.1,0,0.2-0.1,0.3v0.1v0.1
					c0,0.2-0.1,0.3-0.1,0.5c0,0.1,0,0.2,0,0.3c0,0,0,0,0,0.1v0.1c0,0.2,0,0.3,0,0.5s0,0.3,0,0.5l0,0l-0.1,40.4l2.4-1.4l0.1-40.4
					C134.9,213.3,135,212.9,135,212.5L135,212.5z"/>
			</g>
			<g>
				<path class="st22" d="M168,232.2c0-0.2,0-0.4,0-0.6c0-0.1,0-0.1,0-0.2c0,0,0,0,0-0.1s0-0.3,0-0.4c0-0.2,0-0.4-0.1-0.6
					c0-0.1,0-0.2,0-0.3v-0.1c0-0.1,0-0.2,0-0.2c0-0.2-0.1-0.4-0.1-0.6c0-0.1-0.1-0.3-0.1-0.4v-0.1v-0.1c-0.1-0.2-0.1-0.4-0.2-0.6
					c0-0.2-0.1-0.4-0.1-0.6l0,0c0,0,0,0,0-0.1c-0.1-0.2-0.1-0.4-0.2-0.6c-0.1-0.2-0.1-0.4-0.2-0.6l0,0l0,0c-0.1-0.2-0.1-0.4-0.2-0.5
					c-0.1-0.2-0.1-0.4-0.2-0.6c0-0.1-0.1-0.1-0.1-0.2v-0.1c0-0.1-0.1-0.2-0.1-0.3c-0.1-0.2-0.2-0.4-0.2-0.5
					c-0.1-0.1-0.1-0.3-0.2-0.4l0,0c0,0,0,0,0-0.1c-0.1-0.2-0.2-0.4-0.3-0.6c-0.1-0.2-0.2-0.4-0.3-0.6l0,0c0,0,0,0,0-0.1
					c-0.2-0.3-0.3-0.6-0.5-0.8c0-0.1-0.1-0.1-0.1-0.2c-0.1-0.3-0.3-0.5-0.5-0.7c-0.1-0.1-0.2-0.3-0.3-0.4l-0.1-0.1
					c-0.1-0.1-0.1-0.2-0.2-0.3c-0.1-0.1-0.2-0.3-0.3-0.4c-0.1-0.1-0.2-0.3-0.3-0.4l-0.1-0.1l0,0c-0.1-0.2-0.3-0.3-0.4-0.5
					c-0.1-0.1-0.2-0.3-0.4-0.4c0,0,0,0-0.1-0.1c0,0,0,0-0.1-0.1s-0.2-0.2-0.2-0.3c-0.1-0.1-0.3-0.3-0.4-0.4
					c-0.1-0.1-0.1-0.1-0.2-0.2l-0.1-0.1l-0.1-0.1c-0.1-0.1-0.3-0.3-0.4-0.4c-0.1-0.1-0.3-0.2-0.4-0.4l0,0l0,0
					c-0.1-0.1-0.2-0.2-0.4-0.3c-0.1-0.1-0.3-0.2-0.4-0.3c-0.1,0-0.1-0.1-0.2-0.1c0,0-0.1,0-0.1-0.1l-0.1-0.1
					c-0.1-0.1-0.2-0.2-0.4-0.2c-0.1-0.1-0.3-0.2-0.4-0.2c0,0-0.1,0-0.1-0.1l-15.4-8.9c-0.1-0.1-0.2-0.1-0.3-0.2
					c-0.1-0.1-0.2-0.1-0.4-0.2c-0.1,0-0.2-0.1-0.3-0.1l0,0l0,0c-0.1-0.1-0.2-0.1-0.4-0.2c-0.1-0.1-0.2-0.1-0.4-0.1h-0.1
					c0,0,0,0-0.1,0s-0.1,0-0.2-0.1c-0.1,0-0.2-0.1-0.4-0.1c-0.1,0-0.2,0-0.3-0.1c0,0,0,0-0.1,0l0,0c-0.1,0-0.3,0-0.4-0.1
					c-0.1,0-0.3,0-0.4,0l0,0l0,0c-0.2,0-0.3,0-0.5,0c-0.1,0-0.2,0-0.3,0H138c0,0,0,0-0.1,0c-0.2,0-0.4,0-0.6,0.1l0,0
					c-0.1,0-0.2,0.1-0.3,0.1s-0.2,0.1-0.3,0.1c0,0,0,0-0.1,0c-0.3,0.1-0.5,0.2-0.8,0.4c-0.8,0.5-1.6,0.9-2.4,1.4
					c0.3-0.1,0.5-0.3,0.8-0.4c0.1,0,0.3-0.1,0.4-0.1c0.1,0,0.2-0.1,0.3-0.1c0.2,0,0.5-0.1,0.7-0.1h0.1c0.2,0,0.5,0,0.8,0l0,0
					c0.3,0,0.6,0.1,0.8,0.1c0,0,0,0,0.1,0c0.3,0.1,0.5,0.1,0.8,0.2h0.1c0.3,0.1,0.6,0.2,0.9,0.3l0,0c0.3,0.1,0.6,0.3,0.9,0.5
					l15.4,8.9c0.3,0.2,0.7,0.4,1,0.6c0,0,0.1,0,0.1,0.1c0.3,0.2,0.6,0.5,0.9,0.7l0,0c0.3,0.3,0.6,0.5,0.9,0.8l0.1,0.1
					c0.3,0.3,0.6,0.6,0.8,0.9c0,0,0,0,0.1,0.1c0.3,0.3,0.6,0.7,0.8,1c0,0,0,0,0,0.1c0.2,0.3,0.4,0.6,0.7,0.9
					c0.1,0.1,0.1,0.2,0.2,0.3c0.1,0.2,0.2,0.3,0.3,0.5c0.2,0.3,0.3,0.5,0.5,0.8s0.4,0.6,0.5,0.9c0,0,0,0.1,0.1,0.1
					c0.2,0.4,0.4,0.8,0.6,1.3c0,0,0,0,0,0.1c0.2,0.4,0.4,0.8,0.5,1.2c0,0.1,0,0.1,0.1,0.2c0.2,0.4,0.3,0.8,0.5,1.2c0,0,0,0,0,0.1
					c0.1,0.4,0.3,0.9,0.4,1.3v0.1c0.1,0.4,0.2,0.8,0.3,1.3v0.1c0.1,0.4,0.2,0.8,0.2,1.2c0,0.1,0,0.1,0,0.2c0.1,0.4,0.1,0.8,0.1,1.2
					v0.1c0,0.4,0,0.9,0,1.3l-0.1,40.4l2.4-1.4l0.1-40.4C168,232.6,168,232.4,168,232.2z"/>
			</g>
			<g>
				<g>
					<path class="st23" d="M155.6,215.4c5.5,3.2,10.1,11.6,10,18.8l-0.1,40.4l-2.4-1.4l0.1-40.3c0-5.6-3.4-12.2-7.6-14.6l-15.4-8.9
						c-4.2-2.4-7.7,0.2-7.7,5.8l-0.1,40.4L130,254l0.1-40.4c0-7.2,4.6-10.4,10.1-7.2L155.6,215.4z"/>
				</g>
			</g>
		</g>
		<g>
			<g class="st4">
				<g>
					<defs>
						<path id="SVGID_1_" d="M120.7,153.3c1,7.6,2,15.3,2.9,22.9c0.5,3.8,1,7.7,1.5,11.5c1,7.6,2,15.3,2.9,22.9c0,0-0.1-0.1-0.2-0.2
							l-7.3-56.4C120.7,153.8,120.7,153.5,120.7,153.3z"/>
					</defs>
					<clipPath id="SVGID_00000173843065641021708540000014500874817131132810_">
						<use xlink:href="#SVGID_1_"  style="overflow:visible;"/>
					</clipPath>
					<g style="clip-path:url(#SVGID_00000173843065641021708540000014500874817131132810_);enable-background:new    ;">
						<g>
							<path class="st25" d="M127.8,210.4l-7.3-56.4l0,0L127.8,210.4L127.8,210.4L127.8,210.4z"/>
						</g>
						<g>
							<path class="st26" d="M127.8,210.4l-7.3-56.4c0,0,0-0.1,0.1-0.1L127.8,210.4C127.9,210.5,127.8,210.5,127.8,210.4
								L127.8,210.4z"/>
						</g>
						<g>
							<path class="st27" d="M127.9,210.5l-7.3-56.6v-0.1L127.9,210.5L127.9,210.5L127.9,210.5z"/>
						</g>
						<g>
							<path class="st28" d="M127.9,210.5l-7.3-56.7c0,0,0,0,0-0.1L127.9,210.5C128,210.5,127.9,210.5,127.9,210.5L127.9,210.5z"/>
						</g>
						<g>
							<path class="st29" d="M128,210.5l-7.3-56.8c0,0,0,0,0-0.1L128,210.5L128,210.5L128,210.5z"/>
						</g>
						<g>
							<path class="st30" d="M128,210.5l-7.3-56.8c0,0,0,0,0-0.1L128,210.5L128,210.5L128,210.5z"/>
						</g>
						<g>
							<path class="st31" d="M128,210.5l-7.3-56.9c0,0,0,0,0-0.1L128,210.5C128,210.6,128,210.5,128,210.5L128,210.5z"/>
						</g>
						<g>
							<path class="st32" d="M128,210.6l-7.3-57c0,0,0,0,0-0.1L128,210.6L128,210.6L128,210.6z"/>
						</g>
						<g>
							<path class="st33" d="M128,210.6l-7.3-57.1c0,0,0,0,0-0.1L128,210.6L128,210.6L128,210.6z"/>
						</g>
						<g>
							<path class="st34" d="M128,210.6l-7.3-57.2v-0.1L128,210.6L128,210.6L128,210.6z"/>
						</g>
						<g>
							<path class="st35" d="M128,210.6l-7.4-57.3l0,0l0.4,2.8l0.4,2.8l0.4,2.9l0.4,2.9l0.4,2.9l0.4,2.9l0.7,5.7l0.4,2.9l0.4,2.9
								l0.7,5.8l0.4,2.9l0.4,2.9l0.4,2.9l0.4,2.9l0.4,2.9l0.4,2.9l0.4,2.9L128,210.6C128.1,210.6,128,210.6,128,210.6L128,210.6z"/>
						</g>
					</g>
				</g>
			</g>
			<g>
				<g>
					<path class="st36" d="M120.6,152.9c2.4,18.5,5.4,37.8,7.8,56.3c-12.2,7.1-25.8,14.7-38,21.8c-2.4-18.5-4.9-37.9-7.3-56.4
						C95.3,167.5,108.3,160,120.6,152.9z"/>
				</g>
			</g>
			<g>
				<path class="st37" d="M120.7,152.3L120.7,152.3L120.7,152.3c0-0.1,0-0.1,0-0.1s0,0,0-0.1c0,0,0,0,0-0.1c0,0,0,0,0-0.1
					c0,0,0,0,0-0.1v-0.1v-0.1l0,0l0,0v-0.1c0,0,0-0.1-0.1-0.1c0,0,0-0.1-0.1-0.1l0,0l-0.1-0.1l-0.1-0.1l0,0l0,0l0,0l-0.1-0.1
					c0,0-0.1,0-0.1-0.1l0,0l0,0l-0.1-0.1c-0.1,0-0.1,0-0.2-0.1l0,0l-0.4-0.2h-0.1c-0.1,0-0.1,0-0.2,0s-0.1,0-0.2,0l0,0l0,0
					c-0.1,0-0.1,0-0.2,0s-0.1,0-0.2,0h-0.1l0,0l0,0c-0.1,0-0.1,0-0.2,0s-0.1,0-0.2,0h-0.1l0,0l0,0c-0.1,0-0.1,0-0.2,0.1
					c-0.1,0-0.1,0.1-0.2,0.1l-1.9,1.1l-1.9,1.1l-1.9,1.1c-1.9,1.1-3.8,2.2-5.6,3.3l-0.1,0.1l-0.3,0.2c-1.7,1-3.5,2-5.2,3l-0.3,0.1
					l-0.2,0.1c-2.3,1.3-4.6,2.7-6.9,4l-0.6,0.3L91,166c-2,1.2-4,2.3-6,3.5l0,0l-1.9,1.1l-0.6,0.3c-1.1,0.6-2.1,1.2-3.2,1.9
					c0,0,0,0,0.1,0l0,0c0.2,0,0.5,0.1,0.9,0.3l0.4,0.2c0.3,0.1,0.7,0.3,1,0.4h0.1l0,0c0.5,0.2,0.9,0.4,1.2,0.6l0,0l0,0
					c0.1,0,0.1,0.1,0.2,0.1l37.5-21.6l0,0l0,0l0,0l0,0l0,0l0,0l0,0l0,0l0,0l0,0l0,0l0,0l0,0l0,0l0,0
					C120.7,152.4,120.7,152.4,120.7,152.3L120.7,152.3z"/>
			</g>
			<g>
				<path class="st38" d="M83.1,174.6C83.1,174.5,83,174.5,83.1,174.6c-0.1-0.1-0.2-0.1-0.2-0.1s0,0-0.1,0c0,0,0,0-0.1,0
					c0,0,0,0-0.1,0c0,0,0,0-0.1,0l0,0c0,0,0,0-0.1,0h-0.1h-0.1c0,0-0.1,0-0.1-0.1c-0.1,0-0.1,0-0.2-0.1l0,0c0,0-0.1-0.1-0.2-0.1l0,0
					l0,0c-0.2-0.1-0.4-0.2-0.7-0.3l0,0l0,0c-0.2-0.1-0.4-0.2-0.6-0.3l-0.4-0.2c-0.7-0.3-1-0.4-1-0.3c0.2,1.7,0.5,4,0.7,5.7l0.7,5.7
					l0.7,5.7c0.7,5.4,1.4,10.7,2.1,16.1l0.2,1.2l0.4,2.9l0.1,0.7c0.6,4.6,1.2,9.1,1.8,13.7l0,0v0.1c0.2,1.9,0.5,3.8,0.7,5.6
					c0.1,0.6,0.5,1.1,1.2,1.4l0.4,0.2c0.2,0.1,0.4,0.1,0.6,0.1l0,0l0,0c0.1,0,0.2,0,0.3,0H89l0,0h0.1c0.1,0,0.1,0,0.2,0l0,0h0.1
					c0,0,0,0,0.1,0c0,0,0,0,0.1,0s0.1,0,0.1-0.1c0,0,0,0,0.1,0l0,0l0,0c0,0,0.1,0,0.1-0.1c0,0,0.1,0,0.1-0.1c0,0,0,0,0.1,0l0,0
					c0,0,0,0,0.1,0c0,0,0,0,0.1-0.1c0,0,0,0,0.1-0.1l0,0l0,0l0,0l0.1-0.1c0,0,0-0.1,0.1-0.1L83.1,174.6z"/>
			</g>
		</g>
		<g>
			<g>
				<path class="st38" d="M130.4,251.5L130.4,251.5C130.4,251.4,130.4,251.4,130.4,251.5c0-0.1,0-0.1,0-0.2l0,0c0-0.1,0-0.2,0-0.3
					l-40.9-23.8c-0.1,0-0.3,0.6-0.4,0.6l0.8,0.1l0,0l0,0h-0.1h-0.1h-0.1l0,0l0,0l0,0c0,0-0.1,0-0.1,0.1c0,0-0.1,0-0.1,0.1
					c0,0,0,0-0.1,0.1l0,0l0,0l-0.1,0.1l-0.1,0.1l0,0l0,0l-0.1,0.1c0,0,0,0.1-0.1,0.1c0,0,0,0.1-0.1,0.1l0,0v0.1
					c0,0.1-0.1,0.2-0.1,0.2s0,0,0,0.1c0,0,0,0,0,0.1c0,0.2-0.1,0.4-0.1,0.6v0.5c0,0.9-1.6,0.7-1,1.1c0.7,0.4,3.5,1.7,4.2,2.2
					l1.8,1.1l2,1.2l2,1.2l1,0.6c1.1,0.6,2.1,1.2,3.2,1.8l2,1.1l2,1.2l2,1.2l2,1.2l2.1,1.2l2.1,1.2l2,1.2l2,1.2l1.9,1.1
					c0.1,0.1,0.2,0.1,0.3,0.2l1.9,1.1l2,1.2l2,1.2l2,1.2l2,1.2c0,0,0-0.5,0-1.4v-0.5c0-0.3,0-0.7,0-1c0-0.1,0-0.1,0-0.2
					c0-0.1,0-0.2,0-0.3s0-0.2,0-0.3s0-0.1,0-0.2c0-0.1,0-0.1,0-0.2V252v-0.1C130.4,251.6,130.4,251.6,130.4,251.5L130.4,251.5z"/>
			</g>
			<g>
				<g>
					<path class="st37" d="M167.9,229.1c-12.2,7.1-25.3,14.7-37.6,21.8c-13.1-7.6-27.4-16-40.5-23.6c12.3-7.1,25.7-14.3,38-21.4
						C140.9,213.5,154.8,221.6,167.9,229.1z"/>
				</g>
			</g>
			<g>
				<path class="st39" d="M169.6,231.1c0-0.1,0-0.1,0-0.2l0,0l0,0v-0.1c0-0.1,0-0.1,0-0.2v-0.1l0,0l0,0c0,0,0-0.1-0.1-0.1
					c0,0,0-0.1-0.1-0.1l0,0l0,0v-0.1c0,0,0-0.1-0.1-0.1c0,0,0-0.1-0.1-0.1l0,0l0,0l0,0c0,0,0,0-0.1-0.1c0,0,0,0-0.1-0.1
					c0,0,0,0-0.1-0.1l0,0c0,0,0,0-0.1,0c0,0,0,0-0.1,0c0,0,0,0-0.1,0c0,0-0.1,0-0.1-0.1c0,0,0,0-0.1,0h-0.1l0,0l0,0l0,0l0,0l0,0l0,0
					l0,0l0,0l0,0l0,0l0,0l0,0l0,0l0,0L130.4,251l0,0l0,0l0,0l0,0l0,0l0,0l0,0l0,0l0,0l0,0l0,0l0,0l0,0v0.1l0,0l0,0
					c0,0.4,0,0.9,0,1.4c0,0,0,0,0,0.1s0,0.1,0,0.2c0,0.1,0,0.1,0,0.2c0,0.1,0,0.1,0,0.2c0,0.1,0,0.1,0,0.2c0,0.1,0,0.1,0,0.2
					s0,0.1,0,0.2v0.5c0,0.2,0,0.3,0,0.4v0.1v0.1c0,0.1,0,0.1,0,0.2l0,0v0.1c0,0,0,0,0,0.1s0,0.1,0,0.2c0,0,0,0,0,0.1s0,0.1,0,0.1
					l1.9-1.1l1.2-0.7c2.1-1.2,4.2-2.4,6.3-3.7h0.1l1.9-1.1l1.9-1.1l1.1-0.7c0.8-0.4,1.5-0.9,2.3-1.3l0.4-0.2l0.2-0.1
					c1.9-1.1,3.7-2.2,5.6-3.3l3.8-2.2c2.6-1.5,5.1-3,7.6-4.4l3.8-2.2c0.1-0.1,0.3-0.2,0.4-0.3l0,0l0,0l0.1-0.1
					c0-0.1,0.1-0.1,0.1-0.2c0,0,0-0.1,0.1-0.1l0,0l0,0c0-0.1,0.1-0.1,0.1-0.2c0-0.1,0-0.1,0.1-0.2v-0.1l0,0l0,0c0-0.1,0-0.1,0-0.2
					c0-0.1,0-0.1,0-0.2c0-0.1,0-0.1,0-0.2l0,0v-0.5C169.6,231.2,169.6,231.1,169.6,231.1z"/>
			</g>
		</g>
		<g>
			<polygon class="st39" points="120.6,152.9 83.1,174.6 89.9,227.4 127.8,206 			"/>
		</g>
		<g>
			<polygon class="st37" points="122.9,170.4 85.3,192 88.4,215.8 126.2,193.1 			"/>
		</g>
		<g>
			<path d="M179.9,280.3c0,0,0.4,5.4,2.7,8.3s13,9.7,12.2,12.6s-8.6,3.1-13.4-1.9c-4.8-5-6.1-5.7-8.2-6.2c-2.1-0.5-5-3.1-2.8-7.6
				C170.5,285.5,177.2,283.7,179.9,280.3z"/>
		</g>
		<g>
			<path d="M166.1,290.2c0,0,0.8,5.6,3.4,8.5c2.6,2.9,14.3,9.3,13.7,12.4c-0.7,3.1-8.8,3.8-14.1-1.1c-5.4-4.9-6.8-5.6-9-6
				s-5.4-2.9-3.4-7.8C156.6,296.3,163.5,294,166.1,290.2z"/>
		</g>
		<g>
			<path class="st40" d="M137.8,209.6c0,0,38.8,21.7,41.1,28.6c3.4,9.8,2.7,16.5,1.1,40.9l0.1,5.7c0,0-5,4-10.4,1.3
				c-1.7-0.9,0-16.9-2.7-25.8c0,0-0.8-10.6,0-13.4c0,0-31.3-10.9-38.6-17.6C121.1,222.6,137.8,209.6,137.8,209.6z"/>
		</g>
		<g>
			<path class="st41" d="M104.8,216.4c0,0-6.2,14,10.2,22.4c17.4,9,35.9,19.9,35.9,19.9s-0.5,11,0.9,17.7c1.8,9,4.6,20.7,4.6,20.7
				s7.5,3,11.7-1.1c0,0,0.4-43.2-4.7-48.1c-5.1-4.9-30.5-24.2-30.5-24.2l4.9-14.2L104.8,216.4z"/>
		</g>
		<g>
			<path class="st40" d="M115,238.9c17.4,9,35.9,19.9,35.9,19.9s-0.5,11,0.9,17.7c1.8,9,3.2,20.3,3.2,20.3s2.7,0.9,4.5,0.9
				c-2.6-11.6-3.7-37.4-4.9-42.2c-1.5-5.9-19.9-12.2-32.9-19.1c-13.1-6.9-13.7-20.6-13.7-20.6l-3.2,0.7
				C104.8,216.4,98.6,230.4,115,238.9z"/>
		</g>
		<g>
			<path class="st41" d="M181.3,278.3c1.6-24.4,0.9-30.3-2.4-40.1c-2.4-6.9-41.1-28.6-41.1-28.6s-2.1,1.7-4.5,4.1
				c10.5,5.2,35.5,18.2,40.2,27c5.4,10.1,1.4,38.2,1.9,46.2c2.4-0.2,5.6-1.4,5.6-1.4L181.3,278.3z"/>
		</g>
		<g>
			<path class="st42" d="M153.8,201.4c0,0,5.3-0.9,7.6,1s4.1,2.5,5.1,4.5s-0.2,3-1.9,2.9c-1.8-0.1-4.7-1-7.3-2.7
				c-2.7-1.7-3.1-1.3-4-1.4C152.3,205.6,151.2,203,153.8,201.4z"/>
		</g>
		<g>
			<path class="st43" d="M130.6,160.3c2.6-0.3,6.7,1.2,6.6,8.1c-0.2,6.9-0.8,26.1-0.8,26.1s17.8,5.3,19.7,6.2c0,0-3.6,1.6-2.7,5.3
				c0,0-20.6,0.4-24.3-4.5C125.4,196.6,120,161.5,130.6,160.3z"/>
		</g>
		<g>
			<path class="st43" d="M100.5,174c0,0,6.2-10.7,30.7-14.2c0,0,3.9-1.6,3.5,11c-0.1,1.8,1.8,5,3.1,6.6c1.3,1.7,4.7,8-2.8,15.6
				c0,0-2.9,11.3,0.6,18.6c3.1,6.5-13,12.9-26.7,11.6c-1.7-0.2-5.4-1.3-3.9-7.2s5-16.2,2.2-27C104.4,178.3,98.7,179.5,100.5,174z"/>
		</g>
		<g>
			<path class="st44" d="M100.5,174c-1.8,5.5,3.9,4.2,6.6,15.1c2.8,10.8-0.7,21.1-2.2,27s2.3,7,3.9,7.2c2.3,0.2,4.6,0.2,6.9,0.1
				c-4.8-10.5,1.3-29.6,1.7-40.2c0.3-11.2-9.8-15.5-9.8-15.5C102.3,171,100.5,174,100.5,174z"/>
		</g>
		<g>
			<path class="st45" d="M135.6,211.7c-3.4-7.3-0.6-18.6-0.6-18.6c7.5-7.6,4.1-13.9,2.8-15.6c-1.3-1.7-3.2-4.8-3.1-6.6
				c0.1-5-0.4-7.8-1.1-9.3c-1.4,1.7-4.3,1.1-3.3,6.9c0.6,3.5-0.6,8.6-6,8.6c-5.4,0-2.3,8.6-2,11c2.2,16.6-6.7,24.4-3.8,34.9
				C129,221.6,138,216.7,135.6,211.7z"/>
		</g>
		<g>
			<g>
				<path class="st46" d="M126.8,140.2c0,0-1.6,12.7-2.4,24.7c-0.1,1.7,1.8,4.8,5,4c0,0,9.2-14.3,1.8-28.5
					c-2.3-4.5-10.7-10.8-20.3-4.2L126.8,140.2z"/>
			</g>
			<g>
				<g>
					<path class="st47" d="M129.4,156.8c0,0-4.4,5.1-2.4,10.6c0.6,1.5,1.9,7.7-7.5,5.2c0,0-9.8-5-6.8-7.9c2-2,3.9-4.8,1-14.9
						L129.4,156.8z"/>
				</g>
				<g>
					<path class="st48" d="M112.7,164.7c-0.3,0.3-0.5,0.6-0.5,1c9,1.8,15.2-4.5,15.2-4.5l-11.6-10.4l0,0c0,0-0.6,0.4-1.5,1.1
						C116.3,160.3,114.5,162.9,112.7,164.7z"/>
				</g>
			</g>
			<g>
				<path class="st49" d="M127.9,138.9c0,0,2.5,0.9,2.6,8.4c0,0.8,1.3,1.9,1.7,4c0.3,2.1,0.8,10.5-4.1,11.3
					c-3.5,0.6-12.2-1.6-15.1-10.1C110.1,144.1,117.4,133.3,127.9,138.9z"/>
			</g>
			<g>
				<path class="st50" d="M127.4,141.9c0,0-21.6,7.9-5.4,35.6c0,0-11.2,1.1-16.2-8.6c-2.4-4.7-1.4-14-0.7-23c0,0,2.5-13.8,14-11.7
					C119.1,134.2,126.7,137.2,127.4,141.9z"/>
			</g>
			<g>
				<path class="st46" d="M127.4,141.9c0,0,3.8-0.7,5.6,6.2c0,0-0.6-19.6-19.2-13.7C113.8,134.4,124.9,135,127.4,141.9z"/>
			</g>
			<g>
				<path class="st49" d="M117.3,154c0,0-1.3-4.2-3.7-2.9c-0.8,0.4-1.6,1.3-0.4,3.4c1.1,2.1,3.5,4.1,5.4,3.9L117.3,154z"/>
			</g>
		</g>
		<g>
			<g>
				<path class="st51" d="M138.5,237.5v-16.9l25.6-14.9v16.9c0,1.2-0.4,2-1.1,2.4l-25.6,14.9C138.1,239.5,138.5,238.7,138.5,237.5z"
					/>
			</g>
			<g>
				<g>
					<path class="st52" d="M134.9,214.3c-2-1.2-3.7-0.2-3.7,2.1v16.9c0,2.3,1.6,5.2,3.7,6.3c2,1.2,3.7,0.2,3.7-2.1v-16.9
						C138.5,218.3,136.9,215.5,134.9,214.3z"/>
				</g>
			</g>
			<g>
				<g>
					<path class="st52" d="M134.9,214.3c-2-1.2-3.7-0.2-3.7,2.1v16.9c0,2.3,1.6,5.2,3.7,6.3c2,1.2,3.7,0.2,3.7-2.1v-16.9
						C138.5,218.3,136.9,215.5,134.9,214.3z"/>
				</g>
			</g>
			<g>
				<path class="st53" d="M134.7,215.6c1.6,0.9,2.9,3.1,2.9,5v1.4l-5.7-3.5v-1.2C131.8,215.4,133.1,214.7,134.7,215.6z"/>
			</g>
			<g>
				<path class="st51" d="M134.7,215.6c0.3,0.2,0.6,0.4,0.9,0.7l-3.8,2v-1.1C131.8,215.4,133.1,214.7,134.7,215.6z"/>
			</g>
			<g>
				<path class="st53" d="M157.9,199.1L157.9,199.1c0.1,0,0.1-0.1,0.2-0.1c0.1,0,0.1,0,0.2-0.1h0.1l0,0l0,0c0.1,0,0.1,0,0.2,0
					c0.1,0,0.2,0,0.2,0h0.1c0,0,0,0,0.1,0s0.1,0,0.1,0c0.1,0,0.2,0,0.3,0.1h0.1c0,0,0.1,0,0.1,0.1c0.1,0,0.1,0,0.2,0.1
					c0.2,0.1,0.3,0.2,0.5,0.3c0.4,0.3,0.8,0.6,1.2,1c0.1,0.1,0.1,0.1,0.2,0.2c0,0,0,0,0.1,0.1s0.1,0.1,0.2,0.2
					c0.1,0.1,0.2,0.2,0.3,0.4c0.1,0.1,0.2,0.2,0.2,0.3c0.1,0.1,0.1,0.2,0.2,0.3c0.1,0.1,0.1,0.2,0.2,0.3c0.1,0.1,0.1,0.2,0.2,0.3
					c0.1,0.1,0.1,0.2,0.2,0.3c0.1,0.1,0.1,0.2,0.1,0.3s0.1,0.2,0.1,0.3s0.1,0.2,0.1,0.4c0,0.1,0,0.1,0.1,0.2l0,0v0.1
					c0,0.1,0.1,0.3,0.1,0.4c0,0.2,0.1,0.3,0.1,0.5s0,0.5,0,0.7v10.5l-25.7,15.1v-10.7c0-0.6-0.1-1.2-0.3-1.8l0,0
					c-0.2-0.6-0.4-1.2-0.8-1.8l0,0c-0.3-0.6-0.7-1.1-1.1-1.5c0,0,0,0-0.1-0.1c-0.4-0.5-0.9-0.8-1.4-1.1c-0.2-0.1-0.5-0.2-0.7-0.3
					c-0.1,0-0.1,0-0.1,0c-0.2-0.1-0.4-0.1-0.6-0.1c0,0,0,0-0.1,0c-0.2,0-0.4,0-0.6,0l0,0c-0.2,0-0.4,0.1-0.5,0.2L157.9,199.1z"/>
			</g>
			<g>
				<g class="st4">
					<g>
						<g>
							<polygon class="st54" points="150.4,222.2 149.9,221.9 149.9,225.9 150.4,226.2 							"/>
						</g>
					</g>
					<g>
						<g>
							<polygon class="st55" points="154.7,219.7 154.2,219.4 149.9,221.9 150.4,222.2 							"/>
						</g>
					</g>
					<g>
						<g>
							<polygon class="st56" points="150.4,222.2 150.4,226.2 154.7,223.7 154.7,219.7 							"/>
						</g>
					</g>
				</g>
			</g>
			<g>
				<path class="st57" d="M157.9,199.1c0.1,0,0.1-0.1,0.2-0.1c0.1,0,0.1,0,0.2-0.1h0.1l0,0l0,0c0.1,0,0.1,0,0.2,0c0.1,0,0.2,0,0.2,0
					h0.1c0,0,0,0,0.1,0s0.1,0,0.1,0c0.1,0,0.2,0,0.3,0.1h0.1c0,0,0.1,0,0.1,0.1c0.1,0,0.1,0,0.2,0.1c0.2,0.1,0.3,0.2,0.5,0.3
					c0.4,0.3,0.8,0.6,1.2,1c0.1,0.1,0.1,0.1,0.2,0.2c0,0,0,0,0.1,0.1s0.1,0.1,0.2,0.2c0.1,0.1,0.2,0.2,0.3,0.4
					c0.1,0.1,0.2,0.2,0.2,0.3c0.1,0.1,0.1,0.2,0.2,0.3c0.1,0.1,0.1,0.2,0.2,0.3c0.1,0.1,0.1,0.2,0.2,0.3c0.1,0.1,0.1,0.2,0.2,0.3
					c0.1,0.1,0.1,0.2,0.1,0.3s0.1,0.2,0.1,0.3s0.1,0.2,0.1,0.4c0,0.1,0,0.1,0.1,0.2l0,0v0.1c0,0.1,0.1,0.3,0.1,0.4
					c0,0.2,0.1,0.3,0.1,0.5s0,0.5,0,0.7v10.1c-5.9-12.2-26.8-3.2-31.1-2.1c-0.1,0-0.2,0-0.3,0l0,0c-0.2,0-0.4,0.1-0.5,0.2
					L157.9,199.1L157.9,199.1z"/>
			</g>
			<g>
				<g>
					<polygon class="st51" points="152.1,203.7 151,203.1 151,205.2 152.1,205.8 					"/>
				</g>
			</g>
			<g>
				<polygon class="st58" points="144.4,206.8 144.4,208.1 144.4,210.2 143.4,209.6 143.4,207.5 143.4,206.2 				"/>
			</g>
			<g>
				<polygon class="st59" points="144.3,205.6 151,201.8 152,201.2 153,201.9 152.1,202.4 145.4,206.3 144.4,206.8 143.4,206.2 				
					"/>
			</g>
			<g>
				<g>
					<polygon class="st53" points="144.4,206.8 144.4,208.1 144.4,210.2 145.4,209.7 145.4,207.5 152.1,203.7 152.1,205.8 
						153.1,205.3 153.1,203.1 153,201.9 152.1,202.4 145.4,206.3 					"/>
				</g>
			</g>
			<g>
				<path class="st57" d="M134.8,239.6c-2-1.2-3.7-4-3.7-6.3v-8.6c1.2,3.9,3.5,9.7,7.3,11.5v1.4
					C138.5,239.8,136.8,240.8,134.8,239.6z"/>
			</g>
		</g>
		<g>
			<path class="st42" d="M132.8,209.1c0,0,5.4,0.2,7.3,2.5c1.9,2.3,4.4,4.7,5,6.8s0.2,2.9-1.5,2.5s-6.2-3.3-8.5-5.5
				c-2.3-2.1-2.8-1.8-3.6-2.2C130.6,212.9,130,210.2,132.8,209.1z"/>
		</g>
		<g>
			<g>
				<path class="st22" d="M92.6,237.5c0-0.3,0.1-0.6,0.1-0.9v-0.1c0.1-0.3,0.1-0.6,0.2-0.8v-0.1c0.1-0.2,0.1-0.4,0.2-0.6
					c0-0.1,0.1-0.1,0.1-0.2c0.1-0.2,0.2-0.3,0.3-0.5c0-0.1,0.1-0.1,0.1-0.2l0.1-0.1c0.2-0.2,0.4-0.5,0.5-0.7
					c0.1-0.1,0.1-0.1,0.2-0.2c0.2-0.2,0.5-0.4,0.7-0.6c-0.8,0.5-1.6,0.9-2.4,1.4c-0.3,0.2-0.5,0.4-0.7,0.6c-0.1,0.1-0.1,0.1-0.2,0.2
					c-0.2,0.2-0.4,0.4-0.5,0.7c0,0,0,0-0.1,0.1l0,0c0,0.1-0.1,0.1-0.1,0.2c-0.1,0.1-0.1,0.3-0.2,0.4v0.1c0,0.1-0.1,0.1-0.1,0.2
					c0,0.1-0.1,0.2-0.1,0.3c-0.1,0.1-0.1,0.3-0.1,0.4v0.1c0,0,0,0,0,0.1c0,0.2-0.1,0.3-0.1,0.5c0,0.1,0,0.2-0.1,0.3v0.1v0.1
					c0,0.2,0,0.3-0.1,0.5c0,0.1,0,0.2,0,0.4l0,0v0.1c0,0.2,0,0.3,0,0.5s0,0.3,0,0.5l0,0L90,280.6l2.4-1.4l0.1-40.5
					C92.5,238.3,92.6,237.9,92.6,237.5L92.6,237.5z"/>
			</g>
			<g>
				<path class="st22" d="M125.8,257.3c0-0.2,0-0.4,0-0.6c0-0.1,0-0.1,0-0.2c0,0,0,0,0-0.1s0-0.3,0-0.4c0-0.2,0-0.4-0.1-0.6
					c0-0.1,0-0.2,0-0.2c0-0.1,0-0.1,0-0.1c0-0.1,0-0.2,0-0.2c0-0.2-0.1-0.4-0.1-0.6c0-0.1,0-0.3-0.1-0.4v-0.1v-0.1
					c0-0.2-0.1-0.4-0.1-0.6c0-0.2-0.1-0.4-0.1-0.6l0,0c0,0,0,0,0-0.1c-0.1-0.2-0.1-0.4-0.2-0.6c-0.1-0.2-0.1-0.4-0.2-0.6
					c0,0,0,0,0-0.1l0,0c-0.1-0.2-0.1-0.4-0.2-0.5c-0.1-0.2-0.1-0.4-0.2-0.6c0-0.1-0.1-0.1-0.1-0.2v-0.1c0-0.1-0.1-0.2-0.1-0.3
					c-0.1-0.2-0.2-0.4-0.2-0.6c-0.1-0.1-0.1-0.3-0.2-0.4l0,0c0,0,0,0,0-0.1c-0.1-0.2-0.2-0.4-0.3-0.6c-0.1-0.2-0.2-0.4-0.3-0.6l0,0
					c0,0,0,0,0-0.1c-0.2-0.3-0.3-0.6-0.5-0.9c0-0.1-0.1-0.1-0.1-0.2c-0.2-0.3-0.3-0.5-0.5-0.7c-0.1-0.1-0.2-0.3-0.2-0.4l-0.1-0.1
					c-0.1-0.1-0.1-0.2-0.2-0.3s-0.2-0.3-0.3-0.4c-0.1-0.1-0.2-0.3-0.3-0.4c0,0,0-0.1-0.1-0.1l0,0c-0.1-0.2-0.3-0.3-0.4-0.5
					c-0.1-0.1-0.2-0.3-0.4-0.4c0,0,0,0-0.1-0.1c0,0,0,0-0.1-0.1s-0.2-0.2-0.3-0.3c-0.1-0.1-0.3-0.3-0.4-0.4
					c-0.1-0.1-0.1-0.1-0.2-0.2l-0.1-0.1l-0.1-0.1c-0.1-0.1-0.3-0.3-0.4-0.4c-0.1-0.1-0.3-0.2-0.4-0.4l0,0l0,0
					c-0.1-0.1-0.3-0.2-0.4-0.3s-0.3-0.2-0.4-0.3c-0.1,0-0.1-0.1-0.2-0.1l-0.1-0.1l-0.1-0.1c-0.1-0.1-0.3-0.2-0.4-0.2
					c-0.1-0.1-0.3-0.2-0.4-0.2c0,0-0.1,0-0.1-0.1l-15.4-8.9c-0.1-0.1-0.2-0.1-0.3-0.2c-0.1-0.1-0.2-0.1-0.4-0.2
					c-0.1,0-0.2-0.1-0.3-0.1l0,0l0,0c-0.1-0.1-0.2-0.1-0.4-0.2c-0.1,0-0.2-0.1-0.4-0.1h-0.1c0,0,0,0-0.1,0s-0.1,0-0.2-0.1
					c-0.1,0-0.2-0.1-0.4-0.1c-0.1,0-0.2,0-0.3-0.1c0,0,0,0-0.1,0c0,0,0,0-0.1,0s-0.3,0-0.4-0.1c-0.1,0-0.3,0-0.4,0l0,0l0,0
					c-0.2,0-0.3,0-0.4,0s-0.2,0-0.3,0h-0.1h-0.1c-0.2,0-0.4,0-0.6,0.1c0,0,0,0-0.1,0s-0.2,0.1-0.3,0.1c-0.1,0-0.2,0.1-0.3,0.1
					c0,0,0,0-0.1,0c-0.3,0.1-0.5,0.2-0.8,0.4c-0.8,0.5-1.6,0.9-2.4,1.4c0.2-0.1,0.5-0.3,0.8-0.4c0.1-0.1,0.3-0.1,0.4-0.1
					s0.2-0.1,0.3-0.1c0.2,0,0.5-0.1,0.7-0.1h0.1c0.3,0,0.5,0,0.8,0l0,0c0.3,0,0.6,0.1,0.8,0.1l0,0c0.3,0.1,0.6,0.1,0.8,0.2H96
					c0.3,0.1,0.6,0.2,0.9,0.4l0,0c0.3,0.1,0.6,0.3,0.9,0.5l15.4,8.9c0.3,0.2,0.7,0.4,1,0.6c0,0,0.1,0,0.1,0.1
					c0.3,0.2,0.6,0.5,0.9,0.7l0,0c0.3,0.3,0.6,0.5,0.9,0.8l0.1,0.1c0.3,0.3,0.6,0.6,0.8,0.9c0,0,0,0,0.1,0.1c0.3,0.3,0.6,0.7,0.8,1
					l0,0c0.2,0.3,0.4,0.6,0.6,0.9c0.1,0.1,0.1,0.2,0.2,0.3c0.1,0.2,0.2,0.3,0.3,0.5c0.2,0.3,0.3,0.5,0.5,0.8s0.4,0.6,0.5,1
					c0,0,0,0.1,0.1,0.1c0.2,0.4,0.4,0.8,0.6,1.3c0,0,0,0,0,0.1c0.2,0.4,0.4,0.8,0.5,1.2c0,0.1,0,0.1,0.1,0.2
					c0.2,0.4,0.3,0.8,0.5,1.3c0,0,0,0,0,0.1c0.2,0.4,0.3,0.9,0.4,1.3v0.1c0.1,0.4,0.2,0.8,0.3,1.3v0.1c0.1,0.4,0.2,0.8,0.2,1.2
					c0,0.1,0,0.1,0,0.2c0.1,0.4,0.1,0.8,0.1,1.2v0.1c0,0.4,0,0.9,0,1.3l-0.1,40.5l2.4-1.4l0.1-40.5
					C125.8,257.6,125.8,257.5,125.8,257.3z"/>
			</g>
			<g>
				<g>
					<path class="st23" d="M113.3,240.4c5.6,3.2,10.1,11.7,10.1,18.9l-0.1,40.5l-2.4-1.4l0.1-40.5c0-5.7-3.4-12.3-7.7-14.7
						l-15.4-8.9c-4.2-2.4-7.7,0.2-7.7,5.8L90,280.6l-2.4-1.4l0.1-40.5c0-7.2,4.6-10.4,10.1-7.2L113.3,240.4z"/>
				</g>
			</g>
		</g>
		<g>
			<g class="st4">
				<g>
					<g>
						<polygon class="st60" points="332.7,287.2 336.3,285.1 336.5,200.7 332.9,202.8 						"/>
					</g>
				</g>
				<g>
					<g>
						<polygon class="st61" points="332.9,202.8 336.5,200.7 287.5,172.4 283.9,174.5 						"/>
					</g>
				</g>
				<g>
					<g>
						<polygon class="st10" points="283.9,174.5 283.6,258.9 332.7,287.2 332.9,202.8 						"/>
					</g>
				</g>
			</g>
		</g>
		<g>
			<g class="st4">
				<g>
					<g>
						<polygon class="st62" points="210.6,359 214.2,356.8 214.4,272.5 210.8,274.6 						"/>
					</g>
				</g>
				<g>
					<g>
						<polygon class="st61" points="210.8,274.6 214.4,272.5 165.4,244.2 161.8,246.3 						"/>
					</g>
				</g>
				<g>
					<g>
						<polygon class="st10" points="161.8,246.3 161.5,330.6 210.6,359 210.8,274.6 						"/>
					</g>
				</g>
			</g>
		</g>
		<g>
			<g class="st4">
				<g>
					<g>
						<polygon class="st63" points="139.8,252 139.8,257.4 203,294.1 203,288.7 						"/>
					</g>
				</g>
				<g>
					<g>
						<polygon class="st64" points="203,288.7 203,294.1 346.9,211 346.9,205.7 						"/>
					</g>
				</g>
				<g>
					<g>
						<polygon class="st65" points="139.8,252 203,288.7 346.9,205.7 283.7,168.9 						"/>
					</g>
				</g>
			</g>
		</g>
		<g>
			<g>
				<polygon class="st66" points="164,257.3 192.9,274 215.2,261.1 186.4,244.4 				"/>
			</g>
		</g>
		<g class="st67">
			<g>
				<path d="M215.8,230.1c3.7,2.1,3.7,5.6,0,7.7c-3.7,2.1-9.6,2.1-13.3,0s-3.7-5.6,0-7.7C206.1,227.9,212.1,227.9,215.8,230.1z"/>
			</g>
		</g>
		<g class="st67">
			<g>
				<polygon points="228.5,217.7 245.2,227.4 284.6,204.6 267.9,194.9 				"/>
			</g>
		</g>
		<g>
			<g class="st4">
				<g>
					<g>
						<polygon class="st68" points="236.6,214 236.7,216.3 248.2,223 248.2,220.7 						"/>
					</g>
				</g>
				<g>
					<g>
						<polygon class="st69" points="248.2,220.7 248.2,223 275.5,207.3 275.5,204.9 						"/>
					</g>
				</g>
				<g>
					<g>
						<polygon class="st70" points="236.6,214 248.2,220.7 275.5,204.9 264,198.2 						"/>
					</g>
				</g>
				<g>
					<g class="st71">
						<polygon class="st72" points="236.6,214 275.5,204.9 275.5,204.9 264,198.2 						"/>
					</g>
				</g>
			</g>
			<g class="st4">
				<g>
					<g>
						<polygon class="st68" points="247.3,216.3 245.3,215.1 245.2,193.8 247.2,194.9 						"/>
					</g>
				</g>
				<g>
					<g>
						<polygon class="st66" points="247.2,194.9 245.2,193.8 263.8,183 265.8,184.2 						"/>
					</g>
				</g>
				<g>
					<g>
						<polygon class="st73" points="265.8,184.2 265.9,205.6 247.3,216.3 247.2,194.9 						"/>
					</g>
				</g>
			</g>
			<g>
				<polygon class="st74" points="228.6,216.1 226.6,215.6 218.1,173.7 220.1,174.3 				"/>
			</g>
			<g>
				<polygon class="st75" points="220.1,174.3 218.1,173.7 273.3,141.9 275.3,142.5 				"/>
			</g>
			<g>
				<polygon class="st73" points="275.3,142.5 283.8,184.3 228.6,216.1 220.1,174.3 				"/>
			</g>
			<g>
				<polygon class="st72" points="273.8,145.8 281.3,183.5 230.3,213 222.4,174.8 				"/>
			</g>
			<g>
				<polygon class="st76" points="267.2,158.1 272.1,182.6 238.9,201.9 233.8,177 				"/>
			</g>
			<g>
				<polygon class="st72" points="267.3,166.2 267.5,167.3 248.9,178.6 248.7,177.5 				"/>
			</g>
			<g>
				<polygon class="st72" points="266.8,163.3 267,164.4 248.4,175.7 248.2,174.6 				"/>
			</g>
			<g>
				<polygon class="st72" points="268.7,172.9 268.9,174 250.3,185.2 250.1,184.1 				"/>
			</g>
			<g>
				<polygon class="st72" points="268.2,169.9 268.4,171 249.8,182.3 249.6,181.2 				"/>
			</g>
			<g>
				<polygon class="st76" points="227.4,174.3 227.8,176.4 225,178 224.6,175.9 				"/>
			</g>
			<g>
				<polygon class="st76" points="228.7,179.7 229.1,181.7 226.3,183.4 225.8,181.3 				"/>
			</g>
			<g>
				<polygon class="st76" points="229.8,185.5 230.2,187.5 227.4,189.2 227,187.1 				"/>
			</g>
			<g>
				<polygon class="st76" points="230.7,190.7 231.2,192.8 228.3,194.4 227.9,192.3 				"/>
			</g>
			<g>
				<g>
					<path class="st77" d="M236.7,178.1l8.7-4.6l2.2,11.2l-8.7,4.6L236.7,178.1z M239.1,187.6l7.8-4.1c-0.5-1.6-1.7-2.6-3.1-2.6
						c0.1-0.4,0.1-0.9,0-1.3c-0.2-1.3-1.3-1.8-2.3-1.3s-1.6,2-1.4,3.2c0.1,0.4,0.3,0.8,0.5,1C239.5,183.9,238.9,185.8,239.1,187.6
						L239.1,187.6z"/>
				</g>
			</g>
			<g>
				<g>
					<path class="st78" d="M241.5,178.3c1-0.5,2,0.1,2.3,1.3c0.1,0.4,0.1,0.9,0,1.3c1.4,0,2.6,1,3.1,2.6l-7.8,4.1
						c-0.1-1.8,0.5-3.7,1.6-5.1c-0.2-0.3-0.4-0.6-0.5-1C239.9,180.3,240.5,178.8,241.5,178.3z"/>
				</g>
			</g>
		</g>
		<g class="st67">
			<g>
				<polygon points="245.6,239.1 262.9,249.1 314.9,219.1 297.6,209 				"/>
			</g>
		</g>
		<g>
			<g>
				<g class="st4">
					<g>
						<g>
							<polygon class="st74" points="246.2,234.8 246.2,237.6 262.4,247 262.4,244.2 							"/>
						</g>
					</g>
					<g>
						<g>
							<polygon class="st69" points="262.4,244.2 262.4,247 311.1,218.9 311.1,216.1 							"/>
						</g>
					</g>
					<g>
						<g>
							<polygon class="st70" points="246.2,234.8 262.4,244.2 311.1,216.1 294.9,206.7 							"/>
						</g>
					</g>
				</g>
			</g>
			<g>
				<g>
					<g>
						<polygon class="st79" points="252.1,234.5 253.6,235.4 255.5,234.3 254,233.5 						"/>
					</g>
				</g>
				<g>
					<g>
						<polygon class="st79" points="254.9,233 256.4,233.8 258.2,232.8 256.7,231.9 						"/>
					</g>
				</g>
				<g>
					<g>
						<polygon class="st79" points="257.8,231.4 259.3,232.3 261.1,231.2 259.7,230.3 						"/>
					</g>
				</g>
				<g>
					<g>
						<polygon class="st79" points="260.5,229.8 262,230.7 263.9,229.6 262.4,228.8 						"/>
					</g>
				</g>
				<g>
					<g>
						<polygon class="st79" points="263.2,228.3 264.7,229.2 266.5,228.1 265.1,227.2 						"/>
					</g>
				</g>
				<g>
					<g>
						<polygon class="st79" points="265.9,226.7 267.4,227.6 269.3,226.5 267.8,225.7 						"/>
					</g>
				</g>
				<g>
					<g>
						<polygon class="st79" points="268.9,225.1 270.3,226 272.2,224.9 270.7,224.1 						"/>
					</g>
				</g>
				<g>
					<g>
						<polygon class="st79" points="271.6,223.6 273.1,224.4 274.9,223.4 273.5,222.5 						"/>
					</g>
				</g>
			</g>
			<g>
				<g>
					<g>
						<polygon class="st79" points="274.2,222.2 275.6,223.1 277.5,222 276,221.1 						"/>
					</g>
				</g>
				<g>
					<g>
						<polygon class="st79" points="276.9,220.7 278.4,221.5 280.2,220.4 278.8,219.6 						"/>
					</g>
				</g>
				<g>
					<g>
						<polygon class="st79" points="279.8,219.1 281.3,219.9 283.2,218.8 281.7,218 						"/>
					</g>
				</g>
				<g>
					<g>
						<polygon class="st79" points="282.6,217.5 284,218.4 285.9,217.3 284.4,216.4 						"/>
					</g>
				</g>
				<g>
					<g>
						<polygon class="st79" points="285.2,216 286.7,216.8 288.6,215.7 287.1,214.9 						"/>
					</g>
				</g>
				<g>
					<g>
						<polygon class="st79" points="288,214.4 289.4,215.3 291.3,214.2 289.8,213.3 						"/>
					</g>
				</g>
				<g>
					<g>
						<polygon class="st79" points="290.9,212.8 292.4,213.7 294.2,212.6 292.7,211.7 						"/>
					</g>
				</g>
				<g>
					<g>
						<polygon class="st79" points="293.6,211.2 295.1,212.1 297,211 295.5,210.2 						"/>
					</g>
				</g>
			</g>
			<g>
				<g>
					<g>
						<polygon class="st79" points="255.1,236.2 256.6,237.1 258.4,236 256.9,235.1 						"/>
					</g>
				</g>
				<g>
					<g>
						<polygon class="st79" points="257.8,234.6 259.3,235.5 261.2,234.4 259.7,233.6 						"/>
					</g>
				</g>
				<g>
					<g>
						<polygon class="st79" points="260.7,233 262.2,233.9 264.1,232.8 262.6,232 						"/>
					</g>
				</g>
				<g>
					<g>
						<polygon class="st79" points="263.5,231.5 264.9,232.3 266.8,231.3 265.3,230.4 						"/>
					</g>
				</g>
				<g>
					<g>
						<polygon class="st79" points="266.1,229.9 267.6,230.8 269.5,229.7 268,228.9 						"/>
					</g>
				</g>
				<g>
					<g>
						<polygon class="st79" points="268.9,228.4 270.4,229.2 272.2,228.2 270.7,227.3 						"/>
					</g>
				</g>
				<g>
					<g>
						<polygon class="st79" points="271.8,226.8 273.3,227.7 275.1,226.6 273.7,225.7 						"/>
					</g>
				</g>
				<g>
					<g>
						<polygon class="st79" points="274.5,225.2 276,226.1 277.9,225 276.4,224.2 						"/>
					</g>
				</g>
			</g>
			<g>
				<g>
					<g>
						<polygon class="st79" points="277.1,223.9 278.6,224.7 280.4,223.7 279,222.8 						"/>
					</g>
				</g>
				<g>
					<g>
						<polygon class="st79" points="279.8,222.3 281.3,223.2 283.2,222.1 281.7,221.2 						"/>
					</g>
				</g>
				<g>
					<g>
						<polygon class="st79" points="282.8,220.7 284.2,221.6 286.1,220.5 284.6,219.6 						"/>
					</g>
				</g>
				<g>
					<g>
						<polygon class="st79" points="285.5,219.1 287,220 288.8,218.9 287.4,218.1 						"/>
					</g>
				</g>
				<g>
					<g>
						<polygon class="st79" points="288.2,217.6 289.6,218.5 291.5,217.4 290,216.5 						"/>
					</g>
				</g>
				<g>
					<g>
						<polygon class="st79" points="290.9,216.1 292.4,216.9 294.2,215.8 292.8,215 						"/>
					</g>
				</g>
				<g>
					<g>
						<polygon class="st79" points="293.8,214.5 295.3,215.3 297.2,214.2 295.7,213.4 						"/>
					</g>
				</g>
				<g>
					<g>
						<polygon class="st79" points="296.6,212.9 298,213.8 299.9,212.7 298.4,211.8 						"/>
					</g>
				</g>
			</g>
			<g>
				<g>
					<g>
						<polygon class="st79" points="257.8,238 259.3,238.8 261.2,237.7 259.7,236.9 						"/>
					</g>
				</g>
				<g>
					<g>
						<polygon class="st79" points="260.6,236.4 262,237.2 263.9,236.2 262.4,235.3 						"/>
					</g>
				</g>
				<g>
					<g>
						<polygon class="st79" points="263.5,234.8 265,235.7 266.8,234.6 265.3,233.7 						"/>
					</g>
				</g>
				<g>
					<g>
						<polygon class="st79" points="266.2,233.2 267.7,234.1 269.6,233 268.1,232.2 						"/>
					</g>
				</g>
				<g>
					<g>
						<polygon class="st79" points="268.9,231.7 270.4,232.6 272.2,231.5 270.8,230.6 						"/>
					</g>
				</g>
				<g>
					<g>
						<polygon class="st79" points="271.6,230.1 273.1,231 275,229.9 273.5,229.1 						"/>
					</g>
				</g>
				<g>
					<g>
						<polygon class="st79" points="274.6,228.5 276,229.4 277.9,228.3 276.4,227.5 						"/>
					</g>
				</g>
				<g>
					<g>
						<polygon class="st79" points="277.3,227 278.8,227.8 280.6,226.8 279.2,225.9 						"/>
					</g>
				</g>
			</g>
			<g>
				<g>
					<g>
						<polygon class="st79" points="279.8,225.6 281.3,226.5 283.2,225.4 281.7,224.5 						"/>
					</g>
				</g>
				<g>
					<g>
						<polygon class="st79" points="282.6,224.1 284.1,224.9 285.9,223.8 284.4,223 						"/>
					</g>
				</g>
				<g>
					<g>
						<polygon class="st79" points="285.5,222.5 287,223.3 288.8,222.2 287.4,221.4 						"/>
					</g>
				</g>
				<g>
					<g>
						<polygon class="st79" points="288.2,220.9 289.7,221.8 291.6,220.7 290.1,219.8 						"/>
					</g>
				</g>
				<g>
					<g>
						<polygon class="st79" points="290.9,219.4 292.4,220.2 294.3,219.1 292.8,218.3 						"/>
					</g>
				</g>
				<g>
					<g>
						<polygon class="st79" points="293.6,217.8 295.1,218.7 297,217.6 295.5,216.7 						"/>
					</g>
				</g>
				<g>
					<g>
						<polygon class="st79" points="296.6,216.2 298.1,217.1 299.9,216 298.4,215.1 						"/>
					</g>
				</g>
				<g>
					<g>
						<polygon class="st79" points="299.3,214.6 300.8,215.5 302.6,214.4 301.2,213.6 						"/>
					</g>
				</g>
			</g>
			<g>
				<g>
					<g>
						<polygon class="st79" points="260.3,239.6 261.8,240.5 263.7,239.4 262.2,238.5 						"/>
					</g>
				</g>
				<g>
					<g>
						<polygon class="st79" points="263.1,238 264.6,238.9 266.4,237.8 264.9,237 						"/>
					</g>
				</g>
				<g>
					<g>
						<polygon class="st79" points="266,236.4 267.5,237.3 269.4,236.2 267.9,235.4 						"/>
					</g>
				</g>
				<g>
					<g>
						<polygon class="st79" points="268.7,234.9 270.2,235.7 272.1,234.7 270.6,233.8 						"/>
					</g>
				</g>
				<g>
					<g>
						<polygon class="st79" points="271.4,233.3 272.9,234.2 274.8,233.1 273.3,232.3 						"/>
					</g>
				</g>
				<g>
					<g>
						<polygon class="st79" points="274.1,231.8 275.6,232.6 277.5,231.6 276,230.7 						"/>
					</g>
				</g>
				<g>
					<g>
						<polygon class="st79" points="277.1,230.2 278.6,231.1 280.4,230 278.9,229.1 						"/>
					</g>
				</g>
				<g>
					<g>
						<polygon class="st79" points="279.8,228.6 281.3,229.5 283.1,228.4 281.7,227.6 						"/>
					</g>
				</g>
			</g>
			<g>
				<g>
					<g>
						<polygon class="st79" points="282.4,227.3 283.8,228.1 285.7,227.1 284.2,226.2 						"/>
					</g>
				</g>
				<g>
					<g>
						<polygon class="st79" points="285.1,225.7 286.6,226.6 288.4,225.5 287,224.6 						"/>
					</g>
				</g>
				<g>
					<g>
						<polygon class="st79" points="288,224.1 289.5,225 291.4,223.9 289.9,223 						"/>
					</g>
				</g>
				<g>
					<g>
						<polygon class="st79" points="290.8,222.5 292.2,223.4 294.1,222.3 292.6,221.5 						"/>
					</g>
				</g>
				<g>
					<g>
						<polygon class="st79" points="293.4,221 294.9,221.9 296.8,220.8 295.3,219.9 						"/>
					</g>
				</g>
				<g>
					<g>
						<polygon class="st79" points="296.2,219.5 297.6,220.3 299.5,219.2 298,218.4 						"/>
					</g>
				</g>
				<g>
					<g>
						<polygon class="st79" points="299.1,217.9 300.6,218.7 302.4,217.6 301,216.8 						"/>
					</g>
				</g>
				<g>
					<g>
						<polygon class="st79" points="301.8,216.3 303.3,217.2 305.2,216.1 303.7,215.2 						"/>
					</g>
				</g>
			</g>
		</g>
		<g>
			<g>
				<g>
					<path class="st60" d="M214.2,229.3c2.8,1.6,2.8,4.2,0,5.9c-2.8,1.6-7.3,1.6-10.1,0s-2.8-4.2,0-5.8
						C206.8,227.7,211.4,227.7,214.2,229.3z"/>
				</g>
			</g>
			<g>
				<polygon class="st60" points="199.7,221 202,232.6 216.3,232.6 218.5,220.7 				"/>
			</g>
			<g>
				<g>
					<path class="st80" d="M215.8,216.8c3.7,2.1,3.7,5.6,0,7.7c-3.7,2.1-9.6,2.1-13.3,0s-3.7-5.6,0-7.7
						C206.1,214.7,212.1,214.7,215.8,216.8z"/>
				</g>
			</g>
			<g>
				<g>
					<path class="st81" d="M213.7,217.8c2.7,1.6,2.7,4.1,0,5.6c-2.7,1.6-7,1.6-9.7,0s-2.7-4.1,0-5.6S211,216.3,213.7,217.8z"/>
				</g>
			</g>
		</g>
		<g>
			<path class="st81" d="M202.1,221.4c0,0-6.9-8.8-0.1-24.6c0,0,6,7.6,2.6,26.9C204.5,223.8,203.2,223.3,202.1,221.4z"/>
		</g>
		<g>
			<path class="st82" d="M202.1,196.9c0.1,6.1,0.5,16.6,1.3,26c0.7,0.6,1.2,0.8,1.2,0.8C207.7,205.7,202.8,197.9,202.1,196.9z"/>
		</g>
		<g>
			<path class="st81" d="M205.5,220.3c0,0-5.6-9.7,3.5-24.3c0,0,4.8,8.4-1.5,27C207.6,223,206.3,222.3,205.5,220.3z"/>
		</g>
		<g>
			<path class="st82" d="M208.6,196c-0.8,6-2,16.5-2.6,25.9c0.6,0.7,1,1,1,1C212.9,205.5,209.1,197.1,208.6,196z"/>
		</g>
		<g>
			<g>
				<path class="st81" d="M205.9,224.1c0,0-8.3-2.9-10.4-16.3c0,0,7.2,2.5,13,16.9C208.5,224.7,207.4,224.9,205.9,224.1z"/>
			</g>
			<g>
				<path class="st82" d="M195.6,207.8c2.6,4,7.3,10.9,11.8,16.8c0.7,0.1,1.1,0,1.1,0C203,211.3,196.4,208.2,195.6,207.8z"/>
			</g>
		</g>
		<g>
			<g>
				<path class="st81" d="M209.6,222.8c0,0-4.5-5.1-0.8-14.8c0,0,3.8,4.4,2.4,16.2C211.1,224.2,210.3,223.9,209.6,222.8z"/>
			</g>
			<g>
				<path class="st82" d="M208.8,208.1c0.3,3.7,0.8,10,1.6,15.7c0.4,0.3,0.7,0.4,0.7,0.4C212.5,213.2,209.3,208.7,208.8,208.1z"/>
			</g>
		</g>
		<g>
			<g>
				<path class="st81" d="M211.5,219.6c0,0-4.3-7.7,3.1-19.1c0,0,3.7,6.7-1.5,21.3C213.1,221.7,212.2,221.2,211.5,219.6z"/>
			</g>
			<g>
				<path class="st82" d="M214.7,200.6c-0.7,4.7-1.8,13-2.4,20.4c0.4,0.5,0.8,0.8,0.8,0.8C218,208.1,215.1,201.4,214.7,200.6z"/>
			</g>
		</g>
		<g>
			<g>
				<path class="st81" d="M212.6,221c0,0-1-6.5,7.1-12.6c0,0,0.9,5.6-6.5,14.5C213.2,222.9,212.7,222.3,212.6,221z"/>
			</g>
			<g>
				<path class="st82" d="M219.7,208.5c-1.7,3.2-4.6,8.7-6.9,13.7c0.2,0.5,0.4,0.7,0.4,0.7C220.1,214.6,219.8,209.2,219.7,208.5z"/>
			</g>
		</g>
		<g>
			<g>
				<polygon class="st83" points="172.4,258.4 173.1,258.8 179.9,254.8 179.2,254.4 				"/>
			</g>
		</g>
		<g>
			<g>
				<polygon class="st83" points="175.1,259.9 175.8,260.3 185.9,254.5 185.2,254.1 				"/>
			</g>
		</g>
		<g>
			<g>
				<polygon class="st83" points="173.8,259.1 174.5,259.5 183.3,254.5 182.6,254.1 				"/>
			</g>
		</g>
		<g>
			<g>
				<polygon class="st83" points="182.2,251.1 188,254.5 193.2,251.5 187.4,248.1 				"/>
			</g>
		</g>
		<g>
			<g>
				<polygon class="st83" points="177.9,261.5 178.6,261.9 187.4,256.8 186.7,256.4 				"/>
			</g>
		</g>
		<g>
			<g>
				<polygon class="st83" points="176.5,260.7 177.2,261.1 184,257.2 183.3,256.8 				"/>
			</g>
		</g>
		<g>
			<g>
				<polygon class="st83" points="171.1,257.6 171.8,258 181.8,252.2 181.1,251.8 				"/>
			</g>
		</g>
		<g>
			<g>
				<polygon class="st83" points="185.8,266.2 186.4,266.6 193.2,262.6 192.5,262.2 				"/>
			</g>
		</g>
		<g>
			<g>
				<polygon class="st83" points="188.5,267.7 189.2,268.1 199.2,262.3 198.5,261.9 				"/>
			</g>
		</g>
		<g>
			<g>
				<polygon class="st83" points="187.1,266.9 187.8,267.3 196.6,262.3 195.9,261.9 				"/>
			</g>
		</g>
		<g>
			<g>
				<polygon class="st83" points="191.2,269.3 191.9,269.7 200.7,264.6 200,264.2 				"/>
			</g>
		</g>
		<g>
			<g>
				<polygon class="st83" points="189.8,268.5 190.5,268.9 197.3,265 196.6,264.6 				"/>
			</g>
		</g>
		<g>
			<g>
				<polygon class="st83" points="184.4,265.4 185.1,265.8 195.2,260 194.5,259.5 				"/>
			</g>
		</g>
		<g>
			<g>
				<g>
					<polygon class="st83" points="183.5,254.9 212.4,271.7 234.7,258.8 205.9,242 					"/>
				</g>
			</g>
			<g>
				<g>
					<g>
						<polygon class="st84" points="191.2,255.6 191.9,256 198.7,252.1 198,251.7 						"/>
					</g>
				</g>
				<g>
					<g>
						<polygon class="st84" points="193.9,257.2 194.6,257.6 204.7,251.8 204,251.4 						"/>
					</g>
				</g>
				<g>
					<g>
						<polygon class="st84" points="192.6,256.4 193.2,256.8 202,251.7 201.4,251.3 						"/>
					</g>
				</g>
				<g>
					<g>
						<polygon class="st84" points="201,248.4 206.8,251.8 212,248.8 206.2,245.4 						"/>
					</g>
				</g>
				<g>
					<g>
						<polygon class="st84" points="196.6,258.8 197.3,259.2 206.1,254.1 205.4,253.7 						"/>
					</g>
				</g>
				<g>
					<g>
						<polygon class="st84" points="195.3,258 196,258.4 202.7,254.5 202,254.1 						"/>
					</g>
				</g>
				<g>
					<g>
						<polygon class="st84" points="189.8,254.8 190.5,255.3 200.6,249.4 199.9,249 						"/>
					</g>
				</g>
			</g>
		</g>
		<g>
			<g>
				<path class="st18" d="M304,343.5c-1.5,0.8-1.4,2.2,0,3s3.8,0.8,5.2,0l34.8-20.1c1.5-0.8,1.5-2.2,0-3c-1.4-0.8-3.8-0.8-5.2,0
					L304,343.5z"/>
			</g>
		</g>
		<g>
			<g>
				<path class="st19" d="M330.6,307.2L330.6,307.2L330.6,307.2L330.6,307.2c0-0.7-0.4-1.4-1.3-1.9c-1.8-1-4.6-1-6.4,0
					c-1,0.6-1.5,1.4-1.3,2.2c0-0.1-0.1-0.2-0.1-0.3l0,0l0.1,25.8c0,0.1,0,0.2,0,0.3c0,0.1,0,0.1,0,0.2c0,0,0,0,0,0.1l0,0
					c0,0.1,0.1,0.2,0.1,0.3l0.1,0.1c0,0,0,0.1,0.1,0.1c0,0,0,0,0,0.1c0.1,0.1,0.2,0.2,0.3,0.3l0,0c0.1,0.1,0.2,0.2,0.4,0.3
					c0.1,0,0.1,0.1,0.2,0.1c0,0,0,0,0.1,0c0.3,0.2,0.6,0.3,1,0.4c0.1,0,0.3,0.1,0.4,0.1s0.1,0,0.2,0.1c0.1,0,0.2,0,0.2,0.1
					c0.2,0,0.4,0.1,0.6,0.1s0.3,0,0.5,0c0.1,0,0.2,0,0.3,0l0,0c0.1,0,0.1,0,0.2,0s0.3,0,0.4,0s0.3,0,0.4,0c0.2,0,0.3,0,0.5-0.1
					c0,0,0.1,0,0.2,0l0,0c0.1,0,0.2,0,0.3-0.1c0.2-0.1,0.4-0.1,0.6-0.2s0.5-0.2,0.7-0.3c0.9-0.5,1.3-1.2,1.3-1.9L330.6,307.2z
					 M322.7,308.9L322.7,308.9c0.1,0.1,0.1,0.1,0.2,0.2C322.8,309,322.8,308.9,322.7,308.9z M321.7,307.7c0,0.1,0.1,0.2,0.2,0.3
					C321.8,307.9,321.7,307.8,321.7,307.7L321.7,307.7z M321.9,308.2c0.1,0.1,0.1,0.2,0.2,0.2C322.1,308.4,322,308.3,321.9,308.2
					L321.9,308.2z"/>
			</g>
		</g>
		<g>
			<path class="st37" d="M321,312.8c-0.1-0.1-0.2-0.3-0.3-0.5l0,0c-0.1-0.2-0.3-0.3-0.4-0.5c-0.1-0.1-0.2-0.3-0.4-0.4
				c-0.1-0.1-0.2-0.2-0.3-0.3c-0.3-0.3-0.7-0.7-1.2-1.1c-0.1-0.1-0.2-0.2-0.3-0.2c-0.4-0.4-0.9-0.7-1.3-1.1
				c-0.1-0.1-0.2-0.1-0.2-0.2c-0.5-0.4-1.1-0.9-1.8-1.3c-0.2-0.1-0.3-0.2-0.5-0.4c-0.6-0.4-1.2-0.8-1.8-1.3
				c-0.1-0.1-0.2-0.2-0.3-0.2c-0.7-0.5-1.5-1-2.2-1.5c-0.2-0.1-0.5-0.3-0.7-0.5c-0.7-0.5-1.4-0.9-2.1-1.4c-0.1-0.1-0.2-0.2-0.4-0.2
				c-0.8-0.5-1.7-1.1-2.6-1.6c-0.2-0.1-0.5-0.3-0.7-0.4c-0.9-0.5-1.8-1.1-2.8-1.6c-1.4-0.8-2.8-1.6-4.1-2.3c-0.1,0-0.1-0.1-0.2-0.1
				c-1.2-0.7-2.4-1.3-3.6-1.9c-0.1-0.1-0.2-0.1-0.3-0.2c-1.1-0.6-2.2-1.1-3.2-1.5c-0.1,0-0.2-0.1-0.3-0.1c-1-0.5-1.9-0.9-2.8-1.2
				c-0.1,0-0.1-0.1-0.2-0.1c-0.6-0.2-1.2-0.5-1.7-0.7c-0.1,0-0.2-0.1-0.3-0.1c-0.5-0.2-1-0.3-1.4-0.4c-0.1,0-0.2,0-0.3-0.1
				c-0.2-0.1-0.4-0.1-0.6-0.1c-0.1,0-0.2,0-0.4-0.1c-0.1,0-0.1,0-0.2,0c-0.2,0-0.3,0-0.5,0l0,0c-0.1,0-0.3,0-0.3,0.1l0,0l38-22.1
				c0,0,0,0,0.1,0h0.1h0.1l0,0l0,0c0,0,0,0,0.1,0s0.2,0,0.3,0h0.1c0,0,0.1,0,0.2,0s0.1,0,0.2,0h0.1c0.2,0,0.5,0.1,0.7,0.2h0.1l0,0
				c0.4,0.1,0.9,0.3,1.4,0.4c0.1,0,0.2,0.1,0.3,0.1c0.5,0.2,1.1,0.4,1.7,0.7l0,0h0.1c0.9,0.4,1.8,0.8,2.8,1.2
				c0.1,0.1,0.3,0.1,0.4,0.2c1,0.4,2,0.9,3,1.5c0.2,0.1,0.3,0.2,0.5,0.3c1.1,0.6,2.2,1.1,3.4,1.8c0.2,0.1,0.3,0.2,0.4,0.2
				c1.3,0.7,2.6,1.5,4,2.2c1,0.6,1.9,1.1,2.8,1.6c0.2,0.1,0.5,0.3,0.7,0.4c0.9,0.5,1.7,1.1,2.6,1.6c0.1,0.1,0.3,0.2,0.4,0.3
				c0.7,0.5,1.4,0.9,2.1,1.4c0.2,0.2,0.5,0.3,0.7,0.5c0.8,0.5,1.5,1,2.2,1.5c0.1,0.1,0.3,0.2,0.4,0.3c0.6,0.4,1.2,0.8,1.7,1.2
				c0.2,0.1,0.4,0.3,0.5,0.4c0.6,0.4,1.2,0.9,1.7,1.3c0.1,0.1,0.2,0.2,0.3,0.3c0.4,0.3,0.8,0.7,1.2,1c0.1,0.1,0.2,0.2,0.4,0.3
				c0.4,0.4,0.8,0.7,1.1,1l0.1,0.1c0.1,0.1,0.2,0.2,0.3,0.3c0.1,0.1,0.2,0.2,0.3,0.3c0,0,0,0.1,0.1,0.1l0,0l0,0l0,0
				c0.1,0.1,0.2,0.2,0.3,0.3l0.1,0.1l0,0l0,0c0,0.1,0.1,0.1,0.1,0.2c0,0,0,0.1,0.1,0.1v0.1c0,0,0,0,0,0.1c0,0,0,0,0,0.1
				c0,0,0,0,0,0.1c0,0,0,0,0,0.1c0,0,0,0,0,0.1c0,0,0,0,0,0.1c0,0,0,0,0,0.1l0,0c0,0.2-0.1,0.3-0.2,0.3l-38,22.1
				c0.1-0.1,0.2-0.2,0.2-0.3C321.1,313.1,321,313,321,312.8C321,312.9,321,312.9,321,312.8z"/>
		</g>
		<g>
			<g>
				<path class="st38" d="M300.6,298.2c-11.3-6.5-20.4-10.3-20.4-8.5s9.1,8.6,20.4,15.1s20.5,10.3,20.5,8.5
					C321.1,311.4,311.9,304.7,300.6,298.2z"/>
			</g>
		</g>
		<g>
			<path class="st20" d="M355.5,281.6c0,0-1.3,18.1-21.1,12.7c-19.8-5.4-33.4-10.7-33.4-10.7s-25.3-17.4-15.3-21.9
				C285.7,261.7,294.9,252.5,355.5,281.6z"/>
		</g>
		<g>
			<path class="st20" d="M355.5,281.6c0,0-1.3,18.1-21.1,12.7c-19.8-5.4-33.4-10.7-33.4-10.7s-25.3-17.4-15.3-21.9
				C285.7,261.7,294.9,252.5,355.5,281.6z"/>
		</g>
		<g>
			<path class="st20" d="M344.7,289.5c0,0-1.3,18.1-21.1,12.7c-19.8-5.4-42.3-17-42.3-17s-16.4-11.2-6.4-15.6
				C274.9,269.5,284.1,260.3,344.7,289.5z"/>
		</g>
		<g>
			<path class="st39" d="M321.2,313.5l37.7-22c1.4-1,4.6-15.9,7.1-28.9c2.8-14.4,4.1-27.1,2.9-28.3l-38,26.9
				c1.2,1.2-0.2,13.9-2.9,28.3C325.5,302.5,322.6,312.5,321.2,313.5z"/>
		</g>
		<g>
			<path class="st48" d="M131.4,213.3c0.8,0.3,1.3,0,3.6,2.2c2.3,2.1,6.8,5,8.5,5.5c0.2,0.1,0.5,0.1,0.6,0.1
				c-1.3-1.4-3.6-3.8-5.7-5.9c-2.6-2.6-6.5-3.6-7.8-3.8C130.6,212.2,131,213.1,131.4,213.3z"/>
		</g>
		<g>
			<path class="st43" d="M103.3,171.7c2.5-0.6,6.8,0.3,7.5,7.2c0.7,6.8,2.4,26,2.4,26s18.3,3.1,20.4,3.8c0,0-3.4,1.4-2.1,5
				c0,0-20.3,3.6-24.6-0.9C102.6,208.3,92.9,174.2,103.3,171.7z"/>
		</g>
		<g>
			<path class="st45" d="M133.6,208.6c-2.1-0.7-20.4-3.8-20.4-3.8s-1.7-19.2-2.4-26c-0.7-6.8-5-7.8-7.5-7.2
				c-0.7,0.2-1.3,0.5-1.8,0.9l-0.1,0.3c0,0,6.2,2.7,7.1,15.2s-3.8,19.9,6.6,21c6.2,0.6,12.4,1.3,16.4,1.7
				C132,209.3,133.6,208.6,133.6,208.6z"/>
		</g>
		<g>
			<path class="st85" d="M274.9,269.5c-2.4,1.1-3.3,2.6-3.2,4.2c15.5,0.1,49.9,11.9,49.9,11.9l0.3-6.4
				C281.7,262.8,274.9,269.5,274.9,269.5z"/>
		</g>
		<g>
			<path class="st86" d="M286.4,260.8c-2.4,1.1-3.3,2.6-3.2,4.2c15.5,0.1,49.9,11.9,49.9,11.9l0.3-6.4
				C293.1,254.1,286.4,260.8,286.4,260.8z"/>
		</g>
		<g>
			<g>
				<path class="st86" d="M357.5,205.3c0,0,8.2,0.1,6.8,13.6c-1.1,10.9-5.4,27.5-9.2,33.8c-3.8,6.3-14.4,18.8-14.4,18.8
					s-9.3-2.1-7.3-7.8l12.9-20C346.4,243.7,348.6,203.2,357.5,205.3z"/>
			</g>
			<g>
				<path class="st85" d="M358.2,205.3c0,0,8.4,4.4,3.3,18.7s-8.7,23.6-8.5,28.9c0.2,5.4,1.8,23.5,2.9,27.2c0,0,1.2,11.9-26.1,18.4
					c0,0-22.4,1.8-18.4-12.8c4-14.6,5.8-38.3,5.4-44c-0.5-5.7-3.6-17,10.7-24.4C341.7,210,349.2,204.5,358.2,205.3z"/>
			</g>
			<g>
				<path class="st86" d="M316.8,241.7c0.4,5.7-1.4,29.4-5.4,44c-2.7,10.1,7.2,12.4,13.5,12.8c2.2-6.5-1-18.3,4-32.5
					c6.2-17.6,5.6-29.3,2.6-38.8c-1.9-6.2-5.6-6.4-8.2-7.3C313.9,227.2,316.4,236.7,316.8,241.7z"/>
			</g>
			<g>
				<path class="st87" d="M355.9,280.1c-1.1-3.7-2.7-21.8-2.9-27.2c-0.2-5.4,3.5-14.6,8.5-28.9c4.7-13.6-0.4-17.2-3.3-18.7
					c-1.6,7-26.2,9.5-25.7,14.3c0.5,5.3,7,10.3,7.2,19.7s-1.3,23.3-3.1,30.3c-1.6,6-1.1,20.7,0.1,27
					C356.9,289.9,355.9,280.1,355.9,280.1z"/>
			</g>
			<g>
				<g>
					<path class="st42" d="M348.3,197.9c0,0-1.1,7.5,1.4,12.3c2.3,4.3-15.6,7.9-15.9,3.9c0-0.4,3.5-6.8-0.6-14.6
						C331.1,195.4,348.3,197.9,348.3,197.9z"/>
				</g>
				<g>
					<path class="st88" d="M349.7,210.5c-1.8-3.5-1.7-8.6-1.6-11l-13.1,6.2l0,0c0.5,0.1,9.2,2.5,10.9,8.8
						C348.7,213.5,350.5,212,349.7,210.5z"/>
				</g>
				<g>
					<path class="st42" d="M330.1,177.6c0,0-2.9,6.8-2.5,12.7c0.5,6.4-0.5,7.6-0.2,10.4c0.1,1.2,0.2,3,1.4,4.2
						c1.9,1.9,5.9,2.7,11.4,0.8c6.6-2.3,13.8-11.2,11.1-19.5C348.7,178,340.1,171.1,330.1,177.6z"/>
				</g>
				<g>
					<path class="st89" d="M350.9,195c-2.5-7.4-8.9-16.3-8.8-16.8c0-0.3-2.1-1.7-4.6-3.2c-2.3,0.1-4.8,0.9-7.4,2.5
						c0,0-0.8,1.8-1.5,4.4c1.5,1.8,4.7,3.9,5.2,5.4c1.1,3.5,0.3,8.9-0.8,11.2c-1.1,2.3,3.1,5.9,2.1,7.9c0,0.1,0,0.2,0,0.3
						c1.5-0.1,3.2-0.4,5.1-1C344.5,204.2,348.9,200,350.9,195z"/>
				</g>
				<g>
					<path class="st90" d="M328.2,174.7c0,0-1.1,5.8,4.7,8.8c3.4,1.8,3,7.4,2.8,8.4s-1.3,5.7-0.9,6.3c0.8,1.2,3.6-2.4,4.9-2.1
						c3.3,0.7,1.9,3.7-1.1,6.9c-3.2,3.3,5.1,4.9,9,2.2c2.1-1.5,2.9-2.3,5.7-7.6c4.1-7.7,4.5-17.1-4.7-22.3
						C339.3,170,333.9,177.1,328.2,174.7z"/>
				</g>
				<g>
					<path class="st91" d="M347.5,205.2c2.1-1.5,2.9-2.3,5.7-7.6c4.1-7.7,4.5-17.1-4.7-22.3c-9.1-5.2-14.6,1.9-20.3-0.5
						c0,0-0.2,1,0,2.4c2.9,0.5,10.9,2.3,12.9,5.8c2.5,4.3,5.3,3,5,8.2c-0.3,5.1,0.9,11.7-7.7,14.5
						C341.5,207.9,346,206.2,347.5,205.2z"/>
				</g>
			</g>
			<g>
				<path class="st92" d="M334.9,211.8l-5.9,4.8c0,0,17.9,5.5,23.3-3.2c0.8-1.2-0.1-5.4-3.2-6.3
					C349.2,207.1,348.5,214.2,334.9,211.8z"/>
			</g>
		</g>
		<g>
			<g>
				<path class="st38" d="M330.9,261.2c-1.2-1.2-4.4,9.5-7.2,24c-2.8,14.4-4.1,27.1-2.9,28.3c1.2,1.2,4.4-9.5,7.2-24
					C330.8,275.1,332.1,262.4,330.9,261.2z"/>
			</g>
		</g>
		<g>
			<path class="st42" d="M276.2,238.9c0,0-8.1-4.2-11.4-10s-2-5-1-5.5c2-1,8.1,4.5,9.5,5.1s0-2,0.1-3.2c0.2-1.2-0.2-3,0.4-3
				s1.8,0.5,2.5,3.4c0.7,2.8,3.7,8.3,3.7,8.3L276.2,238.9z"/>
		</g>
		<g>
			<path class="st89" d="M264.8,228.9c3.3,5.8,11.4,10,11.4,10l0.8-1.1c-0.2-0.2-0.4-0.4-0.8-0.5c-2.8-1.3-9.7-9.8-12.8-13.7
				C262.6,223.8,261.8,223.8,264.8,228.9z"/>
		</g>
		<g>
			<path class="st85" d="M325.7,220c-5.8-1.4-13.7,14.8-20.7,28.3L280.2,232c-5.9,2.7-6.7,6.4-6.7,6.4c7.1,15.2,28.5,26.7,28.5,26.7
				l0,0c1.9,1,4.4,0.7,4.4,0.7c10.8-5.4,18.9-19.4,23.7-33C333.6,223,325.7,220,325.7,220z"/>
		</g>
		<g>
			<path class="st87" d="M305,248.4L280.2,232c-1.2,0.6-2.3,1.2-3.1,1.8c6.4,5.3,29.2,25.3,29.2,21.8s17.2-29,21-34.6
				c-0.9-0.6-1.6-0.9-1.6-0.9C319.9,218.6,312,234.8,305,248.4z"/>
		</g>
		<g>
			<path class="st39" d="M369.3,235.6c0-0.1,0-0.3-0.1-0.4c0-0.1,0-0.2,0-0.2v-0.1v-0.1v-0.1v-0.1l0,0l0,0l0,0l0,0l0,0l0,0l0,0l0,0
				l0,0c0,0,0,0-0.1,0l0,0c0,0,0,0-0.1,0l0,0l0,0l0,0l0,0l0,0l0,0l0,0l0,0l-38,26.9l0,0l0,0c0.1,0,0.1-0.1,0.2-0.1l0,0
				c0.1,0,0.1,0,0.2,0.1l0,0l0,0l0,0l0,0l0,0l0,0l0,0l0,0c0,0,0,0,0,0.1v0.1v0.1v0.1c0,0.1,0,0.1,0,0.2s0,0.3,0.1,0.4
				c0.4,3.7-0.9,14.8-3.3,27.1c-2.5,13-5.4,23-6.8,24l37.7-22c1.4-1,4.6-15.9,7.1-28.9C368.4,250.3,369.7,239.3,369.3,235.6z"/>
		</g>
		<g>
			<g class="st4">
				<g>
					<g>
						<polygon class="st39" points="349.8,135.6 366.2,126.1 366.3,105.7 349.9,115.3 						"/>
					</g>
				</g>
				<g>
					<g>
						<polygon class="st93" points="349.9,115.3 366.3,105.7 362,103.2 345.5,112.8 						"/>
					</g>
				</g>
				<g>
					<g>
						<polygon class="st38" points="345.5,112.8 345.5,133.1 349.8,135.6 349.9,115.3 						"/>
					</g>
				</g>
			</g>
		</g>
		<g>
			<g class="st4">
				<g>
					<g>
						<polygon class="st14" points="356.3,139.4 372.7,129.9 372.7,109.5 356.3,119.1 						"/>
					</g>
				</g>
				<g>
					<g>
						<polygon class="st16" points="356.3,119.1 372.7,109.5 368.4,107 352,116.5 						"/>
					</g>
				</g>
				<g>
					<g>
						<polygon class="st15" points="352,116.5 351.9,136.9 356.3,139.4 356.3,119.1 						"/>
					</g>
				</g>
			</g>
		</g>
		<g>
			<g class="st4">
				<g>
					<g>
						<polygon class="st39" points="383.7,205.2 400.1,195.7 400.2,175.3 383.8,184.8 						"/>
					</g>
				</g>
				<g>
					<g>
						<polygon class="st93" points="383.8,184.8 400.2,175.3 395.8,172.8 379.4,182.3 						"/>
					</g>
				</g>
				<g>
					<g>
						<polygon class="st38" points="379.4,182.3 379.4,202.7 383.7,205.2 383.8,184.8 						"/>
					</g>
				</g>
			</g>
		</g>
		<g>
			<g class="st4">
				<g>
					<g>
						<polygon class="st94" points="390.1,209 406.6,199.5 406.6,179.1 390.2,188.6 						"/>
					</g>
				</g>
				<g>
					<g>
						<polygon class="st82" points="390.2,188.6 406.6,179.1 402.3,176.6 385.9,186.1 						"/>
					</g>
				</g>
				<g>
					<g>
						<polygon class="st81" points="385.9,186.1 385.8,206.5 390.1,209 390.2,188.6 						"/>
					</g>
				</g>
			</g>
		</g>
		<g class="st4">
			<g>
				<g>
					<polygon class="st8" points="397.8,276.8 393.4,274.2 393,119.4 397.4,122 					"/>
				</g>
			</g>
			<g>
				<g>
					<polygon class="st95" points="397.4,122 393,119.4 425.2,100.8 429.6,103.4 					"/>
				</g>
			</g>
			<g>
				<g>
					<polygon class="st62" points="429.6,103.4 430,258.2 397.8,276.8 397.4,122 					"/>
				</g>
			</g>
		</g>
		<g class="st4">
			<g>
				<g>
					<polygon class="st8" points="336.7,81.6 336.7,86.7 397.4,122 397.4,116.9 					"/>
				</g>
			</g>
			<g>
				<g>
					<polygon class="st62" points="397.4,116.9 397.4,122 429.6,103.4 429.6,98.3 					"/>
				</g>
			</g>
			<g>
				<g>
					<polygon class="st96" points="336.7,81.6 397.4,116.9 429.6,98.3 368.9,63.1 					"/>
				</g>
			</g>
		</g>
	</g>
</g>
</svg>
