<?xml version="1.0" encoding="utf-8"?>
<!-- Generator: Adobe Illustrator 24.1.1, SVG Export Plug-In . SVG Version: 6.00 Build 0)  -->
<svg version="1.1" id="Layer_1" xmlns="http://www.w3.org/2000/svg" xmlns:xlink="http://www.w3.org/1999/xlink" x="0px" y="0px"
	 viewBox="0 0 30 30" style="enable-background:new 0 0 30 30;" xml:space="preserve">
<style type="text/css">
	.st0{fill:#58B947;}
</style>
<path id="icon_check" class="st0" d="M15.1,18.2L28.3,3.8L30,5.4L15.3,21.5l-8-7.6l1.6-1.7L15.1,18.2z M29.1,9.8l-1.8,2
	c1.8,6.8-2.3,13.7-9.1,15.5S4.5,25,2.7,18.2S5,4.5,11.8,2.8c4.1-1.1,8.5,0,11.7,2.8L25,3.8C18.8-1.7,9.3-1.2,3.8,5
	C1.4,7.8,0,11.3,0,15c0,8.3,6.7,15,15,15c4,0,7.8-1.6,10.6-4.4C29.7,21.5,31.1,15.3,29.1,9.8z"/>
</svg>
