<?xml version="1.0" encoding="utf-8"?>
<!-- Generator: Adobe Illustrator 25.0.1, SVG Export Plug-In . SVG Version: 6.00 Build 0)  -->
<svg version="1.1" id="Layer_1" xmlns="http://www.w3.org/2000/svg" xmlns:xlink="http://www.w3.org/1999/xlink" x="0px" y="0px"
	 viewBox="0 0 314.6 328.9" style="enable-background:new 0 0 314.6 328.9;" xml:space="preserve">
<style type="text/css">
	.st0{display:none;}
	.st1{display:inline;fill:#94C3FF;}
	.st2{fill:none;stroke:#BFD9FF;stroke-width:1.1086;stroke-miterlimit:10;}
	.st3{fill:none;stroke:#BFD9FF;stroke-width:1.1086;stroke-miterlimit:9.9996;}
	.st4{fill:url(#SVGID_1_);}
	.st5{fill:#FFFFFF;}
	.st6{fill:none;stroke:#FFFFFF;stroke-width:1.1086;stroke-miterlimit:10;}
	.st7{opacity:0.39;fill:none;stroke:#A1C2FF;stroke-width:0.5543;stroke-miterlimit:10;enable-background:new    ;}
	.st8{fill:#E6F4FF;}
	.st9{fill:#94C3FF;}
	.st10{fill:#4361C4;}
	.st11{fill:#FF8D68;}
	.st12{fill:#7E3636;}
	.st13{opacity:0.39;fill:#A1C2FF;enable-background:new    ;}
	.st14{fill:#FF8D02;}
	.st15{opacity:0.7;fill:#A1C2FF;enable-background:new    ;}
	.st16{fill:none;stroke:#4361C4;stroke-width:0.2806;stroke-miterlimit:10;}
	.st17{clip-path:url(#SVGID_3_);}
	.st18{fill:#4385FF;}
	.st19{clip-path:url(#SVGID_5_);}
	.st20{fill:#F9FBFC;}
	.st21{fill:#BFD9FF;}
	.st22{fill:#73A5FF;}
	.st23{fill:none;stroke:#505E83;stroke-width:0.5192;stroke-miterlimit:10;}
	.st24{fill:#16142A;}
	.st25{fill:#2B3554;}
	.st26{fill:#FF7759;}
	.st27{fill:#2B3F63;}
	.st28{fill:#18D26E;}
	.st29{fill:none;stroke:#2A2E59;stroke-width:0.6659;stroke-miterlimit:10;}
	.st30{fill:none;stroke:#E66657;stroke-width:0.6659;stroke-miterlimit:10;}
	.st31{fill:none;stroke:#6060E7;stroke-width:0.6659;stroke-miterlimit:10;}
	.st32{fill:none;stroke:#A6D0F4;stroke-width:0.5347;stroke-miterlimit:10;}
	.st33{fill:#EB7754;}
	.st34{fill:none;stroke:#663136;stroke-width:0.5347;stroke-miterlimit:10;}
</style>
<g id="BACKGROUND" class="st0">
	<rect x="-330.7" y="-109.7" class="st1" width="750" height="500"/>
</g>
<g id="OBJECTS">
	<g>
		<g>
			<g>
				<path class="st2" d="M86.6,135.1c8.4-37.1,47-59.3,83.2-47.7c0.7,0.2,1.5,0.5,2.2,0.7c47.3,16.3,31.8,64.3,55.4,79.1
					c23.7,14.8,40.6,36.2,30.3,64.3c-10.3,28.1-73.2,54.7-122.7,24.4C96,232.1,75.8,182.3,86.6,135.1z"/>
				<ellipse class="st3" cx="67.3" cy="86.4" rx="30.7" ry="30.7"/>
				<g>
					
						<linearGradient id="SVGID_1_" gradientUnits="userSpaceOnUse" x1="104.2973" y1="194.4614" x2="294.3027" y2="194.4614" gradientTransform="matrix(1 0 0 -1 0 330.6614)">
						<stop  offset="0" style="stop-color:#FFFFFF;stop-opacity:0.2"/>
						<stop  offset="1" style="stop-color:#FFFFFF;stop-opacity:0.7"/>
					</linearGradient>
					<path class="st4" d="M214.8,224.9H107.6c-2.4,0-4-2.5-3-4.7l76.1-170.7c0.5-1.2,1.7-2,3-2H291c2.4,0,4,2.5,3,4.7l-76.1,170.7
						C217.3,224.1,216.1,224.9,214.8,224.9z"/>
					<path class="st5" d="M247.3,104.5L282,26.8c0.8-1.9-0.5-4-2.6-4h-97.1c-3.6,0-6.9,2.1-8.3,5.4L138.9,107c-0.8,1.9,0.5,4,2.6,4
						h95.8C241.6,111.1,245.6,108.5,247.3,104.5z"/>
					<path class="st6" d="M234.8,157.7L269.4,80c0.8-1.9-0.5-4-2.6-4h-97.1c-3.6,0-6.9,2.1-8.3,5.4l-35.1,78.8c-0.8,1.9,0.5,4,2.6,4
						h95.8C229,164.3,233,161.7,234.8,157.7z"/>
					<polyline class="st7" points="190.8,130.3 195.2,130.3 183.3,153.5 111.2,153.5 114.1,147.9 					"/>
					<g>
						<g>
							
								<ellipse transform="matrix(0.7556 -0.655 0.655 0.7556 11.0813 136.4655)" class="st8" cx="188.4" cy="53.4" rx="21.9" ry="16.4"/>
							<g>
								
									<ellipse transform="matrix(0.7556 -0.655 0.655 0.7556 11.0817 136.465)" class="st9" cx="188.4" cy="53.4" rx="19.3" ry="14.5"/>
							</g>
						</g>
						<g>
							<g>
								<g>
									<g>
										<path class="st10" d="M188.7,56.7c0,0-8.8,1.5-12.5,2.9c-2.5,1.5-3,2.8-3.6,4.6l0,0c2,3.6,5.9,5.8,11,5.8
											c6.6,0,13.3-3.8,17.6-9.3C198.9,57.3,188.7,56.7,188.7,56.7z"/>
										<path class="st11" d="M185.6,53l-1.5,6.4c-0.2,0.8,0.2,1.5,1,1.6c1.2,0.2,3.1,0.2,5.1-1.1c0.6-0.4,1-1,1.1-1.7
											c0.2-3,0.8-9.1,0.8-9.1L185.6,53z"/>
										<path class="st11" d="M184.2,46.2c0,0-4.1,8.4-3.3,10.6c0.9,1.5,9.2-1.9,10.6-4.2c1.4-2.2,4.5-6.3,2.1-8.8
											C191.1,41.3,187.4,42.1,184.2,46.2z"/>
									</g>
								</g>
								<path class="st12" d="M184.2,46.2c0,0-0.7-3,1.8-4.7s5.7-1.4,6.9,0.3s1.3,2,1.3,2s1.2,0.3,1.6,1.6c0.4,1.3-2.2,4.6-3.2,5.6
									c-1.1,1-0.8,1-0.8,1l-0.4-0.5c0,0,0.2-2.5,0.7-4c0.1-0.8-0.8-1.9-2.3-2.2C188.1,45,187.5,46.5,184.2,46.2z"/>
								<path class="st11" d="M192.3,50c0,0,0.6-1.1,1.6-0.8s-1,3.5-2.1,3.3C190.8,52.3,192.3,50,192.3,50z"/>
								<path class="st5" d="M191.3,57c0,0-2.2,2.4-4.4,3.1c-0.4,0.1-0.9,0.9-0.9,0.9l-0.4-1c0,0-1.5-0.9-1.1-2.4l-0.3,0.2l-0.8,2
									c0,0-0.6,1.9-0.6,2.6l2-1.1c0,0,1.2,0.4,2.2,0.1c0,0,0.4,1.4,0.8,1.5c0.4,0.1,3.4-2.7,3.8-3.7c0.5-1,0.4-2,0.4-2L191.3,57z"
									/>
							</g>
						</g>
					</g>
					<g>
						<path class="st13" d="M255,60.6h-42.1c-1.3,0-2-1-1.5-2.3l6-16.4c0.5-1.3,1.9-2.3,3.2-2.3h42.1c1.3,0,2,1,1.5,2.3l-6,16.4
							C257.7,59.6,256.3,60.6,255,60.6z"/>
						<polygon class="st9" points="257.4,47 221.2,47 221.8,45.3 258.1,45.3 						"/>
						<polygon class="st9" points="241.5,51.1 219.7,51.1 220.3,49.3 242.2,49.3 						"/>
						<polygon class="st9" points="224,54.8 218.4,54.8 219,53 224.6,53 						"/>
					</g>
					<g>
						<path class="st9" d="M214.9,68.2c-0.6,1.5-2.2,2.6-3.7,2.6s-2.2-1.2-1.6-2.6c0.6-1.5,2.2-2.6,3.7-2.6
							C214.8,65.5,215.5,66.7,214.9,68.2z"/>
						<path class="st9" d="M224,68.2c-0.6,1.5-2.2,2.6-3.7,2.6s-2.2-1.2-1.6-2.6c0.6-1.5,2.2-2.6,3.7-2.6
							C223.9,65.5,224.6,66.7,224,68.2z"/>
						<path class="st9" d="M233.2,68.2c-0.6,1.5-2.2,2.6-3.7,2.6s-2.2-1.2-1.6-2.6c0.6-1.5,2.2-2.6,3.7-2.6
							C233,65.5,233.7,66.7,233.2,68.2z"/>
						<path class="st14" d="M242.3,68.2c-0.6,1.5-2.2,2.6-3.7,2.6s-2.2-1.2-1.6-2.6c0.6-1.5,2.2-2.6,3.7-2.6
							C242.2,65.5,242.9,66.7,242.3,68.2z"/>
						<path class="st13" d="M251.4,68.2c-0.6,1.5-2.2,2.6-3.7,2.6s-2.2-1.2-1.6-2.6c0.6-1.5,2.2-2.6,3.7-2.6
							C251.3,65.5,252,66.7,251.4,68.2z"/>
						<g>
							<g>
								<polygon class="st13" points="229.7,76.2 218.1,88.2 206.1,93 219.7,103 233.4,91.3 								"/>
								<polygon class="st15" points="227,83.2 218.1,88.2 210.6,93 220.8,100.3 230.4,91.5 								"/>
								<polygon class="st16" points="229.7,76.2 218.1,88.2 206.1,93 219.7,103.1 233.4,91.3 								"/>
								<path class="st10" d="M224.3,92.5c-0.2,0.5-0.7,0.8-1.2,0.8s-0.7-0.4-0.5-0.8c0.2-0.5,0.7-0.8,1.2-0.8
									C224.2,91.6,224.5,92,224.3,92.5z"/>
								<polyline class="st16" points="212.8,84.1 223.1,92.3 204.8,93.2 								"/>
								<polyline class="st16" points="218.9,105.9 223.5,92.3 235.6,91 								"/>
								<line class="st16" x1="230.4" y1="74.5" x2="223.5" y2="92.3"/>
							</g>
							<path class="st9" d="M213.8,84c-0.3,0.8-1.2,1.4-2,1.4s-1.2-0.6-0.8-1.4c0.3-0.8,1.2-1.4,2-1.4
								C213.7,82.6,214.1,83.2,213.8,84z"/>
							<path class="st14" d="M205.5,93.2c-0.3,0.8-1.2,1.4-2,1.4s-1.2-0.6-0.8-1.4c0.3-0.8,1.2-1.4,2-1.4
								C205.4,91.8,205.8,92.4,205.5,93.2z"/>
							<path class="st9" d="M220.3,106.1c-0.3,0.8-1.2,1.4-2,1.4s-1.2-0.6-0.8-1.4c0.3-0.8,1.2-1.4,2-1.4
								C220.2,104.7,220.6,105.4,220.3,106.1z"/>
							<path class="st9" d="M237.2,91.1c-0.3,0.8-1.2,1.4-2,1.4s-1.2-0.6-0.8-1.4c0.3-0.8,1.2-1.4,2-1.4S237.5,90.3,237.2,91.1z"/>
							<path class="st14" d="M232,74c-0.3,0.8-1.2,1.4-2,1.4s-1.2-0.6-0.8-1.4c0.3-0.8,1.2-1.4,2-1.4C231.9,72.6,232.3,73.2,232,74z
								"/>
						</g>
					</g>
					<g>
						<polygon class="st10" points="199.9,85.8 164.7,85.8 167.4,79.1 202.6,79.1 						"/>
						<polygon class="st13" points="178.7,100.8 158.6,100.8 159.8,97.9 179.8,97.9 						"/>
						<polygon class="st13" points="175.7,95.1 160.9,95.1 163.6,88.4 178.4,88.4 						"/>
					</g>
					<g>
						<path class="st5" d="M253.9,166.2l17.2-38.7c0.4-0.9-0.3-2-1.3-2h-48.4c-1.8,0-3.4,1.1-4.2,2.7l-17.5,39.2
							c-0.4,0.9,0.3,2,1.3,2h47.7C251,169.5,253,168.2,253.9,166.2z"/>
						<g>
							
								<ellipse transform="matrix(0.774 -0.6332 0.6332 0.774 -39.5819 182.5861)" class="st13" cx="236" cy="146.7" rx="19" ry="12.8"/>
							<g>
								<g>
									<defs>
										
											<ellipse id="SVGID_2_" transform="matrix(0.774 -0.6332 0.6332 0.774 -39.5819 182.5861)" cx="236" cy="146.7" rx="19" ry="12.8"/>
									</defs>
									<clipPath id="SVGID_3_">
										<use xlink:href="#SVGID_2_"  style="overflow:visible;"/>
									</clipPath>
									<g class="st17">
										<path class="st18" d="M237.3,148.4c0,0,7.8,3.9,8.7,7.5c0.8,3.6-2.6,13-2.6,13h-31.2c0,0,5.1-11,9.1-13.6
											s11.6-4.6,11.6-4.6L237.3,148.4z"/>
										<g>
											<g>
												<g>
													<path class="st9" d="M234.1,145.8l-2.4,5.3c-0.3,0.7-0.1,1.3,0.4,1.4c0.9,0.3,2.4,0.4,4.2-0.5c0.6-0.3,1-0.8,1.2-1.3
														c0.8-2.5,2.4-7.6,2.4-7.6L234.1,145.8z"/>
													<path class="st9" d="M234.4,140c0,0-4.9,6.7-4.7,8.7c0.4,1.4,7.6-0.8,9.1-2.6s4.8-4.9,3.3-7.3
														C240.7,136.4,237.6,136.8,234.4,140z"/>
												</g>
												<path class="st10" d="M234.6,139c0,0-0.1,0.1-0.2,0.3c-0.3,0.5-0.7,1.4,0.5,1.5c1.6,0.1,1.6,0.1,1.6,0.1
													s2.5-1.4,3.5,0.1c0.7,1.5-1.7,2.4-1.5,3.2s0.1,0.6-0.2,1s-0.6,1.1-1.7,1.6c-1.1,0.5-2,0.4-3.1,1s-3.2-0.1-3.4-0.6
													c-0.5-0.4-0.8,0.5-1.1,1.1s-1.3,0.8-0.4,1.5c1,0.8,1.7,1.1,3.3,0.1c1.7-1,1.7-0.9,3.4-1.3c1.7-0.4,2.9-1.3,3.6-2.3
													s0.8-2.4,1.4-2.9s0.8,0,0.6,0.6s2.1-0.5,2.6-2.3s-0.4-1.7-0.5-2.7s1.1-2.2-0.2-3.1c-1.2-0.9-2.4,0.3-2.8-0.3
													c-0.4-0.6-2.3-0.7-3.9,0.6c-1.5,1.3-1.6,3-1.6,3"/>
												<path class="st9" d="M239.9,143.4c0,0,0.7-0.9,1.4-0.5s-1.5,2.9-2.3,2.6C238.3,145.2,239.9,143.4,239.9,143.4z"/>
												<path class="st10" d="M229.5,147.4c0,0,0.7-2.6,2.5-2.9c1.8-0.3,2.6,0.8,2.5,1.7s0.7,1.4,0.7,1.4
													S230.6,149.7,229.5,147.4z"/>
											</g>
										</g>
									</g>
								</g>
							</g>
						</g>
					</g>
					<g>
						<path class="st5" d="M232.2,218.4l17.2-38.7c0.4-0.9-0.3-2-1.3-2h-48.4c-1.8,0-3.4,1.1-4.2,2.7L178,219.6
							c-0.4,0.9,0.3,2,1.3,2H227C229.3,221.7,231.3,220.4,232.2,218.4z"/>
					</g>
					<g>
						
							<ellipse transform="matrix(0.774 -0.6332 0.6332 0.774 -77.4118 180.5603)" class="st13" cx="214.2" cy="198.7" rx="19.5" ry="13"/>
						<g>
							<g>
								<defs>
									
										<ellipse id="SVGID_4_" transform="matrix(0.774 -0.6332 0.6332 0.774 -77.4118 180.5603)" cx="214.2" cy="198.7" rx="19.5" ry="13"/>
								</defs>
								<clipPath id="SVGID_5_">
									<use xlink:href="#SVGID_4_"  style="overflow:visible;"/>
								</clipPath>
								<g class="st19">
									<path class="st10" d="M218.6,194.1c0,0,2.4-1.1,2.7,0.2c0.3,1.4-0.7,2.3-0.7,2.3s2.1-0.6,2.7,1.2c0.6,1.8-1.2,2.7-0.4,3.4
										c0.7,0.7,2.2,2,0.1,4.4c-2.1,2.3-5.1,5-8.6,3.3s-2.4-10.1-2.4-10.1l0.9-2.4L218.6,194.1z"/>
									<path class="st10" d="M216.4,187.1c0,0-5.3,0.4-7,4.1c-1.7,3.7,1.6,4,1.6,4L216.4,187.1z"/>
									<path class="st9" d="M182,212.3c0.3,0.6,0.3,0.6,0.3,0.6s4.1,4.9,7.7,8h7.5c3.9-3.6,9.3-9.8,9.3-10.1
										c0-0.4,4.7-5.5,3.7-7.6s-2.4-1.7-2.4-1.7s-1.5,0.2-3.3,2c-1.7,1.8-10.2,14.9-10.2,14.9s-1.1-2-3.1-3.5s-7.9-4.7-7.9-4.7
										s0.4-2.5,0.3-3c0-0.5-1.5-2.7-1.9-2.2s0.6,2.6,0.6,2.6S181.7,211.7,182,212.3z"/>
									<path class="st18" d="M200.9,217.2c0,0,0.2,1.6,0.7,3.7h15c0.3-3.4,1-10.2,1.5-11.8c0.6-2.2,0.1-6.8,0.2-8.1
										s-3.4-0.8-3.4-0.8l-4.7,0.1l-0.8,0.3c-1,0.4-2,1.2-2.6,2.2c-0.6,0.9-1.4,2.2-2.6,3.9c-1.9,1.4-6,3.9-5.7,7
										C198.7,216.8,200.9,217.2,200.9,217.2z"/>
									<path class="st9" d="M211.6,197.4c0,0-4.2,5.2-5.3,11.7c1.4-0.4,5.5-4.2,8-6.6c1-1,1.1-1.5,0.9-2.5
										c-0.1-0.5,0.3-1.9,0.9-3.4C216.5,194.5,211.6,197.4,211.6,197.4z"/>
									<path class="st9" d="M224.8,218.6c0,0,0.7,0.9,1.7,2.3h6.7c-1.3-1.7-2.3-3.1-2.6-3.6c-1.1-1.7-8.8-18.4-13.4-16.3
										c-0.9,0.4-4,3-2.7,5.9C215.7,209.9,224.8,218.6,224.8,218.6z"/>
									<g>
										<g>
											<g>
												<path class="st9" d="M211.5,190.6c-0.7,0.8-2.3,3-3.3,4.9c-0.9,1.7-0.3,3.2,1.3,3.4c2.3,0.2,5.8-0.3,7-1.6
													c1.7-2,5.4-5.4,3.9-8.1c-1.5-2.6-4.8-2.3-8.3,0.9C211.8,190.2,211.6,190.4,211.5,190.6z"/>
											</g>
										</g>
										<path class="st10" d="M213,188.9c0,0-2.3,3.8,4.3,6.2l0.8,0.4c0,0,2.9-2.3,2.9-4.7s-1.2-3.3-2.5-3.8
											C217.3,186.4,213.9,188,213,188.9z"/>
									</g>
									<path class="st9" d="M217.1,195.6c0,0,1.7-1.1,1.6-0.1c0,1.1-2.4,2.2-2.6,1.8C215.9,196.9,217.1,195.6,217.1,195.6z"/>
								</g>
							</g>
						</g>
					</g>
					<g>
						<path class="st18" d="M179.7,186.3h-53.3c-1.6,0-2.4-1.3-1.8-3l3.8-9.4c0.7-1.6,2.5-3,4.2-3h53.3c1.6,0,2.4,1.3,1.8,3
							l-3.8,9.4C183.2,185,181.3,186.3,179.7,186.3z"/>
						<polygon class="st5" points="179.2,179.4 133.4,179.4 134.3,177.2 180.1,177.2 						"/>
					</g>
					<g>
						<g>
							<path class="st20" d="M136.6,32h-1.8c-0.3,0-0.5-0.3-0.3-0.6l0.7-1.8c0.1-0.3,0.5-0.6,0.8-0.6h1.8c0.3,0,0.5,0.3,0.3,0.6
								l-0.7,1.8C137.3,31.7,136.9,32,136.6,32z"/>
							<path class="st21" d="M155.1,32h-1.8c-0.3,0-0.5-0.3-0.3-0.6l0.7-1.8c0.1-0.3,0.5-0.6,0.8-0.6h1.8c0.3,0,0.5,0.3,0.3,0.6
								l-0.7,1.8C155.7,31.7,155.4,32,155.1,32z"/>
						</g>
						<g>
							<path class="st21" d="M133.1,40.5h-1.8c-0.3,0-0.5-0.3-0.3-0.6l0.7-1.8c0.1-0.3,0.5-0.6,0.8-0.6h1.8c0.3,0,0.5,0.3,0.3,0.6
								l-0.7,1.8C133.8,40.2,133.5,40.5,133.1,40.5z"/>
							<path class="st20" d="M142.4,40.5h-1.8c-0.3,0-0.5-0.3-0.3-0.6l0.7-1.8c0.1-0.3,0.5-0.6,0.8-0.6h1.8c0.3,0,0.5,0.3,0.3,0.6
								l-0.7,1.8C143.1,40.2,142.7,40.5,142.4,40.5z"/>
							<path class="st20" d="M151.6,40.5h-1.8c-0.3,0-0.5-0.3-0.3-0.6l0.7-1.8c0.1-0.3,0.5-0.6,0.8-0.6h1.8c0.3,0,0.5,0.3,0.3,0.6
								l-0.7,1.8C152.3,40.2,151.9,40.5,151.6,40.5z"/>
							<path class="st20" d="M159,40.5h-1.8c-0.3,0-0.5-0.3-0.3-0.6l0.7-1.8c0.1-0.3,0.5-0.6,0.8-0.6h1.8c0.3,0,0.5,0.3,0.3,0.6
								l-0.7,1.8C159.7,40.2,159.3,40.5,159,40.5z"/>
						</g>
						<g>
							<path class="st20" d="M129.7,49h-1.8c-0.3,0-0.5-0.3-0.3-0.6l0.7-1.8c0.1-0.3,0.5-0.6,0.8-0.6h1.8c0.3,0,0.5,0.3,0.3,0.6
								l-0.7,1.8C130.4,48.7,130,49,129.7,49z"/>
							<path class="st20" d="M122.3,49h-1.8c-0.3,0-0.5-0.3-0.3-0.6l0.7-1.8c0.1-0.3,0.5-0.6,0.8-0.6h1.8c0.3,0,0.5,0.3,0.3,0.6
								l-0.7,1.8C123,48.7,122.6,49,122.3,49z"/>
							<path class="st20" d="M139,49h-1.8c-0.3,0-0.5-0.3-0.3-0.6l0.7-1.8c0.1-0.3,0.5-0.6,0.8-0.6h1.8c0.3,0,0.5,0.3,0.3,0.6
								l-0.7,1.8C139.6,48.7,139.3,49,139,49z"/>
							<path class="st21" d="M148.2,49h-1.8c-0.3,0-0.5-0.3-0.3-0.6l0.7-1.8c0.1-0.3,0.5-0.6,0.8-0.6h1.8c0.3,0,0.5,0.3,0.3,0.6
								l-0.7,1.8C148.9,48.7,148.5,49,148.2,49z"/>
						</g>
						<g>
							<path class="st20" d="M126.3,57.5h-1.8c-0.3,0-0.5-0.3-0.3-0.6l0.7-1.8c0.1-0.3,0.5-0.6,0.8-0.6h1.8c0.3,0,0.5,0.3,0.3,0.6
								l-0.7,1.8C127,57.2,126.6,57.5,126.3,57.5z"/>
						</g>
					</g>
					<g>
						<g>
							<path class="st18" d="M137.3,198.9h-2.5c-0.4,0-0.7-0.4-0.5-0.8l1-2.5c0.2-0.4,0.7-0.8,1.1-0.8h2.5c0.4,0,0.7,0.4,0.5,0.8
								l-1,2.5C138.3,198.5,137.8,198.9,137.3,198.9z"/>
							<path class="st18" d="M163.4,198.9h-2.5c-0.4,0-0.7-0.4-0.5-0.8l1-2.5c0.2-0.4,0.7-0.8,1.1-0.8h2.5c0.4,0,0.7,0.4,0.5,0.8
								l-1,2.5C164.3,198.5,163.8,198.9,163.4,198.9z"/>
						</g>
						<g>
							<path class="st21" d="M132.5,210.8H130c-0.4,0-0.7-0.4-0.5-0.8l1-2.5c0.2-0.4,0.7-0.8,1.1-0.8h2.5c0.4,0,0.7,0.4,0.5,0.8
								l-1,2.5C133.4,210.5,132.9,210.8,132.5,210.8z"/>
							<path class="st14" d="M145.5,210.8H143c-0.4,0-0.7-0.4-0.5-0.8l1-2.5c0.2-0.4,0.7-0.8,1.1-0.8h2.5c0.4,0,0.7,0.4,0.5,0.8
								l-1,2.5C146.5,210.5,145.9,210.8,145.5,210.8z"/>
							<path class="st21" d="M158.5,210.8H156c-0.4,0-0.7-0.4-0.5-0.8l1-2.5c0.2-0.4,0.7-0.8,1.1-0.8h2.5c0.4,0,0.7,0.4,0.5,0.8
								l-1,2.5C159.5,210.5,159,210.8,158.5,210.8z"/>
							<path class="st21" d="M168.9,210.8h-2.5c-0.4,0-0.7-0.4-0.5-0.8l1-2.5c0.2-0.4,0.7-0.8,1.1-0.8h2.5c0.4,0,0.7,0.4,0.5,0.8
								l-1,2.5C169.9,210.5,169.4,210.8,168.9,210.8z"/>
						</g>
						<g>
							<path class="st21" d="M127.6,222.8h-2.5c-0.4,0-0.7-0.4-0.5-0.8l1-2.5c0.2-0.4,0.7-0.8,1.1-0.8h2.5c0.4,0,0.7,0.4,0.5,0.8
								l-1,2.5C128.6,222.4,128.1,222.8,127.6,222.8z"/>
							<path class="st21" d="M117.2,222.8h-2.5c-0.4,0-0.7-0.4-0.5-0.8l1-2.5c0.2-0.4,0.7-0.8,1.1-0.8h2.5c0.4,0,0.7,0.4,0.5,0.8
								l-1,2.5C118.2,222.4,117.7,222.8,117.2,222.8z"/>
							<path class="st21" d="M140.7,222.8h-2.5c-0.4,0-0.7-0.4-0.5-0.8l1-2.5c0.2-0.4,0.7-0.8,1.1-0.8h2.5c0.4,0,0.7,0.4,0.5,0.8
								l-1,2.5C141.6,222.4,141.1,222.8,140.7,222.8z"/>
							<path class="st14" d="M153.7,222.8h-2.5c-0.4,0-0.7-0.4-0.5-0.8l1-2.5c0.2-0.4,0.7-0.8,1.1-0.8h2.5c0.4,0,0.7,0.4,0.5,0.8
								l-1,2.5C154.6,222.4,154.1,222.8,153.7,222.8z"/>
						</g>
						<g>
							<path class="st14" d="M122.8,234.8h-2.5c-0.4,0-0.7-0.4-0.5-0.8l1-2.5c0.2-0.4,0.7-0.8,1.1-0.8h2.5c0.4,0,0.7,0.4,0.5,0.8
								l-1,2.5C123.8,234.4,123.2,234.8,122.8,234.8z"/>
						</g>
					</g>
					<g>
						<polygon class="st13" points="181.6,148.4 109.5,148.4 121.5,125.1 193.5,125.1 						"/>
						<g>
							
								<ellipse transform="matrix(0.7496 -0.6619 0.6619 0.7496 -47.9188 146.775)" class="st22" cx="170" cy="136.7" rx="10.7" ry="8.4"/>
							<path class="st5" d="M167.6,141.5c-0.3,0-0.6-0.1-0.7-0.3l-2.4-3.3c-0.3-0.5-0.2-1.2,0.4-1.6c0.6-0.5,1.3-0.5,1.6,0l1.8,2.4
								l6.5-5.2c0.6-0.5,1.3-0.5,1.6,0s0.2,1.2-0.4,1.6l-7.6,6.1C168.2,141.4,167.9,141.5,167.6,141.5z"/>
						</g>
						<g>
							<path class="st23" d="M113.2,80.8c0,1.8-1.3,3.3-3,3.3c-1.6,0-3-1.5-3-3.3s1.3-3.3,3-3.3C111.9,77.5,113.2,79,113.2,80.8z"/>
							<path class="st5" d="M81.9,98.7c0,0-4.8,0.3-8.3,5.1c-3.6,4.8,1.6,22.5,16.9,29.6c10,3.9,10.7-5,8.2-11.2S89,100.2,81.9,98.7
								z"/>
							<path class="st21" d="M150,287.6c0,2.3-21.9,4.1-48.8,4.1s-48.8-1.8-48.8-4.1c0-2.3,21.9-4.1,48.8-4.1S150,285.4,150,287.6z"
								/>
							<g>
								<path class="st24" d="M83.4,274.4c0,0,1-2.2,4.9-1.6c3.8,0.6,4.3,1.3,4.7,3.3c0.4,1.9,1.8,4,2.7,4.4
									c0.9,0.4,4.1,2.7,6.8,3.1c2.7,0.4,3,2.1,2.4,2.8c-0.6,0.7-10.7,1.3-12.9,1c0,0-7.5-0.1-9.3-0.7
									C80.9,286,83.2,275.1,83.4,274.4z"/>
								<path class="st24" d="M102.7,274.4c0,0,1-2.2,4.9-1.6c3.8,0.6,4.3,1.3,4.7,3.3c0.4,1.9,1.8,4,2.7,4.4
									c0.9,0.4,4.1,2.7,6.8,3.1c2.7,0.4,3,2.1,2.4,2.8c-0.6,0.7-10.7,1.3-12.9,1c0,0-7.5-0.1-9.3-0.7
									C100.1,286,102.5,275.1,102.7,274.4z"/>
								<path class="st25" d="M79.8,219.3c0,0-1.1-6.1,5.3-8.2c6.5-2.1,7.7,0.9,9.7,6.5S93.1,276,93.1,276s-7.9,0.2-9.8-0.9
									c0,0-5.3-35-4.9-43.6C78.9,222.9,79.8,219.3,79.8,219.3z"/>
							</g>
							<path class="st26" d="M110.1,83.1c0,0,1.5,2,1.5,3.1s-2,1.1-2,1.1L110.1,83.1z"/>
							<path class="st11" d="M102.8,62.2c0,0,4.4,1.1,6.9,7.8s0.8,21-0.8,22.7c-1.7,1.7-6.7,1-13.6-1.3c-7.4-2.4-9.8-10.1-11.2-15.1
								C81.5,66.7,89.9,56.7,102.8,62.2z"/>
							<path class="st11" d="M87.1,99.3l3.6-12.7c0,0,7.1-2.1,11.5,2.7l1.5,2.1v8.3C103.7,99.6,96.3,101.1,87.1,99.3z"/>
							<path class="st25" d="M77.2,167.8c0,0-2.7,15.5,0,33.3s8,19.5,12.9,19.5s6.2-14.2,7.1-20.4s4.4-27.5-2.2-32.4
								C88.3,162.9,80.8,162.5,77.2,167.8z"/>
							<path class="st27" d="M95.8,188.7c0,0-5.3-14.2,4-20.4s16.4-5.3,18.6,4.9s2.7,45.3-0.4,52.4
								C114.9,232.6,103.8,221.6,95.8,188.7z"/>
							<path class="st5" d="M85.2,99.2c0,0,1-3.5,1.9-3.8C88,95.2,99,94,104.9,97.5c2.7,2.1,2.4,3.6,2.4,3.6S89.6,97.7,85.2,99.2z"
								/>
							<path class="st28" d="M117.8,167.8c0,0,0.9,2.1,0.4,2.9c-0.7,0.7-20.9,7.8-42.1,2.7c-0.4,0,0.5-3.6,0.5-3.6L117.8,167.8z"/>
							<path class="st28" d="M75.9,135.7c-0.6-4.1-2.4-24.6-1.8-27.5c0.6-2.8,2.9-7.9,7.8-9.5c0.3-0.1,0.7-0.2,1.1-0.3
								c0,0,18.3-1.2,31.4,4.4c0,0,4.5,3.7,5.3,22.6c0,0-0.2,3.2-1,10c-0.7,6.8,0.4,11.8,1.4,18.5c1.1,6.8,3.2,13.5-4.6,15
								c-7.5,1.4-28.2,5-40.3,1.4c-2.5-1.8,1.1-10,1.1-16.4S75.9,135.7,75.9,135.7z"/>
							<path class="st27" d="M104.3,220.2c0,0-0.4-6.2,6.2-7.5c6.7-1.3,7.5,1.8,8.9,7.5c1.3,5.8-6.6,56.1-6.6,56.1
								s-8.7,0.5-10.5-0.8c0,0-2-34.9-0.7-43.3C103,223.8,104.3,220.2,104.3,220.2z"/>
							<path class="st29" d="M94.1,185.4c0,0,6.2,20,10.9,29.7"/>
							<path class="st29" d="M106.7,219.1c0,0,3.8-2.2,7.5,0"/>
							<path class="st29" d="M106.1,221.6c0,0,3.1-1.8,8.4,2"/>
							<path class="st29" d="M82.8,216.4c0,0,2.4-2.2,8,0.2"/>
							<path class="st29" d="M84.5,218.7c0,0,3.6-1.8,6.9,0.9"/>
							<line class="st29" x1="92.7" y1="222.2" x2="91.4" y2="267.5"/>
							<path class="st29" d="M111.1,184.3c0,0,5,3,7.1-1.8"/>
							<path class="st29" d="M116.1,184.9c0,0,2.4,18.4,1.8,30.5"/>
							<path class="st30" d="M100.8,89.8c0,0,1.6,4,6.8,3.3"/>
							<path class="st12" d="M107.5,65.1c0,0,2.5,3.5,2.7,5.5c0.2,2.1-3.2,4.1-3.6,5.4c-0.5,1.3,0.6,2.9,0.1,3.6
								c-0.5,0.8-0.6,2.4-0.6,2.4l0.2,1.8c0.1,0.7-0.4,1.2-1,1.4l-0.4,0.1c-0.5,0.1-1.1-0.2-1.3-0.7c-0.6-1.4-1.7-4.1-2.7-4.3
								c-1.3-0.3-2.5,1.9-3,3c-0.3,0.6-0.9,2.3-1.5,3.7c-0.5,1.2-1.6,2-2.8,2.1c-1.4,0.1-3,0.2-3.6,0c-1.1-0.3-6.8-10.8-6.9-15.8
								c-0.2-5.1,3.3-10.1,7-11.7C93.6,59.9,100.7,58.5,107.5,65.1z"/>
							<path class="st31" d="M81.9,109.1c0,1.4,6,22.9,5,26.7c-0.9,3.8-3.6,30.3-3.6,30.3"/>
							<path class="st32" d="M82,99.4"/>
							<path class="st12" d="M98.4,58.3c0,0,3.5,0.1,4.7-1.6s5.1-2.1,7.9,0.7s2.7,8,0.3,9.9c0,0,2.8-0.5,3.2,1.5
								c0.4,2-3.1,5.1-7.2,6c0,0-6.7-1.9-8.7-0.7c-2,1.2-15.5-0.1-15.5-0.1s-2.9-2.7-2.1-5.1s1.6,0.1,1.6,0.1s-0.7-3.3,3.7-8.2
								C90.7,56,96.8,58.7,98.4,58.3z"/>
							<path class="st33" d="M164.1,129.9l9.5,0.4c0,0-0.3,0.9-1.7,1.2c-1.5,0.3-7,0.9-7,0.9L164.1,129.9z"/>
							<path class="st11" d="M165.3,131.9c0,0,3.2-0.5,3.9-0.4s1.3,4,1.3,4l-2.5,2.7c0,0-0.9-0.4,0-1.9l0.5-0.9l-3.9-1.5
								L165.3,131.9z"/>
							<g>
								<path class="st11" d="M156.1,134.2l4-0.5c0,0,3.3-3.3,4-3.7s4,4.8,4.4,5.5c0,0.5-2,2.3-4,2.5c-2,0.3-2.7-0.3-2.7-0.3
									l-4.4,1.7L156.1,134.2z"/>
								<g>
									<path class="st5" d="M114.3,102.9c0,0-9-0.1-8.7,10.9s19,28.9,24.1,31s26.7-3.7,28.6-4.8c1.9-1.1,1.3-5.6-1.6-6.7
										l-22.2-1.1C134.5,132.2,120.6,103.8,114.3,102.9z"/>
									<path class="st32" d="M134.9,134c0,0,2.7,2.9,2,6.6"/>
									<path class="st32" d="M136.3,133.4c0,0,4.5,1.4,4.8,6.2"/>
								</g>
							</g>
							<line class="st23" x1="113.2" y1="80.8" x2="104" y2="80.8"/>
							<path class="st26" d="M105.1,81.9c0,0-0.6-2.7-2.9-1.5c-2.3,1.3,0.4,7.8,2.3,7.4C106.3,87.4,105.5,83,105.1,81.9z"/>
							<path class="st34" d="M85.7,69.1c0,0,6.4-1.5,11,3.3"/>
							<path class="st34" d="M86.6,68.1c0,0,2.8-2.9,7.5-1.7"/>
							<path class="st34" d="M86,70.3c0,0,2,0.2,3.3,2.4"/>
							<path class="st34" d="M105.4,57.6c0,0,6.4,2,4.9,7.9"/>
						</g>
					</g>
				</g>
			</g>
		</g>
	</g>
</g>
</svg>
