<?xml version="1.0" encoding="utf-8"?>
<!-- Generator: Adobe Illustrator 26.0.1, SVG Export Plug-In . SVG Version: 6.00 Build 0)  -->
<svg version="1.1" id="Layer_1" xmlns="http://www.w3.org/2000/svg" xmlns:xlink="http://www.w3.org/1999/xlink" x="0px" y="0px"
	 viewBox="0 0 101.5 85.7" style="enable-background:new 0 0 101.5 85.7;" xml:space="preserve">
<style type="text/css">
	.st0{fill:#46DB8B;}
</style>
<g>
	<g transform="translate(0.000000,511.000000) scale(0.100000,-0.100000)">
		<path class="st0" d="M485.7,4937.2c-84.3-6.5-164.8-54.5-213.9-127.8c-77.3-115.4-62.2-265.8,36.7-364.5
			c44.4-44.4,97.6-71.5,159.9-81.4c19.6-3.2,58.3-3.2,77.9,0c62.2,9.9,115.7,37.1,159.9,81.4c84.1,84.1,108.9,207.8,63.3,316.7
			c-7.2,17.1-16.5,34.9-24.6,46.7c-3.1,4.4-5.1,8.6-4.6,9c0.4,0.6,11.3,6.3,24.1,12.8c20.9,10.7,23.5,12.4,25.9,17.1
			c5.1,10.6,4.3,11.8-33.7,50.1c-18.9,19.1-36.2,35.9-38.2,37.4c-2.2,1.5-6.4,2.9-9.3,3.1c-9.9,0.1-11.8-2.1-24.6-27.7
			c-6.5-12.9-12.1-23.9-12.4-24.2c-0.3-0.3-5.3,2.6-11.3,6.4C608.2,4925.9,546.6,4941.8,485.7,4937.2z M545,4901.6
			c27.5-4.2,48.8-11,74.4-23.8c12.2-6.1,34.6-20.2,36.2-22.7c1-1.5-28.1-59.8-29.9-59.8c-0.7,0-5.8,3.3-11.5,7.4
			c-19.3,13.9-44.6,25.2-69.8,31c-8.8,2.1-16.5,2.6-36.9,2.6c-20.3,0-28.1-0.6-36.9-2.6c-74.7-17.4-130.2-72.9-147.6-147.6
			c-3.8-15.9-3.8-57.9,0-73.7c13.2-56.7,49-103.2,99.7-130c71.6-37.7,158-23.8,216.7,34.9c66.6,66.6,74.4,167,18.9,242.1
			c-6.5,8.8-8.5,12.4-7.2,13.4c1,0.7,14.3,7.6,29.8,15.4l28.1,14l8.5-12.8c42.3-64.4,52.7-149,27.5-224.3
			c-28.7-86.1-99.4-148.3-188.9-166.5c-14-2.8-20-3.2-48.7-3.2s-34.6,0.4-48.7,3.2c-89.6,18.2-160.9,81.1-189.1,166.9
			c-28.1,85.8-11.1,180.9,44.7,248.5c22.1,27,49.2,48.3,81.4,64.4C439.9,4900.7,494.3,4909.1,545,4901.6z M730.6,4876
			c9-9,16.3-16.8,16-17.2c-1.7-1.4-65.8-33-66.2-32.4c-0.7,0.6,31.8,66.3,32.8,66.3C713.6,4892.7,721.4,4885.2,730.6,4876z
			 M534.7,4801.6c22.8-3.9,51.3-15.6,63.6-25.9l4.4-3.9l-24.3-24.5L554,4723l-9.7,4.9c-13.2,6.7-27.4,9.6-41.6,8.8
			c-51.5-3.3-92.3-56.2-80.9-104.7c7-29.5,32-56.7,60.8-66.2c14.5-4.7,35.2-4.7,49.6,0c26.1,8.6,50.2,32.7,58.8,58.7
			c2.8,8.5,3.3,13.1,3.2,25.6c0,17.4-2.6,27.3-11.1,41.6l-4.9,8.3l24.5,24.3l24.5,24.5l3.5-4.2c10.7-12.8,21.7-36.4,27.4-58.8
			c4.3-17.5,4.3-55.4,0-72.9c-15-59.2-54.9-99.3-113.5-113.9c-14.7-3.6-43.8-5-59.4-2.8C406.9,4507.7,353,4570,353,4649.3
			c0,76.8,51.3,138.8,125.9,152.2C493.8,4804.1,519.5,4804.1,534.7,4801.6z M526,4700.9l4.2-1.7L511,4680
			c-17-17-19.2-19.7-19.9-24.8c-1.4-10.2,6-18.5,16.3-18.5c6.7,0,9,1.8,28.9,21.4c19.9,19.6,19.6,19.5,22.5,9.2
			c6-20.6,0-46.6-13.5-58.4c-17.1-15-45.1-17.9-66.1-6.7c-10,5.3-15.4,11.4-21.1,23.4c-3.9,8.3-4.3,10.2-4.3,23.6
			c0,13.5,0.4,15.3,4.3,23.6c2.4,5,6.3,11.4,8.6,14c5.1,5.8,18.6,13.4,27,15.2C501.3,4703.7,520.8,4703,526,4700.9z"/>
	</g>
</g>
</svg>
