<?xml version="1.0" encoding="utf-8"?>
<!-- Generator: Adobe Illustrator 26.0.1, SVG Export Plug-In . SVG Version: 6.00 Build 0)  -->
<svg version="1.1" id="Layer_1" xmlns="http://www.w3.org/2000/svg" xmlns:xlink="http://www.w3.org/1999/xlink" x="0px" y="0px"
	 viewBox="0 0 475.2 527" style="enable-background:new 0 0 475.2 527;" xml:space="preserve">
<style type="text/css">
	.st0{fill:#46DB8B;}
</style>
<g>
	<g transform="translate(0.000000,511.000000) scale(0.100000,-0.100000)">
		<path class="st0" d="M866.1,3776.1l-25.1-23V2308.5V863.9l25.1-23l25.7-23.1h1483.9H3859l23.7,20.3c40,35.9,37.3,95.5-6.8,125.4
			c-18.3,12.9-34.6,13.6-237.8,15.6l-218.9,2v131.4v132.1l-19,21c-14.2,15.6-25.1,21-43.4,21.7c-28.4,0.7-57.6-16.3-66.4-40
			c-4.1-9.5-6.8-73.2-6.8-142.3V980.5h-420.1h-420.1v149.7V1280l-19.6,19.6c-15.6,15.6-25.7,19.6-48.1,19.6s-32.5-4.1-48.1-19.6
			L2308,1280v-149.7V980.5h-352.3h-352.3v132.1v132.1l-19,21c-14.2,15.6-25.1,21-43.4,21.7c-28.4,0.7-57.6-16.3-66.4-40
			c-4.1-9.5-6.8-73.2-6.8-142.3V980.5h-233.7h-233.8v1386.3v1386.3l-23,23c-19.6,19.6-27.8,23-54.2,23S887.8,3795.1,866.1,3776.1z"
			/>
		<path class="st0" d="M3266.1,3522.7c-134.9-48.1-204-200.6-149.7-333.4c16.9-41.3,17.6-44,6.1-56.9
			c-147.1-168.7-630.2-691.8-638.3-690.5c-5.4,0.7-28.5,6.1-50.8,12.2c-130.1,34.6-269.7-49.4-304.2-182.9
			c-6.1-21.7-12.9-42-15.6-44c-6.1-5.4-354.4-50.2-356.4-46.8c-63.7,105.7-134.8,150.5-238.5,150.5c-101.6,0-183.6-50.8-228.4-143
			c-20.3-41.3-22.4-50.2-22.4-109.8c0-55.6,2.7-69.8,18.3-103c23-50.1,76.6-103,126-126c55.6-25.1,138.2-29.1,193.1-8.1
			c75.2,28.4,136.9,92.2,157.9,163.3c10.8,36.6,13.6,39.3,35.9,42.7c142.3,21.7,349.6,44.7,351.7,39.3c5.4-17.6,48.8-65.1,77.9-85.4
			c70.5-50.1,178.2-59.6,256.8-21.7c109.1,51.5,167.4,174.1,138.3,288.6c-6.1,24.4-16.3,50.8-21.7,59.6c-9.5,14.9-9.5,17.6,2.7,30.5
			c6.8,8.1,149.7,166,316.4,350.3c167.4,184.3,306.3,338.1,309,341.5c2.7,2.7,20.3,0.7,39.3-6.1c35.9-11.5,104.3-14.9,143.7-6.8
			c69.1,14.2,141.6,75.2,174.1,145.7c14.9,31.9,17.6,46.7,17.6,101.6s-2.7,69.8-17.6,101.6c-25.1,54.9-66.4,97.6-119.3,123.3
			c-39.3,19.6-52.8,22.4-106.4,24.4C3316.3,3534.9,3291.8,3532.2,3266.1,3522.7z"/>
		<path class="st0" d="M3315.6,3005.7c-23.1-13.6-31.9-43.4-31.9-107.7c0-88.1,16.9-115.2,71.1-115.2c18.3,0,29.8,5.4,44.7,19.6
			c19.6,19.6,19.6,21,19.6,94.2c0,70.5-0.7,75.9-17.6,95.5c-14.2,17.6-22.4,21-45.4,21C3340.7,3013.2,3322.4,3009.8,3315.6,3005.7z"
			/>
		<path class="st0" d="M3324.4,2580.9c-38.6-19-40.7-27.1-40.7-220.2c0-185.7,2.7-205.3,33.2-221.6c26.4-13.6,61.6-8.1,82.7,12.9
			l19.6,19.6v187v187l-18.3,19.6C3376.6,2591.1,3353.5,2595.8,3324.4,2580.9z"/>
		<path class="st0" d="M3324.4,1930.4c-38.6-19-40.7-27.1-40.7-220.2c0-185.7,2.7-205.3,33.2-221.6c26.4-13.6,61.6-8.1,82.7,12.9
			l19.6,19.6v187v187l-18.3,19.6C3376.6,1940.6,3353.5,1945.3,3324.4,1930.4z"/>
		<path class="st0" d="M2327.7,1895.9l-19.6-19.6v-160.6v-160.6l19.6-19.6c27.8-27.8,68.4-27.8,96.2,0l19.6,19.6v160.6v160.6
			l-19.6,19.6c-15.6,15.6-25.7,19.6-48.1,19.6C2353.4,1915.5,2343.3,1911.5,2327.7,1895.9z"/>
		<path class="st0" d="M1511.2,1752.9c-8.1-2.7-21-14.2-29.1-24.4c-12.9-16.3-14.2-26.4-14.2-105.7c0-116.5,12.2-140.9,71.1-140.9
			c18.3,0,29.8,5.4,44.7,19.6l19.6,19.6v92.2c0,100.3-5.4,121.3-34.6,136.9C1547.8,1761,1532.2,1761.7,1511.2,1752.9z"/>
	</g>
</g>
</svg>
